<?xml version="1.0" encoding="utf-8" standalone="no"?>
<!DOCTYPE svg PUBLIC "-//W3C//DTD SVG 1.1//EN"
  "http://www.w3.org/Graphics/SVG/1.1/DTD/svg11.dtd">
<svg xmlns:xlink="http://www.w3.org/1999/xlink" width="503.645pt" height="495.598125pt" viewBox="0 0 503.645 495.598125" xmlns="http://www.w3.org/2000/svg" version="1.1">
 <metadata>
  <rdf:RDF xmlns:dc="http://purl.org/dc/elements/1.1/" xmlns:cc="http://creativecommons.org/ns#" xmlns:rdf="http://www.w3.org/1999/02/22-rdf-syntax-ns#">
   <cc:Work>
    <dc:type rdf:resource="http://purl.org/dc/dcmitype/StillImage"/>
    <dc:date>2024-07-24T11:44:32.656628</dc:date>
    <dc:format>image/svg+xml</dc:format>
    <dc:creator>
     <cc:Agent>
      <dc:title>Matplotlib v3.5.2, https://matplotlib.org/</dc:title>
     </cc:Agent>
    </dc:creator>
   </cc:Work>
  </rdf:RDF>
 </metadata>
 <defs>
  <style type="text/css">*{stroke-linejoin: round; stroke-linecap: butt}</style>
 </defs>
 <g id="figure_1">
  <g id="patch_1">
   <path d="M 0 495.598125 
L 503.645 495.598125 
L 503.645 0 
L 0 0 
z
" style="fill: #ffffff"/>
  </g>
  <g id="axes_1">
   <g id="patch_2">
    <path d="M 476.76375 247.799062 
C 476.76375 218.677806 471.027497 189.839717 459.883275 162.935185 
C 448.739053 136.030652 432.403588 111.582901 411.81175 90.991063 
C 391.219912 70.399225 366.772161 54.06376 339.867628 42.919537 
C 312.963095 31.775315 284.125006 26.039062 255.00375 26.039062 
C 225.882494 26.039062 197.044405 31.775315 170.139872 42.919537 
C 143.235339 54.06376 118.787588 70.399225 98.19575 90.991063 
C 77.603912 111.582901 61.268447 136.030652 50.124225 162.935185 
C 38.980003 189.839717 33.24375 218.677806 33.24375 247.799062 
C 33.24375 276.920319 38.980003 305.758408 50.124225 332.66294 
C 61.268447 359.567473 77.603912 384.015224 98.19575 404.607062 
C 118.787588 425.1989 143.235339 441.534365 170.139872 452.678588 
C 197.044405 463.82281 225.882494 469.559062 255.00375 469.559062 
C 284.125006 469.559062 312.963095 463.82281 339.867628 452.678588 
C 366.772161 441.534365 391.219912 425.1989 411.81175 404.607062 
C 432.403588 384.015224 448.739053 359.567473 459.883275 332.66294 
C 471.027497 305.758408 476.76375 276.920319 476.76375 247.799062 
M 255.00375 247.799062 
C 255.00375 247.799062 255.00375 247.799062 255.00375 247.799062 
C 255.00375 247.799062 255.00375 247.799062 255.00375 247.799062 
C 255.00375 247.799062 255.00375 247.799062 255.00375 247.799062 
C 255.00375 247.799062 255.00375 247.799062 255.00375 247.799062 
C 255.00375 247.799062 255.00375 247.799062 255.00375 247.799062 
C 255.00375 247.799062 255.00375 247.799062 255.00375 247.799062 
C 255.00375 247.799062 255.00375 247.799062 255.00375 247.799062 
C 255.00375 247.799062 255.00375 247.799062 255.00375 247.799062 
C 255.00375 247.799062 255.00375 247.799062 255.00375 247.799062 
C 255.00375 247.799062 255.00375 247.799062 255.00375 247.799062 
C 255.00375 247.799062 255.00375 247.799062 255.00375 247.799062 
C 255.00375 247.799062 255.00375 247.799062 255.00375 247.799062 
C 255.00375 247.799062 255.00375 247.799062 255.00375 247.799062 
C 255.00375 247.799062 255.00375 247.799062 255.00375 247.799062 
C 255.00375 247.799062 255.00375 247.799062 255.00375 247.799062 
C 255.00375 247.799062 255.00375 247.799062 255.00375 247.799062 
M 476.76375 247.799062 
z
" style="fill: #ffffff"/>
   </g>
   <g id="matplotlib.axis_1">
    <g id="xtick_1">
     <g id="line2d_1">
      <path d="M 255.00375 247.799062 
L 476.76375 247.799062 
" clip-path="url(#paed1bd4e1d)" style="fill: none; stroke: #b0b0b0; stroke-width: 0.8; stroke-linecap: square"/>
     </g>
     <g id="text_1">
      <!-- 0° -->
      <g transform="translate(485.0825 250.558437)scale(0.1 -0.1)">
       <defs>
        <path id="DejaVuSerif-30" d="M 2034 219 
Q 2513 219 2750 744 
Q 2988 1269 2988 2328 
Q 2988 3391 2750 3916 
Q 2513 4441 2034 4441 
Q 1556 4441 1318 3916 
Q 1081 3391 1081 2328 
Q 1081 1269 1318 744 
Q 1556 219 2034 219 
z
M 2034 -91 
Q 1275 -91 848 546 
Q 422 1184 422 2328 
Q 422 3475 848 4112 
Q 1275 4750 2034 4750 
Q 2797 4750 3222 4112 
Q 3647 3475 3647 2328 
Q 3647 1184 3222 546 
Q 2797 -91 2034 -91 
z
" transform="scale(0.015625)"/>
        <path id="DejaVuSerif-b0" d="M 1600 4319 
Q 1363 4319 1200 4155 
Q 1038 3991 1038 3750 
Q 1038 3513 1198 3353 
Q 1359 3194 1600 3194 
Q 1838 3194 2000 3355 
Q 2163 3516 2163 3750 
Q 2163 3984 1997 4151 
Q 1831 4319 1600 4319 
z
M 1600 4750 
Q 1800 4750 1984 4673 
Q 2169 4597 2303 4453 
Q 2447 4313 2519 4134 
Q 2591 3956 2591 3750 
Q 2591 3338 2302 3052 
Q 2013 2766 1594 2766 
Q 1172 2766 890 3047 
Q 609 3328 609 3750 
Q 609 4169 896 4459 
Q 1184 4750 1600 4750 
z
" transform="scale(0.015625)"/>
       </defs>
       <use xlink:href="#DejaVuSerif-30"/>
       <use xlink:href="#DejaVuSerif-b0" x="63.623047"/>
      </g>
     </g>
    </g>
    <g id="xtick_2">
     <g id="line2d_2">
      <path d="M 255.00375 247.799062 
L 411.81175 90.991063 
" clip-path="url(#paed1bd4e1d)" style="fill: none; stroke: #b0b0b0; stroke-width: 0.8; stroke-linecap: square"/>
     </g>
     <g id="text_2">
      <!-- 45° -->
      <g transform="translate(412.848745 83.850943)scale(0.1 -0.1)">
       <defs>
        <path id="DejaVuSerif-34" d="M 2234 1581 
L 2234 4063 
L 641 1581 
L 2234 1581 
z
M 3609 0 
L 1484 0 
L 1484 331 
L 2234 331 
L 2234 1247 
L 197 1247 
L 197 1588 
L 2241 4750 
L 2859 4750 
L 2859 1581 
L 3750 1581 
L 3750 1247 
L 2859 1247 
L 2859 331 
L 3609 331 
L 3609 0 
z
" transform="scale(0.015625)"/>
        <path id="DejaVuSerif-35" d="M 3219 4666 
L 3219 4153 
L 1081 4153 
L 1081 2816 
Q 1244 2928 1461 2984 
Q 1678 3041 1947 3041 
Q 2703 3041 3140 2622 
Q 3578 2203 3578 1478 
Q 3578 738 3136 323 
Q 2694 -91 1894 -91 
Q 1572 -91 1234 -12 
Q 897 66 544 225 
L 544 1131 
L 897 1131 
Q 925 688 1179 453 
Q 1434 219 1894 219 
Q 2388 219 2653 544 
Q 2919 869 2919 1478 
Q 2919 2084 2655 2407 
Q 2391 2731 1894 2731 
Q 1613 2731 1398 2631 
Q 1184 2531 1019 2322 
L 750 2322 
L 750 4666 
L 3219 4666 
z
" transform="scale(0.015625)"/>
       </defs>
       <use xlink:href="#DejaVuSerif-34"/>
       <use xlink:href="#DejaVuSerif-35" x="63.623047"/>
       <use xlink:href="#DejaVuSerif-b0" x="127.246094"/>
      </g>
     </g>
    </g>
    <g id="xtick_3">
     <g id="line2d_3">
      <path d="M 255.00375 247.799062 
L 255.00375 26.039062 
" clip-path="url(#paed1bd4e1d)" style="fill: none; stroke: #b0b0b0; stroke-width: 0.8; stroke-linecap: square"/>
     </g>
     <g id="text_3">
      <!-- 90° -->
      <g transform="translate(246.14125 14.798437)scale(0.1 -0.1)">
       <defs>
        <path id="DejaVuSerif-39" d="M 2994 2091 
Q 2784 1856 2512 1740 
Q 2241 1625 1900 1625 
Q 1206 1625 804 2044 
Q 403 2463 403 3188 
Q 403 3897 839 4323 
Q 1275 4750 2003 4750 
Q 2794 4750 3217 4161 
Q 3641 3572 3641 2478 
Q 3641 1253 3137 581 
Q 2634 -91 1722 -91 
Q 1475 -91 1203 -44 
Q 931 3 647 97 
L 647 872 
L 997 872 
Q 1038 556 1241 387 
Q 1444 219 1784 219 
Q 2391 219 2687 676 
Q 2984 1134 2994 2091 
z
M 1978 4441 
Q 1534 4441 1298 4117 
Q 1063 3794 1063 3188 
Q 1063 2581 1298 2256 
Q 1534 1931 1978 1931 
Q 2422 1931 2658 2245 
Q 2894 2559 2894 3150 
Q 2894 3772 2656 4106 
Q 2419 4441 1978 4441 
z
" transform="scale(0.015625)"/>
       </defs>
       <use xlink:href="#DejaVuSerif-39"/>
       <use xlink:href="#DejaVuSerif-30" x="63.623047"/>
       <use xlink:href="#DejaVuSerif-b0" x="127.246094"/>
      </g>
     </g>
    </g>
    <g id="xtick_4">
     <g id="line2d_4">
      <path d="M 255.00375 247.799062 
L 98.19575 90.991063 
" clip-path="url(#paed1bd4e1d)" style="fill: none; stroke: #b0b0b0; stroke-width: 0.8; stroke-linecap: square"/>
     </g>
     <g id="text_4">
      <!-- 135° -->
      <g transform="translate(76.252505 83.850943)scale(0.1 -0.1)">
       <defs>
        <path id="DejaVuSerif-31" d="M 909 0 
L 909 331 
L 1722 331 
L 1722 4213 
L 781 3603 
L 781 4013 
L 1919 4750 
L 2350 4750 
L 2350 331 
L 3163 331 
L 3163 0 
L 909 0 
z
" transform="scale(0.015625)"/>
        <path id="DejaVuSerif-33" d="M 622 4469 
Q 988 4606 1323 4678 
Q 1659 4750 1953 4750 
Q 2638 4750 3022 4454 
Q 3406 4159 3406 3634 
Q 3406 3213 3140 2930 
Q 2875 2647 2388 2547 
Q 2963 2466 3280 2130 
Q 3597 1794 3597 1259 
Q 3597 606 3158 257 
Q 2719 -91 1894 -91 
Q 1528 -91 1179 -12 
Q 831 66 488 225 
L 488 1131 
L 838 1131 
Q 869 681 1141 450 
Q 1413 219 1906 219 
Q 2384 219 2661 495 
Q 2938 772 2938 1253 
Q 2938 1803 2653 2086 
Q 2369 2369 1819 2369 
L 1522 2369 
L 1522 2688 
L 1678 2688 
Q 2225 2688 2498 2914 
Q 2772 3141 2772 3597 
Q 2772 4006 2547 4223 
Q 2322 4441 1900 4441 
Q 1478 4441 1245 4241 
Q 1013 4041 972 3647 
L 622 3647 
L 622 4469 
z
" transform="scale(0.015625)"/>
       </defs>
       <use xlink:href="#DejaVuSerif-31"/>
       <use xlink:href="#DejaVuSerif-33" x="63.623047"/>
       <use xlink:href="#DejaVuSerif-35" x="127.246094"/>
       <use xlink:href="#DejaVuSerif-b0" x="190.869141"/>
      </g>
     </g>
    </g>
    <g id="xtick_5">
     <g id="line2d_5">
      <path d="M 255.00375 247.799062 
L 33.24375 247.799062 
" clip-path="url(#paed1bd4e1d)" style="fill: none; stroke: #b0b0b0; stroke-width: 0.8; stroke-linecap: square"/>
     </g>
     <g id="text_5">
      <!-- 180° -->
      <g transform="translate(7.2 250.558437)scale(0.1 -0.1)">
       <defs>
        <path id="DejaVuSerif-38" d="M 2981 1275 
Q 2981 1775 2732 2051 
Q 2484 2328 2034 2328 
Q 1584 2328 1336 2051 
Q 1088 1775 1088 1275 
Q 1088 772 1336 495 
Q 1584 219 2034 219 
Q 2484 219 2732 495 
Q 2981 772 2981 1275 
z
M 2853 3541 
Q 2853 3966 2637 4203 
Q 2422 4441 2034 4441 
Q 1650 4441 1433 4203 
Q 1216 3966 1216 3541 
Q 1216 3113 1433 2875 
Q 1650 2638 2034 2638 
Q 2422 2638 2637 2875 
Q 2853 3113 2853 3541 
z
M 2516 2484 
Q 3047 2413 3344 2092 
Q 3641 1772 3641 1275 
Q 3641 619 3225 264 
Q 2809 -91 2034 -91 
Q 1263 -91 845 264 
Q 428 619 428 1275 
Q 428 1772 725 2092 
Q 1022 2413 1556 2484 
Q 1084 2569 832 2842 
Q 581 3116 581 3541 
Q 581 4103 968 4426 
Q 1356 4750 2034 4750 
Q 2713 4750 3100 4426 
Q 3488 4103 3488 3541 
Q 3488 3116 3236 2842 
Q 2984 2569 2516 2484 
z
" transform="scale(0.015625)"/>
       </defs>
       <use xlink:href="#DejaVuSerif-31"/>
       <use xlink:href="#DejaVuSerif-38" x="63.623047"/>
       <use xlink:href="#DejaVuSerif-30" x="127.246094"/>
       <use xlink:href="#DejaVuSerif-b0" x="190.869141"/>
      </g>
     </g>
    </g>
    <g id="xtick_6">
     <g id="line2d_6">
      <path d="M 255.00375 247.799062 
L 98.19575 404.607062 
" clip-path="url(#paed1bd4e1d)" style="fill: none; stroke: #b0b0b0; stroke-width: 0.8; stroke-linecap: square"/>
     </g>
     <g id="text_6">
      <!-- 225° -->
      <g transform="translate(76.252505 417.265932)scale(0.1 -0.1)">
       <defs>
        <path id="DejaVuSerif-32" d="M 819 3553 
L 469 3553 
L 469 4384 
Q 803 4563 1142 4656 
Q 1481 4750 1806 4750 
Q 2534 4750 2956 4397 
Q 3378 4044 3378 3438 
Q 3378 2753 2422 1800 
Q 2347 1728 2309 1691 
L 1131 513 
L 3078 513 
L 3078 1088 
L 3444 1088 
L 3444 0 
L 434 0 
L 434 341 
L 1850 1753 
Q 2319 2222 2519 2614 
Q 2719 3006 2719 3438 
Q 2719 3909 2473 4175 
Q 2228 4441 1797 4441 
Q 1350 4441 1106 4219 
Q 863 3997 819 3553 
z
" transform="scale(0.015625)"/>
       </defs>
       <use xlink:href="#DejaVuSerif-32"/>
       <use xlink:href="#DejaVuSerif-32" x="63.623047"/>
       <use xlink:href="#DejaVuSerif-35" x="127.246094"/>
       <use xlink:href="#DejaVuSerif-b0" x="190.869141"/>
      </g>
     </g>
    </g>
    <g id="xtick_7">
     <g id="line2d_7">
      <path d="M 255.00375 247.799062 
L 255.00375 469.559062 
" clip-path="url(#paed1bd4e1d)" style="fill: none; stroke: #b0b0b0; stroke-width: 0.8; stroke-linecap: square"/>
     </g>
     <g id="text_7">
      <!-- 270° -->
      <g transform="translate(242.96 486.318437)scale(0.1 -0.1)">
       <defs>
        <path id="DejaVuSerif-37" d="M 3609 4347 
L 1784 0 
L 1319 0 
L 3059 4153 
L 903 4153 
L 903 3578 
L 538 3578 
L 538 4666 
L 3609 4666 
L 3609 4347 
z
" transform="scale(0.015625)"/>
       </defs>
       <use xlink:href="#DejaVuSerif-32"/>
       <use xlink:href="#DejaVuSerif-37" x="63.623047"/>
       <use xlink:href="#DejaVuSerif-30" x="127.246094"/>
       <use xlink:href="#DejaVuSerif-b0" x="190.869141"/>
      </g>
     </g>
    </g>
    <g id="xtick_8">
     <g id="line2d_8">
      <path d="M 255.00375 247.799062 
L 411.81175 404.607062 
" clip-path="url(#paed1bd4e1d)" style="fill: none; stroke: #b0b0b0; stroke-width: 0.8; stroke-linecap: square"/>
     </g>
     <g id="text_8">
      <!-- 315° -->
      <g transform="translate(409.667495 417.265932)scale(0.1 -0.1)">
       <use xlink:href="#DejaVuSerif-33"/>
       <use xlink:href="#DejaVuSerif-31" x="63.623047"/>
       <use xlink:href="#DejaVuSerif-35" x="127.246094"/>
       <use xlink:href="#DejaVuSerif-b0" x="190.869141"/>
      </g>
     </g>
    </g>
   </g>
   <g id="matplotlib.axis_2">
    <g id="ytick_1">
     <g id="line2d_9">
      <path d="M 288.617274 247.799062 
C 288.617274 243.384975 287.747795 239.013809 286.058597 234.935724 
C 284.369399 230.857639 281.893332 227.151943 278.772101 224.030712 
C 275.65087 220.909481 271.945174 218.433414 267.867089 216.744216 
C 263.789004 215.055018 259.417838 214.185539 255.00375 214.185539 
C 250.589662 214.185539 246.218496 215.055018 242.140411 216.744216 
C 238.062326 218.433414 234.35663 220.909481 231.235399 224.030712 
C 228.114168 227.151943 225.638101 230.857639 223.948903 234.935724 
C 222.259705 239.013809 221.390226 243.384975 221.390226 247.799062 
C 221.390226 252.21315 222.259705 256.584316 223.948903 260.662401 
C 225.638101 264.740486 228.114168 268.446182 231.235399 271.567413 
C 234.35663 274.688644 238.062326 277.164711 242.140411 278.853909 
C 246.218496 280.543107 250.589662 281.412586 255.00375 281.412586 
C 259.417838 281.412586 263.789004 280.543107 267.867089 278.853909 
C 271.945174 277.164711 275.65087 274.688644 278.772101 271.567413 
C 281.893332 268.446182 284.369399 264.740486 286.058597 260.662401 
C 287.747795 256.584316 288.617274 252.21315 288.617274 247.799062 
" clip-path="url(#paed1bd4e1d)" style="fill: none; stroke: #b0b0b0; stroke-width: 0.8; stroke-linecap: square"/>
     </g>
     <g id="text_9">
      <!-- 2 -->
      <g transform="translate(286.058597 232.856036)scale(0.1 -0.1)">
       <use xlink:href="#DejaVuSerif-32"/>
      </g>
     </g>
    </g>
    <g id="ytick_2">
     <g id="line2d_10">
      <path d="M 322.230798 247.799062 
C 322.230798 238.970887 320.49184 230.228555 317.113444 222.072385 
C 313.735047 213.916215 308.782914 206.504823 302.540451 200.262361 
C 296.297989 194.019899 288.886598 189.067765 280.730427 185.689369 
C 272.574257 182.310973 263.831925 180.572015 255.00375 180.572015 
C 246.175575 180.572015 237.433243 182.310973 229.277073 185.689369 
C 221.120902 189.067765 213.709511 194.019899 207.467049 200.262361 
C 201.224586 206.504823 196.272453 213.916215 192.894056 222.072385 
C 189.51566 230.228555 187.776702 238.970887 187.776702 247.799062 
C 187.776702 256.627238 189.51566 265.36957 192.894056 273.52574 
C 196.272453 281.68191 201.224586 289.093302 207.467049 295.335764 
C 213.709511 301.578226 221.120902 306.53036 229.277073 309.908756 
C 237.433243 313.287152 246.175575 315.02611 255.00375 315.02611 
C 263.831925 315.02611 272.574257 313.287152 280.730427 309.908756 
C 288.886598 306.53036 296.297989 301.578226 302.540451 295.335764 
C 308.782914 289.093302 313.735047 281.68191 317.113444 273.52574 
C 320.49184 265.36957 322.230798 256.627238 322.230798 247.799062 
" clip-path="url(#paed1bd4e1d)" style="fill: none; stroke: #b0b0b0; stroke-width: 0.8; stroke-linecap: square"/>
     </g>
     <g id="text_10">
      <!-- 4 -->
      <g transform="translate(317.113444 219.992698)scale(0.1 -0.1)">
       <use xlink:href="#DejaVuSerif-34"/>
      </g>
     </g>
    </g>
    <g id="ytick_3">
     <g id="line2d_11">
      <path d="M 355.844322 247.799062 
C 355.844322 234.5568 353.235885 221.443302 348.16829 209.209046 
C 343.100696 196.974791 335.672496 185.857704 326.308802 176.49401 
C 316.945109 167.130317 305.828022 159.702117 293.593766 154.634522 
C 281.359511 149.566928 268.246013 146.958491 255.00375 146.958491 
C 241.761487 146.958491 228.647989 149.566928 216.413734 154.634522 
C 204.179478 159.702117 193.062391 167.130317 183.698698 176.49401 
C 174.335004 185.857704 166.906804 196.974791 161.83921 209.209046 
C 156.771615 221.443302 154.163178 234.5568 154.163178 247.799062 
C 154.163178 261.041325 156.771615 274.154823 161.83921 286.389079 
C 166.906804 298.623334 174.335004 309.740421 183.698698 319.104115 
C 193.062391 328.467808 204.179478 335.896008 216.413734 340.963603 
C 228.647989 346.031197 241.761487 348.639634 255.00375 348.639634 
C 268.246013 348.639634 281.359511 346.031197 293.593766 340.963603 
C 305.828022 335.896008 316.945109 328.467808 326.308802 319.104115 
C 335.672496 309.740421 343.100696 298.623334 348.16829 286.389079 
C 353.235885 274.154823 355.844322 261.041325 355.844322 247.799062 
" clip-path="url(#paed1bd4e1d)" style="fill: none; stroke: #b0b0b0; stroke-width: 0.8; stroke-linecap: square"/>
     </g>
     <g id="text_11">
      <!-- 6 -->
      <g transform="translate(348.16829 207.129359)scale(0.1 -0.1)">
       <defs>
        <path id="DejaVuSerif-36" d="M 2094 219 
Q 2534 219 2771 542 
Q 3009 866 3009 1472 
Q 3009 2078 2771 2401 
Q 2534 2725 2094 2725 
Q 1647 2725 1412 2412 
Q 1178 2100 1178 1509 
Q 1178 888 1415 553 
Q 1653 219 2094 219 
z
M 1075 2569 
Q 1288 2803 1556 2918 
Q 1825 3034 2163 3034 
Q 2859 3034 3264 2615 
Q 3669 2197 3669 1472 
Q 3669 763 3233 336 
Q 2797 -91 2069 -91 
Q 1278 -91 853 498 
Q 428 1088 428 2181 
Q 428 3406 931 4078 
Q 1434 4750 2350 4750 
Q 2597 4750 2869 4703 
Q 3141 4656 3425 4563 
L 3425 3794 
L 3072 3794 
Q 3034 4109 2831 4275 
Q 2628 4441 2284 4441 
Q 1678 4441 1381 3981 
Q 1084 3522 1075 2569 
z
" transform="scale(0.015625)"/>
       </defs>
       <use xlink:href="#DejaVuSerif-36"/>
      </g>
     </g>
    </g>
    <g id="ytick_4">
     <g id="line2d_12">
      <path d="M 389.457846 247.799062 
C 389.457846 230.142712 385.97993 212.658048 379.223137 196.345708 
C 372.466345 180.033367 362.562078 165.210584 350.077153 152.72566 
C 337.592228 140.240735 322.769445 130.336468 306.457105 123.579675 
C 290.144764 116.822883 272.6601 113.344967 255.00375 113.344967 
C 237.3474 113.344967 219.862736 116.822883 203.550395 123.579675 
C 187.238055 130.336468 172.415272 140.240735 159.930347 152.72566 
C 147.445422 165.210584 137.541155 180.033367 130.784363 196.345708 
C 124.02757 212.658048 120.549654 230.142712 120.549654 247.799062 
C 120.549654 265.455413 124.02757 282.940077 130.784363 299.252417 
C 137.541155 315.564758 147.445422 330.387541 159.930347 342.872465 
C 172.415272 355.35739 187.238055 365.261657 203.550395 372.01845 
C 219.862736 378.775242 237.3474 382.253158 255.00375 382.253158 
C 272.6601 382.253158 290.144764 378.775242 306.457105 372.01845 
C 322.769445 365.261657 337.592228 355.35739 350.077153 342.872465 
C 362.562078 330.387541 372.466345 315.564758 379.223137 299.252417 
C 385.97993 282.940077 389.457846 265.455413 389.457846 247.799062 
" clip-path="url(#paed1bd4e1d)" style="fill: none; stroke: #b0b0b0; stroke-width: 0.8; stroke-linecap: square"/>
     </g>
     <g id="text_12">
      <!-- 8 -->
      <g transform="translate(379.223137 194.26602)scale(0.1 -0.1)">
       <use xlink:href="#DejaVuSerif-38"/>
      </g>
     </g>
    </g>
    <g id="ytick_5">
     <g id="line2d_13">
      <path d="M 423.07137 247.799062 
C 423.07137 225.728625 418.723975 203.872794 410.277984 183.482369 
C 401.831993 163.091943 389.45166 144.563465 373.845504 128.957309 
C 358.239348 113.351153 339.710869 100.970819 319.320444 92.524828 
C 298.930018 84.078838 277.074188 79.731443 255.00375 79.731443 
C 232.933312 79.731443 211.077482 84.078838 190.687056 92.524828 
C 170.296631 100.970819 151.768152 113.351153 136.161996 128.957309 
C 120.55584 144.563465 108.175507 163.091943 99.729516 183.482369 
C 91.283525 203.872794 86.93613 225.728625 86.93613 247.799062 
C 86.93613 269.8695 91.283525 291.725331 99.729516 312.115756 
C 108.175507 332.506182 120.55584 351.03466 136.161996 366.640816 
C 151.768152 382.246972 170.296631 394.627306 190.687056 403.073297 
C 211.077482 411.519287 232.933312 415.866682 255.00375 415.866682 
C 277.074188 415.866682 298.930018 411.519287 319.320444 403.073297 
C 339.710869 394.627306 358.239348 382.246972 373.845504 366.640816 
C 389.45166 351.03466 401.831993 332.506182 410.277984 312.115756 
C 418.723975 291.725331 423.07137 269.8695 423.07137 247.799062 
" clip-path="url(#paed1bd4e1d)" style="fill: none; stroke: #b0b0b0; stroke-width: 0.8; stroke-linecap: square"/>
     </g>
     <g id="text_13">
      <!-- 10 -->
      <g transform="translate(410.277984 181.402681)scale(0.1 -0.1)">
       <use xlink:href="#DejaVuSerif-31"/>
       <use xlink:href="#DejaVuSerif-30" x="63.623047"/>
      </g>
     </g>
    </g>
    <g id="ytick_6">
     <g id="line2d_14">
      <path d="M 456.684894 247.799062 
C 456.684894 221.314537 451.46802 195.087541 441.332831 170.61903 
C 431.197642 146.150519 416.341242 123.916345 397.613854 105.188958 
C 378.886467 86.461571 356.652293 71.605171 332.183782 61.469982 
C 307.715272 51.334793 281.488275 46.117919 255.00375 46.117919 
C 228.519225 46.117919 202.292228 51.334793 177.823718 61.469982 
C 153.355207 71.605171 131.121033 86.461571 112.393646 105.188958 
C 93.666258 123.916345 78.809858 146.150519 68.674669 170.61903 
C 58.53948 195.087541 53.322606 221.314537 53.322606 247.799062 
C 53.322606 274.283588 58.53948 300.510584 68.674669 324.979095 
C 78.809858 349.447606 93.666258 371.68178 112.393646 390.409167 
C 131.121033 409.136554 153.355207 423.992954 177.823718 434.128143 
C 202.292228 444.263332 228.519225 449.480206 255.00375 449.480206 
C 281.488275 449.480206 307.715272 444.263332 332.183782 434.128143 
C 356.652293 423.992954 378.886467 409.136554 397.613854 390.409167 
C 416.341242 371.68178 431.197642 349.447606 441.332831 324.979095 
C 451.46802 300.510584 456.684894 274.283588 456.684894 247.799062 
" clip-path="url(#paed1bd4e1d)" style="fill: none; stroke: #b0b0b0; stroke-width: 0.8; stroke-linecap: square"/>
     </g>
     <g id="text_14">
      <!-- 12 -->
      <g transform="translate(441.332831 168.539343)scale(0.1 -0.1)">
       <use xlink:href="#DejaVuSerif-31"/>
       <use xlink:href="#DejaVuSerif-32" x="63.623047"/>
      </g>
     </g>
    </g>
   </g>
   <g id="line2d_15">
    <path d="M 255.00375 247.799062 
L 256.903405 247.691417 
L 258.784795 247.36917 
L 260.629752 246.834388 
L 262.420303 246.090501 
L 264.138765 245.142291 
L 265.767843 243.995867 
L 267.290718 242.658632 
L 268.691142 241.139253 
L 269.953527 239.447616 
L 271.063027 237.59478 
L 272.005622 235.59292 
L 272.768199 233.455272 
L 273.33862 231.196068 
L 273.7058 228.830464 
L 273.859764 226.374469 
L 273.791713 223.844867 
L 273.494078 221.259131 
L 272.960566 218.63534 
L 272.186206 215.992091 
L 271.167387 213.348404 
L 269.901886 210.723626 
L 268.388895 208.13734 
L 266.62904 205.60926 
L 264.62439 203.159135 
L 262.378464 200.806647 
L 260.183513 198.813297 
L 257.80627 196.926047 
L 255.252064 195.158207 
L 252.527107 193.522805 
L 249.63847 192.03254 
L 246.594069 190.69972 
L 243.402644 189.536216 
L 240.073734 188.553407 
L 236.617646 187.762128 
L 233.045427 187.172629 
L 229.368831 186.794519 
L 225.600279 186.636727 
L 221.752825 186.707457 
L 217.840108 187.014149 
L 213.87631 187.563438 
L 209.876112 188.361122 
L 205.854642 189.412127 
L 201.827424 190.720477 
L 197.810326 192.289268 
L 194.316363 193.877311 
L 190.853489 195.667235 
L 187.432786 197.659283 
L 184.06541 199.853113 
L 180.762568 202.247789 
L 177.535482 204.841775 
L 174.395357 207.632935 
L 171.353355 210.61853 
L 168.420559 213.795218 
L 165.607944 217.159055 
L 162.926341 220.7055 
L 160.386414 224.429421 
L 157.99862 228.325096 
L 155.773183 232.38623 
L 153.720062 236.605955 
L 151.848919 240.97685 
L 150.169095 245.490947 
L 148.689574 250.139752 
L 147.418957 254.914253 
L 146.365437 259.804947 
L 145.536767 264.80185 
L 144.940237 269.894524 
L 144.582651 275.072094 
L 144.470297 280.323273 
L 144.608929 285.636388 
L 145.003742 290.999401 
L 145.659354 296.399943 
L 146.431945 301.049243 
L 147.40128 305.708655 
L 148.569188 310.369892 
L 149.937156 315.024545 
L 151.506314 319.664098 
L 153.277432 324.279942 
L 155.250915 328.863388 
L 157.4268 333.405685 
L 159.804746 337.898036 
L 162.384039 342.331611 
L 165.16358 346.697564 
L 168.141891 350.987054 
L 171.317109 355.191252 
L 174.686985 359.301367 
L 178.248888 363.308655 
L 181.9998 367.204441 
L 185.936322 370.980133 
L 190.054675 374.627237 
L 194.350701 378.137377 
L 198.819869 381.50231 
L 203.457276 384.713943 
L 208.257656 387.764346 
L 213.215381 390.645773 
L 218.324472 393.350674 
L 223.578602 395.871713 
L 228.971107 398.201781 
L 234.49499 400.334015 
L 240.142935 402.261808 
L 245.907315 403.978828 
L 251.780197 405.479028 
L 257.753364 406.756665 
L 263.818314 407.806306 
L 269.966281 408.622847 
L 276.188245 409.201526 
L 282.474944 409.537927 
L 288.816888 409.628001 
L 295.204376 409.468071 
L 301.627506 409.054843 
L 308.076197 408.385418 
L 314.540196 407.4573 
L 321.009102 406.268403 
L 327.472378 404.817059 
L 333.919371 403.102028 
L 340.339324 401.122502 
L 346.7214 398.878111 
L 353.054696 396.36893 
L 358.287281 394.076036 
L 363.472035 391.600156 
L 368.602597 388.942047 
L 373.672609 386.102691 
L 378.675723 383.083286 
L 383.605605 379.885255 
L 388.455944 376.510239 
L 393.220465 372.960101 
L 397.892927 369.236924 
L 402.46714 365.343012 
L 406.936965 361.280886 
L 411.296329 357.053286 
L 415.539227 352.663169 
L 419.65973 348.113705 
L 423.651997 343.408277 
L 427.510277 338.550479 
L 431.228922 333.544113 
L 434.802388 328.393184 
L 438.225249 323.101903 
L 441.4922 317.674675 
L 444.598063 312.116104 
L 447.537799 306.430984 
L 450.306512 300.624297 
L 452.899453 294.701206 
L 455.312035 288.667055 
L 457.539828 282.527361 
L 459.578576 276.287809 
L 461.424198 269.954249 
L 463.072794 263.532688 
L 464.520651 257.029286 
L 465.764252 250.450348 
L 466.20375 247.799062 
L 466.20375 247.799062 
" clip-path="url(#paed1bd4e1d)" style="fill: none; stroke: #1f77b4; stroke-width: 1.5; stroke-linecap: square"/>
   </g>
   <g id="line2d_16">
    <path d="M 255.00375 247.799062 
L 218.329255 455.79046 
" clip-path="url(#paed1bd4e1d)" style="fill: none; stroke-dasharray: 5.55,2.4; stroke-dashoffset: 0; stroke: #ffa500; stroke-opacity: 0.5; stroke-width: 1.5"/>
   </g>
   <g id="line2d_17">
    <path d="M 255.00375 247.799062 
L 291.678245 455.79046 
" clip-path="url(#paed1bd4e1d)" style="fill: none; stroke-dasharray: 5.55,2.4; stroke-dashoffset: 0; stroke: #008000; stroke-opacity: 0.5; stroke-width: 1.5"/>
   </g>
   <g id="line2d_18">
    <defs>
     <path id="md9ee87c246" d="M 0 3 
C 0.795609 3 1.55874 2.683901 2.12132 2.12132 
C 2.683901 1.55874 3 0.795609 3 0 
C 3 -0.795609 2.683901 -1.55874 2.12132 -2.12132 
C 1.55874 -2.683901 0.795609 -3 0 -3 
C -0.795609 -3 -1.55874 -2.683901 -2.12132 -2.12132 
C -2.683901 -1.55874 -3 -0.795609 -3 0 
C -3 0.795609 -2.683901 1.55874 -2.12132 2.12132 
C -1.55874 2.683901 -0.795609 3 0 3 
z
" style="stroke: #ff0000"/>
    </defs>
    <g clip-path="url(#paed1bd4e1d)">
     <use xlink:href="#md9ee87c246" x="228.498259" y="398.119172" style="fill: #ff0000; stroke: #ff0000"/>
    </g>
   </g>
   <g id="line2d_19">
    <defs>
     <path id="m77694d2d1d" d="M 0 3 
C 0.795609 3 1.55874 2.683901 2.12132 2.12132 
C 2.683901 1.55874 3 0.795609 3 0 
C 3 -0.795609 2.683901 -1.55874 2.12132 -2.12132 
C 1.55874 -2.683901 0.795609 -3 0 -3 
C -0.795609 -3 -1.55874 -2.683901 -2.12132 -2.12132 
C -2.683901 -1.55874 -3 -0.795609 -3 0 
C -3 0.795609 -2.683901 1.55874 -2.12132 2.12132 
C -1.55874 2.683901 -0.795609 3 0 3 
z
" style="stroke: #008000"/>
    </defs>
    <g clip-path="url(#paed1bd4e1d)">
     <use xlink:href="#m77694d2d1d" x="283.528357" y="409.570149" style="fill: #008000; stroke: #008000"/>
    </g>
   </g>
   <g id="line2d_20">
    <path d="M 228.498259 398.119172 
L 281.509241 398.119172 
" clip-path="url(#paed1bd4e1d)" style="fill: none; stroke: #ff00ff; stroke-width: 1.5; stroke-linecap: square"/>
   </g>
   <g id="line2d_21">
    <path d="M 281.509241 398.119172 
L 283.528357 409.570149 
" clip-path="url(#paed1bd4e1d)" style="fill: none; stroke: #00ffff; stroke-width: 1.5; stroke-linecap: square"/>
   </g>
   <g id="line2d_22">
    <path d="M 228.498259 398.119172 
L 283.528357 409.570149 
" clip-path="url(#paed1bd4e1d)" style="fill: none; stroke: #ff0000; stroke-width: 1.5; stroke-linecap: square"/>
   </g>
   <g id="patch_3">
    <path d="M 476.76375 247.799062 
C 476.76375 218.677806 471.027497 189.839717 459.883275 162.935185 
C 448.739053 136.030652 432.403588 111.582901 411.81175 90.991063 
C 391.219912 70.399225 366.772161 54.06376 339.867628 42.919537 
C 312.963095 31.775315 284.125006 26.039062 255.00375 26.039062 
C 225.882494 26.039062 197.044405 31.775315 170.139872 42.919537 
C 143.235339 54.06376 118.787588 70.399225 98.19575 90.991063 
C 77.603912 111.582901 61.268447 136.030652 50.124225 162.935185 
C 38.980003 189.839717 33.24375 218.677806 33.24375 247.799062 
C 33.24375 276.920319 38.980003 305.758408 50.124225 332.66294 
C 61.268447 359.567473 77.603912 384.015224 98.19575 404.607062 
C 118.787588 425.1989 143.235339 441.534365 170.139872 452.678588 
C 197.044405 463.82281 225.882494 469.559062 255.00375 469.559062 
C 284.125006 469.559062 312.963095 463.82281 339.867628 452.678588 
C 366.772161 441.534365 391.219912 425.1989 411.81175 404.607062 
C 432.403588 384.015224 448.739053 359.567473 459.883275 332.66294 
C 471.027497 305.758408 476.76375 276.920319 476.76375 247.799062 
" style="fill: none; stroke: #000000; stroke-width: 0.8; stroke-linejoin: miter; stroke-linecap: square"/>
   </g>
   <g id="legend_1">
    <g id="patch_4">
     <path d="M 340.36375 102.017187 
L 469.76375 102.017187 
Q 471.76375 102.017187 471.76375 100.017187 
L 471.76375 33.039062 
Q 471.76375 31.039062 469.76375 31.039062 
L 340.36375 31.039062 
Q 338.36375 31.039062 338.36375 33.039062 
L 338.36375 100.017187 
Q 338.36375 102.017187 340.36375 102.017187 
z
" style="fill: #ffffff; opacity: 0.8; stroke: #cccccc; stroke-linejoin: miter"/>
    </g>
    <g id="line2d_23">
     <path d="M 342.36375 39.339062 
L 352.36375 39.339062 
L 362.36375 39.339062 
" style="fill: none; stroke: #1f77b4; stroke-width: 1.5; stroke-linecap: square"/>
    </g>
    <g id="text_15">
     <!-- $r=f(\theta)$ -->
     <g transform="translate(370.36375 42.839062)scale(0.1 -0.1)">
      <defs>
       <path id="DejaVuSerif-Italic-72" d="M 3375 3328 
L 3213 2497 
L 2881 2497 
Q 2891 2559 2891 2613 
Q 2891 2775 2816 2866 
Q 2719 2988 2484 2988 
Q 2059 2988 1775 2694 
Q 1491 2400 1384 1850 
L 1025 0 
L 450 0 
L 1031 2994 
L 481 2994 
L 544 3322 
L 1669 3322 
L 1556 2731 
Q 1791 3078 2089 3245 
Q 2388 3413 2769 3413 
Q 2909 3413 3059 3391 
Q 3209 3369 3375 3328 
z
" transform="scale(0.015625)"/>
       <path id="DejaVuSerif-3d" d="M 678 2894 
L 4684 2894 
L 4684 2394 
L 678 2394 
L 678 2894 
z
M 678 1619 
L 4684 1619 
L 4684 1119 
L 678 1119 
L 678 1619 
z
" transform="scale(0.015625)"/>
       <path id="DejaVuSerif-Italic-66" d="M 3191 4078 
L 2888 4078 
Q 2900 4144 2900 4203 
Q 2900 4347 2825 4434 
Q 2719 4556 2472 4556 
Q 2150 4556 1984 4379 
Q 1819 4203 1731 3750 
L 1647 3322 
L 2575 3322 
L 2509 2988 
L 1581 2988 
L 963 -206 
Q 853 -763 509 -1047 
Q 166 -1331 -394 -1331 
L -356 -1025 
Q -28 -1025 131 -850 
Q 297 -663 388 -206 
L 1006 2988 
L 456 2988 
L 522 3322 
L 1072 3322 
L 1153 3738 
Q 1263 4297 1606 4578 
Q 1950 4863 2509 4863 
Q 2719 4863 2920 4825 
Q 3122 4788 3316 4709 
L 3191 4078 
z
" transform="scale(0.015625)"/>
       <path id="DejaVuSerif-28" d="M 2041 -997 
Q 1281 -656 893 83 
Q 506 822 506 1931 
Q 506 3044 893 3783 
Q 1281 4522 2041 4863 
L 2041 4556 
Q 1559 4225 1350 3623 
Q 1141 3022 1141 1931 
Q 1141 844 1350 242 
Q 1559 -359 2041 -691 
L 2041 -997 
z
" transform="scale(0.015625)"/>
       <path id="DejaVuSerif-Italic-3b8" d="M 2888 2600 
Q 3059 3603 2947 4113 
Q 2822 4678 2359 4678 
Q 1900 4678 1553 4113 
Q 1244 3603 1025 2600 
L 2888 2600 
z
M 2822 2266 
L 959 2266 
Q 791 1269 903 759 
Q 1031 191 1488 191 
Q 1947 191 2294 759 
Q 2603 1269 2822 2266 
z
M 2409 4931 
Q 3138 4931 3444 4248 
Q 3750 3566 3529 2433 
Q 3309 1300 2734 615 
Q 2159 -69 1434 -69 
Q 713 -69 406 615 
Q 100 1300 320 2433 
Q 541 3566 1112 4248 
Q 1684 4931 2409 4931 
z
" transform="scale(0.015625)"/>
       <path id="DejaVuSerif-29" d="M 453 -997 
L 453 -691 
Q 934 -359 1145 242 
Q 1356 844 1356 1931 
Q 1356 3022 1145 3623 
Q 934 4225 453 4556 
L 453 4863 
Q 1216 4522 1603 3783 
Q 1991 3044 1991 1931 
Q 1991 822 1603 83 
Q 1216 -656 453 -997 
z
" transform="scale(0.015625)"/>
      </defs>
      <use xlink:href="#DejaVuSerif-Italic-72" transform="translate(0 0.953125)"/>
      <use xlink:href="#DejaVuSerif-3d" transform="translate(66.767578 0.953125)"/>
      <use xlink:href="#DejaVuSerif-Italic-66" transform="translate(169.521484 0.953125)"/>
      <use xlink:href="#DejaVuSerif-28" transform="translate(206.533203 0.953125)"/>
      <use xlink:href="#DejaVuSerif-Italic-3b8" transform="translate(245.546875 0.953125)"/>
      <use xlink:href="#DejaVuSerif-29" transform="translate(305.751953 0.953125)"/>
     </g>
    </g>
    <g id="line2d_24">
     <path d="M 342.36375 54.0375 
L 352.36375 54.0375 
L 362.36375 54.0375 
" style="fill: none; stroke: #ff00ff; stroke-width: 1.5; stroke-linecap: square"/>
    </g>
    <g id="text_16">
     <!-- $r(\theta_i)$ -->
     <g transform="translate(370.36375 57.5375)scale(0.1 -0.1)">
      <defs>
       <path id="DejaVuSerif-Italic-69" d="M 1009 4353 
Q 1038 4497 1163 4603 
Q 1288 4709 1434 4709 
Q 1578 4709 1663 4603 
Q 1728 4522 1728 4422 
Q 1728 4388 1719 4353 
Q 1691 4206 1567 4103 
Q 1444 4000 1297 4000 
Q 1150 4000 1066 4103 
Q 1003 4181 1003 4281 
Q 1003 4316 1009 4353 
z
M 963 331 
L 1506 331 
L 1444 0 
L 325 0 
L 903 2988 
L 353 2988 
L 419 3322 
L 1544 3322 
L 963 331 
z
" transform="scale(0.015625)"/>
      </defs>
      <use xlink:href="#DejaVuSerif-Italic-72" transform="translate(0 0.953125)"/>
      <use xlink:href="#DejaVuSerif-28" transform="translate(47.802734 0.953125)"/>
      <use xlink:href="#DejaVuSerif-Italic-3b8" transform="translate(86.816406 0.953125)"/>
      <use xlink:href="#DejaVuSerif-Italic-69" transform="translate(147.021484 -14.61875)scale(0.7)"/>
      <use xlink:href="#DejaVuSerif-29" transform="translate(172.004492 0.953125)"/>
     </g>
    </g>
    <g id="line2d_25">
     <path d="M 342.36375 71.017187 
L 352.36375 71.017187 
L 362.36375 71.017187 
" style="fill: none; stroke: #00ffff; stroke-width: 1.5; stroke-linecap: square"/>
    </g>
    <g id="text_17">
     <!-- $r'(\theta_i)=\frac{\mathrm{d}r}{\mathrm{d}\theta}(\theta_i)$ -->
     <g transform="translate(370.36375 74.517187)scale(0.1 -0.1)">
      <defs>
       <path id="Cmsy10-30" d="M 225 347 
Q 184 359 184 409 
L 966 3316 
Q 1003 3434 1093 3506 
Q 1184 3578 1300 3578 
Q 1450 3578 1564 3479 
Q 1678 3381 1678 3231 
Q 1678 3166 1644 3084 
L 488 319 
Q 466 275 428 275 
Q 394 275 320 306 
Q 247 338 225 347 
z
" transform="scale(0.015625)"/>
       <path id="DejaVuSerif-64" d="M 3359 331 
L 3909 331 
L 3909 0 
L 2784 0 
L 2784 519 
Q 2616 206 2355 57 
Q 2094 -91 1709 -91 
Q 1097 -91 708 395 
Q 319 881 319 1663 
Q 319 2444 706 2928 
Q 1094 3413 1709 3413 
Q 2094 3413 2355 3264 
Q 2616 3116 2784 2803 
L 2784 4531 
L 2241 4531 
L 2241 4863 
L 3359 4863 
L 3359 331 
z
M 2784 1497 
L 2784 1825 
Q 2784 2422 2554 2737 
Q 2325 3053 1888 3053 
Q 1444 3053 1217 2703 
Q 991 2353 991 1663 
Q 991 975 1217 622 
Q 1444 269 1888 269 
Q 2325 269 2554 583 
Q 2784 897 2784 1497 
z
" transform="scale(0.015625)"/>
      </defs>
      <use xlink:href="#DejaVuSerif-Italic-72" transform="translate(0 0.964062)"/>
      <use xlink:href="#Cmsy10-30" transform="translate(52.240807 37.298437)scale(0.7)"/>
      <use xlink:href="#DejaVuSerif-28" transform="translate(74.079284 0.964062)"/>
      <use xlink:href="#DejaVuSerif-Italic-3b8" transform="translate(113.092956 0.964062)"/>
      <use xlink:href="#DejaVuSerif-Italic-69" transform="translate(173.298034 -14.607812)scale(0.7)"/>
      <use xlink:href="#DejaVuSerif-29" transform="translate(198.281042 0.964062)"/>
      <use xlink:href="#DejaVuSerif-3d" transform="translate(256.259557 0.964062)"/>
      <use xlink:href="#DejaVuSerif-64" transform="translate(363.013464 45.810938)scale(0.7)"/>
      <use xlink:href="#DejaVuSerif-Italic-72" transform="translate(407.823034 45.810938)scale(0.7)"/>
      <use xlink:href="#DejaVuSerif-64" transform="translate(359.013464 -40.367188)scale(0.7)"/>
      <use xlink:href="#DejaVuSerif-Italic-3b8" transform="translate(403.823034 -40.367188)scale(0.7)"/>
      <use xlink:href="#DejaVuSerif-28" transform="translate(458.466589 0.964062)"/>
      <use xlink:href="#DejaVuSerif-Italic-3b8" transform="translate(497.48026 0.964062)"/>
      <use xlink:href="#DejaVuSerif-Italic-69" transform="translate(557.685339 -14.607812)scale(0.7)"/>
      <use xlink:href="#DejaVuSerif-29" transform="translate(582.668346 0.964062)"/>
      <path d="M 359.013464 19.815625 
L 359.013464 26.065625 
L 445.966589 26.065625 
L 445.966589 19.815625 
L 359.013464 19.815625 
z
"/>
     </g>
    </g>
    <g id="line2d_26">
     <path d="M 342.36375 92.4375 
L 352.36375 92.4375 
L 362.36375 92.4375 
" style="fill: none; stroke: #ff0000; stroke-width: 1.5; stroke-linecap: square"/>
    </g>
    <g id="text_18">
     <!-- $\sqrt{r(\theta_i)^2+r'(\theta_i)^2}\cdot\Delta\theta$ -->
     <g transform="translate(370.36375 95.9375)scale(0.1 -0.1)">
      <defs>
       <path id="STIXSizeOneSym-Regular-221a" d="M 6970 9933 
L 3373 -1888 
L 3104 -1888 
L 1626 2918 
Q 1555 3149 1465 3251 
Q 1376 3354 1229 3354 
Q 1011 3354 794 3181 
L 717 3309 
L 1766 4115 
L 1926 4115 
L 3379 -602 
L 3405 -602 
L 6605 9933 
L 6970 9933 
z
" transform="scale(0.015625)"/>
       <path id="DejaVuSerif-2b" d="M 2931 4013 
L 2931 2259 
L 4684 2259 
L 4684 1753 
L 2931 1753 
L 2931 0 
L 2431 0 
L 2431 1753 
L 678 1753 
L 678 2259 
L 2431 2259 
L 2431 4013 
L 2931 4013 
z
" transform="scale(0.015625)"/>
       <path id="DejaVuSerif-22c5" d="M 678 2222 
Q 678 2397 798 2517 
Q 919 2638 1097 2638 
Q 1269 2638 1391 2516 
Q 1513 2394 1513 2222 
Q 1513 2047 1391 1926 
Q 1269 1806 1097 1806 
Q 919 1806 798 1925 
Q 678 2044 678 2222 
z
" transform="scale(0.015625)"/>
       <path id="DejaVuSerif-394" d="M 4350 0 
L 244 0 
L 2034 4666 
L 2559 4666 
L 4350 0 
z
M 3506 331 
L 2138 3909 
L 763 331 
L 3506 331 
z
" transform="scale(0.015625)"/>
      </defs>
      <use xlink:href="#STIXSizeOneSym-Regular-221a" transform="translate(0 6.484375)scale(0.731529)"/>
      <use xlink:href="#DejaVuSerif-Italic-72" transform="translate(89.809631 0.4625)"/>
      <use xlink:href="#DejaVuSerif-28" transform="translate(137.612366 0.4625)"/>
      <use xlink:href="#DejaVuSerif-Italic-3b8" transform="translate(176.626038 0.4625)"/>
      <use xlink:href="#DejaVuSerif-Italic-69" transform="translate(236.831116 -15.109375)scale(0.7)"/>
      <use xlink:href="#DejaVuSerif-29" transform="translate(261.814124 0.4625)"/>
      <use xlink:href="#DejaVuSerif-32" transform="translate(301.736155 36.796875)scale(0.7)"/>
      <use xlink:href="#DejaVuSerif-2b" transform="translate(367.832444 0.4625)"/>
      <use xlink:href="#DejaVuSerif-Italic-72" transform="translate(470.58635 0.4625)"/>
      <use xlink:href="#Cmsy10-30" transform="translate(522.827157 36.796875)scale(0.7)"/>
      <use xlink:href="#DejaVuSerif-28" transform="translate(544.665634 0.4625)"/>
      <use xlink:href="#DejaVuSerif-Italic-3b8" transform="translate(583.679306 0.4625)"/>
      <use xlink:href="#DejaVuSerif-Italic-69" transform="translate(643.884384 -15.109375)scale(0.7)"/>
      <use xlink:href="#DejaVuSerif-29" transform="translate(668.867392 0.4625)"/>
      <use xlink:href="#DejaVuSerif-32" transform="translate(708.789423 36.796875)scale(0.7)"/>
      <use xlink:href="#DejaVuSerif-22c5" transform="translate(787.385712 0.484375)"/>
      <use xlink:href="#DejaVuSerif-394" transform="translate(840.579071 0.484375)"/>
      <use xlink:href="#DejaVuSerif-Italic-3b8" transform="translate(912.795868 0.484375)"/>
      <path d="M 77.309631 113.5 
L 77.309631 119.75 
L 768.420868 119.75 
L 768.420868 113.5 
L 77.309631 113.5 
z
"/>
     </g>
    </g>
   </g>
  </g>
 </g>
 <defs>
  <clipPath id="paed1bd4e1d">
   <path d="M 476.76375 247.799062 
C 476.76375 218.677806 471.027497 189.839717 459.883275 162.935185 
C 448.739053 136.030652 432.403588 111.582901 411.81175 90.991063 
C 391.219912 70.399225 366.772161 54.06376 339.867628 42.919537 
C 312.963095 31.775315 284.125006 26.039062 255.00375 26.039062 
C 225.882494 26.039062 197.044405 31.775315 170.139872 42.919537 
C 143.235339 54.06376 118.787588 70.399225 98.19575 90.991063 
C 77.603912 111.582901 61.268447 136.030652 50.124225 162.935185 
C 38.980003 189.839717 33.24375 218.677806 33.24375 247.799062 
C 33.24375 276.920319 38.980003 305.758408 50.124225 332.66294 
C 61.268447 359.567473 77.603912 384.015224 98.19575 404.607062 
C 118.787588 425.1989 143.235339 441.534365 170.139872 452.678588 
C 197.044405 463.82281 225.882494 469.559062 255.00375 469.559062 
C 284.125006 469.559062 312.963095 463.82281 339.867628 452.678588 
C 366.772161 441.534365 391.219912 425.1989 411.81175 404.607062 
C 432.403588 384.015224 448.739053 359.567473 459.883275 332.66294 
C 471.027497 305.758408 476.76375 276.920319 476.76375 247.799062 
M 255.00375 247.799062 
C 255.00375 247.799062 255.00375 247.799062 255.00375 247.799062 
C 255.00375 247.799062 255.00375 247.799062 255.00375 247.799062 
C 255.00375 247.799062 255.00375 247.799062 255.00375 247.799062 
C 255.00375 247.799062 255.00375 247.799062 255.00375 247.799062 
C 255.00375 247.799062 255.00375 247.799062 255.00375 247.799062 
C 255.00375 247.799062 255.00375 247.799062 255.00375 247.799062 
C 255.00375 247.799062 255.00375 247.799062 255.00375 247.799062 
C 255.00375 247.799062 255.00375 247.799062 255.00375 247.799062 
C 255.00375 247.799062 255.00375 247.799062 255.00375 247.799062 
C 255.00375 247.799062 255.00375 247.799062 255.00375 247.799062 
C 255.00375 247.799062 255.00375 247.799062 255.00375 247.799062 
C 255.00375 247.799062 255.00375 247.799062 255.00375 247.799062 
C 255.00375 247.799062 255.00375 247.799062 255.00375 247.799062 
C 255.00375 247.799062 255.00375 247.799062 255.00375 247.799062 
C 255.00375 247.799062 255.00375 247.799062 255.00375 247.799062 
C 255.00375 247.799062 255.00375 247.799062 255.00375 247.799062 
M 476.76375 247.799062 
z
"/>
  </clipPath>
 </defs>
</svg>
