<?xml version="1.0" encoding="utf-8" standalone="no"?>
<!DOCTYPE svg PUBLIC "-//W3C//DTD SVG 1.1//EN"
  "http://www.w3.org/Graphics/SVG/1.1/DTD/svg11.dtd">
<svg xmlns:xlink="http://www.w3.org/1999/xlink" width="576pt" height="432pt" viewBox="0 0 576 432" xmlns="http://www.w3.org/2000/svg" version="1.1">
 <metadata>
  <rdf:RDF xmlns:dc="http://purl.org/dc/elements/1.1/" xmlns:cc="http://creativecommons.org/ns#" xmlns:rdf="http://www.w3.org/1999/02/22-rdf-syntax-ns#">
   <cc:Work>
    <dc:type rdf:resource="http://purl.org/dc/dcmitype/StillImage"/>
    <dc:date>2023-11-23T06:13:23.234221</dc:date>
    <dc:format>image/svg+xml</dc:format>
    <dc:creator>
     <cc:Agent>
      <dc:title>Matplotlib v3.5.2, https://matplotlib.org/</dc:title>
     </cc:Agent>
    </dc:creator>
   </cc:Work>
  </rdf:RDF>
 </metadata>
 <defs>
  <style type="text/css">*{stroke-linejoin: round; stroke-linecap: butt}</style>
 </defs>
 <g id="figure_1">
  <g id="patch_1">
   <path d="M 0 432 
L 576 432 
L 576 0 
L 0 0 
z
" style="fill: #ffffff"/>
  </g>
  <g id="axes_1">
   <g id="patch_2">
    <path d="M 72 384.48 
L 518.4 384.48 
L 518.4 51.84 
L 72 51.84 
z
" style="fill: #ffffff"/>
   </g>
   <g id="PolyCollection_1">
    <defs>
     <path id="m4b820e0480" d="M 92.290909 -62.64 
L 92.290909 -62.64 
L 93.307997 -63.397895 
L 94.325085 -64.155789 
L 95.342174 -64.913684 
L 96.359262 -65.671579 
L 97.37635 -66.429474 
L 98.393438 -67.187368 
L 99.410526 -67.945263 
L 100.427614 -68.703158 
L 101.444703 -69.461053 
L 102.461791 -70.218947 
L 103.478879 -70.976842 
L 104.495967 -71.734737 
L 105.513055 -72.492632 
L 106.530144 -73.250526 
L 107.547232 -74.008421 
L 108.56432 -74.766316 
L 109.581408 -75.524211 
L 110.598496 -76.282105 
L 111.615584 -77.04 
L 112.632673 -77.797895 
L 113.649761 -78.555789 
L 114.666849 -79.313684 
L 115.683937 -80.071579 
L 116.701025 -80.829474 
L 117.718113 -81.587368 
L 118.735202 -82.345263 
L 119.75229 -83.103158 
L 120.769378 -83.861053 
L 121.786466 -84.618947 
L 122.803554 -85.376842 
L 123.820643 -86.134737 
L 124.837731 -86.892632 
L 125.854819 -87.650526 
L 126.871907 -88.408421 
L 127.888995 -89.166316 
L 128.906083 -89.924211 
L 129.923172 -90.682105 
L 130.94026 -91.44 
L 131.957348 -92.197895 
L 132.974436 -92.955789 
L 133.991524 -93.713684 
L 135.008612 -94.471579 
L 136.025701 -95.229474 
L 137.042789 -95.987368 
L 138.059877 -96.745263 
L 139.076965 -97.503158 
L 140.094053 -98.261053 
L 141.111141 -99.018947 
L 142.12823 -99.776842 
L 143.145318 -100.534737 
L 144.162406 -101.292632 
L 145.179494 -102.050526 
L 146.196582 -102.808421 
L 147.213671 -103.566316 
L 148.230759 -104.324211 
L 149.247847 -105.082105 
L 150.264935 -105.84 
L 151.282023 -106.597895 
L 152.299111 -107.355789 
L 153.3162 -108.113684 
L 154.333288 -108.871579 
L 155.350376 -109.629474 
L 156.367464 -110.387368 
L 157.384552 -111.145263 
L 158.40164 -111.903158 
L 159.418729 -112.661053 
L 160.435817 -113.418947 
L 161.452905 -114.176842 
L 162.469993 -114.934737 
L 163.487081 -115.692632 
L 164.50417 -116.450526 
L 165.521258 -117.208421 
L 166.538346 -117.966316 
L 167.555434 -118.724211 
L 168.572522 -119.482105 
L 169.58961 -120.24 
L 170.606699 -120.997895 
L 171.623787 -121.755789 
L 172.640875 -122.513684 
L 173.657963 -123.271579 
L 174.675051 -124.029474 
L 175.692139 -124.787368 
L 176.709228 -125.545263 
L 177.726316 -126.303158 
L 178.743404 -127.061053 
L 179.760492 -127.818947 
L 180.77758 -128.576842 
L 181.794668 -129.334737 
L 182.811757 -130.092632 
L 183.828845 -130.850526 
L 184.845933 -131.608421 
L 185.863021 -132.366316 
L 186.880109 -133.124211 
L 187.897198 -133.882105 
L 188.914286 -134.64 
L 189.931374 -135.397895 
L 190.948462 -136.155789 
L 191.96555 -136.913684 
L 192.982638 -137.671579 
L 193.999727 -138.429474 
L 195.016815 -139.187368 
L 196.033903 -139.945263 
L 197.050991 -140.703158 
L 198.068079 -141.461053 
L 199.085167 -142.218947 
L 200.102256 -142.976842 
L 201.119344 -143.734737 
L 202.136432 -144.492632 
L 203.15352 -145.250526 
L 204.170608 -146.008421 
L 205.187697 -146.766316 
L 206.204785 -147.524211 
L 207.221873 -148.282105 
L 208.238961 -149.04 
L 209.256049 -149.797895 
L 210.273137 -150.555789 
L 211.290226 -151.313684 
L 212.307314 -152.071579 
L 213.324402 -152.829474 
L 214.34149 -153.587368 
L 215.358578 -154.345263 
L 216.375666 -155.103158 
L 217.392755 -155.861053 
L 218.409843 -156.618947 
L 219.426931 -157.376842 
L 220.444019 -158.134737 
L 221.461107 -158.892632 
L 222.478195 -159.650526 
L 223.495284 -160.408421 
L 224.512372 -161.166316 
L 225.52946 -161.924211 
L 226.546548 -162.682105 
L 227.563636 -163.44 
L 228.580725 -164.197895 
L 229.597813 -164.955789 
L 230.614901 -165.713684 
L 231.631989 -166.471579 
L 232.649077 -167.229474 
L 233.666165 -167.987368 
L 234.683254 -168.745263 
L 235.700342 -169.503158 
L 236.71743 -170.261053 
L 237.734518 -171.018947 
L 238.751606 -171.776842 
L 239.768694 -172.534737 
L 240.785783 -173.292632 
L 241.802871 -174.050526 
L 242.819959 -174.808421 
L 243.837047 -175.566316 
L 244.854135 -176.324211 
L 245.871224 -177.082105 
L 246.888312 -177.84 
L 247.9054 -178.597895 
L 248.922488 -179.355789 
L 249.939576 -180.113684 
L 250.956664 -180.871579 
L 251.973753 -181.629474 
L 252.990841 -182.387368 
L 254.007929 -183.145263 
L 255.025017 -183.903158 
L 256.042105 -184.661053 
L 257.059193 -185.418947 
L 258.076282 -186.176842 
L 259.09337 -186.934737 
L 260.110458 -187.692632 
L 261.127546 -188.450526 
L 262.144634 -189.208421 
L 263.161722 -189.966316 
L 264.178811 -190.724211 
L 265.195899 -191.482105 
L 266.212987 -192.24 
L 267.230075 -192.997895 
L 268.247163 -193.755789 
L 269.264252 -194.513684 
L 270.28134 -195.271579 
L 271.298428 -196.029474 
L 272.315516 -196.787368 
L 273.332604 -197.545263 
L 274.349692 -198.303158 
L 275.366781 -199.061053 
L 276.383869 -199.818947 
L 277.400957 -200.576842 
L 278.418045 -201.334737 
L 279.435133 -202.092632 
L 280.452221 -202.850526 
L 281.46931 -203.608421 
L 282.486398 -204.366316 
L 283.503486 -205.124211 
L 284.520574 -205.882105 
L 285.537662 -206.64 
L 286.554751 -207.397895 
L 287.571839 -208.155789 
L 288.588927 -208.913684 
L 289.606015 -209.671579 
L 290.623103 -210.429474 
L 291.640191 -211.187368 
L 292.65728 -211.945263 
L 293.674368 -212.703158 
L 294.691456 -213.461053 
L 294.691456 -213.650407 
L 294.691456 -213.650407 
L 293.674368 -213.270506 
L 292.65728 -212.889645 
L 291.640191 -212.507815 
L 290.623103 -212.125011 
L 289.606015 -211.741223 
L 288.588927 -211.356445 
L 287.571839 -210.970669 
L 286.554751 -210.583887 
L 285.537662 -210.196091 
L 284.520574 -209.807273 
L 283.503486 -209.417425 
L 282.486398 -209.02654 
L 281.46931 -208.634607 
L 280.452221 -208.241619 
L 279.435133 -207.847568 
L 278.418045 -207.452445 
L 277.400957 -207.056241 
L 276.383869 -206.658946 
L 275.366781 -206.260553 
L 274.349692 -205.861051 
L 273.332604 -205.460432 
L 272.315516 -205.058686 
L 271.298428 -204.655803 
L 270.28134 -204.251775 
L 269.264252 -203.84659 
L 268.247163 -203.440239 
L 267.230075 -203.032712 
L 266.212987 -202.623999 
L 265.195899 -202.214089 
L 264.178811 -201.802971 
L 263.161722 -201.390636 
L 262.144634 -200.977071 
L 261.127546 -200.562266 
L 260.110458 -200.14621 
L 259.09337 -199.728892 
L 258.076282 -199.310299 
L 257.059193 -198.89042 
L 256.042105 -198.469243 
L 255.025017 -198.046756 
L 254.007929 -197.622946 
L 252.990841 -197.197802 
L 251.973753 -196.77131 
L 250.956664 -196.343458 
L 249.939576 -195.914233 
L 248.922488 -195.48362 
L 247.9054 -195.051607 
L 246.888312 -194.61818 
L 245.871224 -194.183325 
L 244.854135 -193.747027 
L 243.837047 -193.309273 
L 242.819959 -192.870047 
L 241.802871 -192.429335 
L 240.785783 -191.987122 
L 239.768694 -191.543391 
L 238.751606 -191.098128 
L 237.734518 -190.651315 
L 236.71743 -190.202938 
L 235.700342 -189.752979 
L 234.683254 -189.301422 
L 233.666165 -188.848249 
L 232.649077 -188.393443 
L 231.631989 -187.936986 
L 230.614901 -187.47886 
L 229.597813 -187.019047 
L 228.580725 -186.557528 
L 227.563636 -186.094283 
L 226.546548 -185.629294 
L 225.52946 -185.162539 
L 224.512372 -184.694 
L 223.495284 -184.223655 
L 222.478195 -183.751484 
L 221.461107 -183.277465 
L 220.444019 -182.801575 
L 219.426931 -182.323794 
L 218.409843 -181.844097 
L 217.392755 -181.362463 
L 216.375666 -180.878866 
L 215.358578 -180.393284 
L 214.34149 -179.90569 
L 213.324402 -179.416061 
L 212.307314 -178.92437 
L 211.290226 -178.430591 
L 210.273137 -177.934698 
L 209.256049 -177.436662 
L 208.238961 -176.936457 
L 207.221873 -176.434052 
L 206.204785 -175.92942 
L 205.187697 -175.422529 
L 204.170608 -174.913351 
L 203.15352 -174.401852 
L 202.136432 -173.888002 
L 201.119344 -173.371767 
L 200.102256 -172.853114 
L 199.085167 -172.332009 
L 198.068079 -171.808416 
L 197.050991 -171.282301 
L 196.033903 -170.753624 
L 195.016815 -170.22235 
L 193.999727 -169.68844 
L 192.982638 -169.151853 
L 191.96555 -168.612549 
L 190.948462 -168.070486 
L 189.931374 -167.525622 
L 188.914286 -166.977913 
L 187.897198 -166.427313 
L 186.880109 -165.873777 
L 185.863021 -165.317256 
L 184.845933 -164.757703 
L 183.828845 -164.195067 
L 182.811757 -163.629296 
L 181.794668 -163.060338 
L 180.77758 -162.488137 
L 179.760492 -161.912639 
L 178.743404 -161.333785 
L 177.726316 -160.751515 
L 176.709228 -160.16577 
L 175.692139 -159.576485 
L 174.675051 -158.983596 
L 173.657963 -158.387035 
L 172.640875 -157.786734 
L 171.623787 -157.182622 
L 170.606699 -156.574625 
L 169.58961 -155.962666 
L 168.572522 -155.346668 
L 167.555434 -154.72655 
L 166.538346 -154.102227 
L 165.521258 -153.473613 
L 164.50417 -152.840619 
L 163.487081 -152.20315 
L 162.469993 -151.561112 
L 161.452905 -150.914405 
L 160.435817 -150.262924 
L 159.418729 -149.606563 
L 158.40164 -148.945211 
L 157.384552 -148.278752 
L 156.367464 -147.607065 
L 155.350376 -146.930026 
L 154.333288 -146.247504 
L 153.3162 -145.559365 
L 152.299111 -144.865467 
L 151.282023 -144.165663 
L 150.264935 -143.4598 
L 149.247847 -142.747717 
L 148.230759 -142.029248 
L 147.213671 -141.304216 
L 146.196582 -140.57244 
L 145.179494 -139.833728 
L 144.162406 -139.087877 
L 143.145318 -138.334678 
L 142.12823 -137.573908 
L 141.111141 -136.805335 
L 140.094053 -136.028713 
L 139.076965 -135.243784 
L 138.059877 -134.450276 
L 137.042789 -133.647902 
L 136.025701 -132.836356 
L 135.008612 -132.015318 
L 133.991524 -131.184446 
L 132.974436 -130.343378 
L 131.957348 -129.491729 
L 130.94026 -128.62909 
L 129.923172 -127.755024 
L 128.906083 -126.869064 
L 127.888995 -125.970711 
L 126.871907 -125.05943 
L 125.854819 -124.134647 
L 124.837731 -123.195742 
L 123.820643 -122.242049 
L 122.803554 -121.272845 
L 121.786466 -120.287349 
L 120.769378 -119.28471 
L 119.75229 -118.264001 
L 118.735202 -117.224208 
L 117.718113 -116.16422 
L 116.701025 -115.082811 
L 115.683937 -113.978628 
L 114.666849 -112.850169 
L 113.649761 -111.695758 
L 112.632673 -110.513518 
L 111.615584 -109.301333 
L 110.598496 -108.056807 
L 109.581408 -106.777202 
L 108.56432 -105.459376 
L 107.547232 -104.099682 
L 106.530144 -102.693858 
L 105.513055 -101.236864 
L 104.495967 -99.722667 
L 103.478879 -98.143951 
L 102.461791 -96.491689 
L 101.444703 -94.754532 
L 100.427614 -92.917871 
L 99.410526 -90.962355 
L 98.393438 -88.861405 
L 97.37635 -86.576759 
L 96.359262 -84.049688 
L 95.342174 -81.181334 
L 94.325085 -77.778936 
L 93.307997 -73.344844 
L 92.290909 -62.64 
z
" style="stroke: #008000; stroke-opacity: 0.3"/>
    </defs>
    <g clip-path="url(#p95b02c60aa)">
     <use xlink:href="#m4b820e0480" x="0" y="432" style="fill: #008000; fill-opacity: 0.3; stroke: #008000; stroke-opacity: 0.3"/>
    </g>
   </g>
   <g id="matplotlib.axis_1">
    <g id="xtick_1">
     <g id="line2d_1">
      <path d="M 92.290909 384.48 
L 92.290909 51.84 
" clip-path="url(#p95b02c60aa)" style="fill: none; stroke: #b0b0b0; stroke-width: 0.8; stroke-linecap: square"/>
     </g>
     <g id="line2d_2">
      <defs>
       <path id="m5837ffe997" d="M 0 0 
L 0 3.5 
" style="stroke: #000000; stroke-width: 0.8"/>
      </defs>
      <g>
       <use xlink:href="#m5837ffe997" x="92.290909" y="384.48" style="stroke: #000000; stroke-width: 0.8"/>
      </g>
     </g>
     <g id="text_1">
      <!-- 0.00 -->
      <g transform="translate(81.158097 399.078438)scale(0.1 -0.1)">
       <defs>
        <path id="DejaVuSans-30" d="M 2034 4250 
Q 1547 4250 1301 3770 
Q 1056 3291 1056 2328 
Q 1056 1369 1301 889 
Q 1547 409 2034 409 
Q 2525 409 2770 889 
Q 3016 1369 3016 2328 
Q 3016 3291 2770 3770 
Q 2525 4250 2034 4250 
z
M 2034 4750 
Q 2819 4750 3233 4129 
Q 3647 3509 3647 2328 
Q 3647 1150 3233 529 
Q 2819 -91 2034 -91 
Q 1250 -91 836 529 
Q 422 1150 422 2328 
Q 422 3509 836 4129 
Q 1250 4750 2034 4750 
z
" transform="scale(0.015625)"/>
        <path id="DejaVuSans-2e" d="M 684 794 
L 1344 794 
L 1344 0 
L 684 0 
L 684 794 
z
" transform="scale(0.015625)"/>
       </defs>
       <use xlink:href="#DejaVuSans-30"/>
       <use xlink:href="#DejaVuSans-2e" x="63.623047"/>
       <use xlink:href="#DejaVuSans-30" x="95.410156"/>
       <use xlink:href="#DejaVuSans-30" x="159.033203"/>
      </g>
     </g>
    </g>
    <g id="xtick_2">
     <g id="line2d_3">
      <path d="M 143.018182 384.48 
L 143.018182 51.84 
" clip-path="url(#p95b02c60aa)" style="fill: none; stroke: #b0b0b0; stroke-width: 0.8; stroke-linecap: square"/>
     </g>
     <g id="line2d_4">
      <g>
       <use xlink:href="#m5837ffe997" x="143.018182" y="384.48" style="stroke: #000000; stroke-width: 0.8"/>
      </g>
     </g>
     <g id="text_2">
      <!-- 0.25 -->
      <g transform="translate(131.885369 399.078438)scale(0.1 -0.1)">
       <defs>
        <path id="DejaVuSans-32" d="M 1228 531 
L 3431 531 
L 3431 0 
L 469 0 
L 469 531 
Q 828 903 1448 1529 
Q 2069 2156 2228 2338 
Q 2531 2678 2651 2914 
Q 2772 3150 2772 3378 
Q 2772 3750 2511 3984 
Q 2250 4219 1831 4219 
Q 1534 4219 1204 4116 
Q 875 4013 500 3803 
L 500 4441 
Q 881 4594 1212 4672 
Q 1544 4750 1819 4750 
Q 2544 4750 2975 4387 
Q 3406 4025 3406 3419 
Q 3406 3131 3298 2873 
Q 3191 2616 2906 2266 
Q 2828 2175 2409 1742 
Q 1991 1309 1228 531 
z
" transform="scale(0.015625)"/>
        <path id="DejaVuSans-35" d="M 691 4666 
L 3169 4666 
L 3169 4134 
L 1269 4134 
L 1269 2991 
Q 1406 3038 1543 3061 
Q 1681 3084 1819 3084 
Q 2600 3084 3056 2656 
Q 3513 2228 3513 1497 
Q 3513 744 3044 326 
Q 2575 -91 1722 -91 
Q 1428 -91 1123 -41 
Q 819 9 494 109 
L 494 744 
Q 775 591 1075 516 
Q 1375 441 1709 441 
Q 2250 441 2565 725 
Q 2881 1009 2881 1497 
Q 2881 1984 2565 2268 
Q 2250 2553 1709 2553 
Q 1456 2553 1204 2497 
Q 953 2441 691 2322 
L 691 4666 
z
" transform="scale(0.015625)"/>
       </defs>
       <use xlink:href="#DejaVuSans-30"/>
       <use xlink:href="#DejaVuSans-2e" x="63.623047"/>
       <use xlink:href="#DejaVuSans-32" x="95.410156"/>
       <use xlink:href="#DejaVuSans-35" x="159.033203"/>
      </g>
     </g>
    </g>
    <g id="xtick_3">
     <g id="line2d_5">
      <path d="M 193.745455 384.48 
L 193.745455 51.84 
" clip-path="url(#p95b02c60aa)" style="fill: none; stroke: #b0b0b0; stroke-width: 0.8; stroke-linecap: square"/>
     </g>
     <g id="line2d_6">
      <g>
       <use xlink:href="#m5837ffe997" x="193.745455" y="384.48" style="stroke: #000000; stroke-width: 0.8"/>
      </g>
     </g>
     <g id="text_3">
      <!-- 0.50 -->
      <g transform="translate(182.612642 399.078438)scale(0.1 -0.1)">
       <use xlink:href="#DejaVuSans-30"/>
       <use xlink:href="#DejaVuSans-2e" x="63.623047"/>
       <use xlink:href="#DejaVuSans-35" x="95.410156"/>
       <use xlink:href="#DejaVuSans-30" x="159.033203"/>
      </g>
     </g>
    </g>
    <g id="xtick_4">
     <g id="line2d_7">
      <path d="M 244.472727 384.48 
L 244.472727 51.84 
" clip-path="url(#p95b02c60aa)" style="fill: none; stroke: #b0b0b0; stroke-width: 0.8; stroke-linecap: square"/>
     </g>
     <g id="line2d_8">
      <g>
       <use xlink:href="#m5837ffe997" x="244.472727" y="384.48" style="stroke: #000000; stroke-width: 0.8"/>
      </g>
     </g>
     <g id="text_4">
      <!-- 0.75 -->
      <g transform="translate(233.339915 399.078438)scale(0.1 -0.1)">
       <defs>
        <path id="DejaVuSans-37" d="M 525 4666 
L 3525 4666 
L 3525 4397 
L 1831 0 
L 1172 0 
L 2766 4134 
L 525 4134 
L 525 4666 
z
" transform="scale(0.015625)"/>
       </defs>
       <use xlink:href="#DejaVuSans-30"/>
       <use xlink:href="#DejaVuSans-2e" x="63.623047"/>
       <use xlink:href="#DejaVuSans-37" x="95.410156"/>
       <use xlink:href="#DejaVuSans-35" x="159.033203"/>
      </g>
     </g>
    </g>
    <g id="xtick_5">
     <g id="line2d_9">
      <path d="M 295.2 384.48 
L 295.2 51.84 
" clip-path="url(#p95b02c60aa)" style="fill: none; stroke: #b0b0b0; stroke-width: 0.8; stroke-linecap: square"/>
     </g>
     <g id="line2d_10">
      <g>
       <use xlink:href="#m5837ffe997" x="295.2" y="384.48" style="stroke: #000000; stroke-width: 0.8"/>
      </g>
     </g>
     <g id="text_5">
      <!-- 1.00 -->
      <g transform="translate(284.067187 399.078438)scale(0.1 -0.1)">
       <defs>
        <path id="DejaVuSans-31" d="M 794 531 
L 1825 531 
L 1825 4091 
L 703 3866 
L 703 4441 
L 1819 4666 
L 2450 4666 
L 2450 531 
L 3481 531 
L 3481 0 
L 794 0 
L 794 531 
z
" transform="scale(0.015625)"/>
       </defs>
       <use xlink:href="#DejaVuSans-31"/>
       <use xlink:href="#DejaVuSans-2e" x="63.623047"/>
       <use xlink:href="#DejaVuSans-30" x="95.410156"/>
       <use xlink:href="#DejaVuSans-30" x="159.033203"/>
      </g>
     </g>
    </g>
    <g id="xtick_6">
     <g id="line2d_11">
      <path d="M 345.927273 384.48 
L 345.927273 51.84 
" clip-path="url(#p95b02c60aa)" style="fill: none; stroke: #b0b0b0; stroke-width: 0.8; stroke-linecap: square"/>
     </g>
     <g id="line2d_12">
      <g>
       <use xlink:href="#m5837ffe997" x="345.927273" y="384.48" style="stroke: #000000; stroke-width: 0.8"/>
      </g>
     </g>
     <g id="text_6">
      <!-- 1.25 -->
      <g transform="translate(334.79446 399.078438)scale(0.1 -0.1)">
       <use xlink:href="#DejaVuSans-31"/>
       <use xlink:href="#DejaVuSans-2e" x="63.623047"/>
       <use xlink:href="#DejaVuSans-32" x="95.410156"/>
       <use xlink:href="#DejaVuSans-35" x="159.033203"/>
      </g>
     </g>
    </g>
    <g id="xtick_7">
     <g id="line2d_13">
      <path d="M 396.654545 384.48 
L 396.654545 51.84 
" clip-path="url(#p95b02c60aa)" style="fill: none; stroke: #b0b0b0; stroke-width: 0.8; stroke-linecap: square"/>
     </g>
     <g id="line2d_14">
      <g>
       <use xlink:href="#m5837ffe997" x="396.654545" y="384.48" style="stroke: #000000; stroke-width: 0.8"/>
      </g>
     </g>
     <g id="text_7">
      <!-- 1.50 -->
      <g transform="translate(385.521733 399.078438)scale(0.1 -0.1)">
       <use xlink:href="#DejaVuSans-31"/>
       <use xlink:href="#DejaVuSans-2e" x="63.623047"/>
       <use xlink:href="#DejaVuSans-35" x="95.410156"/>
       <use xlink:href="#DejaVuSans-30" x="159.033203"/>
      </g>
     </g>
    </g>
    <g id="xtick_8">
     <g id="line2d_15">
      <path d="M 447.381818 384.48 
L 447.381818 51.84 
" clip-path="url(#p95b02c60aa)" style="fill: none; stroke: #b0b0b0; stroke-width: 0.8; stroke-linecap: square"/>
     </g>
     <g id="line2d_16">
      <g>
       <use xlink:href="#m5837ffe997" x="447.381818" y="384.48" style="stroke: #000000; stroke-width: 0.8"/>
      </g>
     </g>
     <g id="text_8">
      <!-- 1.75 -->
      <g transform="translate(436.249006 399.078438)scale(0.1 -0.1)">
       <use xlink:href="#DejaVuSans-31"/>
       <use xlink:href="#DejaVuSans-2e" x="63.623047"/>
       <use xlink:href="#DejaVuSans-37" x="95.410156"/>
       <use xlink:href="#DejaVuSans-35" x="159.033203"/>
      </g>
     </g>
    </g>
    <g id="xtick_9">
     <g id="line2d_17">
      <path d="M 498.109091 384.48 
L 498.109091 51.84 
" clip-path="url(#p95b02c60aa)" style="fill: none; stroke: #b0b0b0; stroke-width: 0.8; stroke-linecap: square"/>
     </g>
     <g id="line2d_18">
      <g>
       <use xlink:href="#m5837ffe997" x="498.109091" y="384.48" style="stroke: #000000; stroke-width: 0.8"/>
      </g>
     </g>
     <g id="text_9">
      <!-- 2.00 -->
      <g transform="translate(486.976278 399.078438)scale(0.1 -0.1)">
       <use xlink:href="#DejaVuSans-32"/>
       <use xlink:href="#DejaVuSans-2e" x="63.623047"/>
       <use xlink:href="#DejaVuSans-30" x="95.410156"/>
       <use xlink:href="#DejaVuSans-30" x="159.033203"/>
      </g>
     </g>
    </g>
    <g id="text_10">
     <!-- x -->
     <g transform="translate(292.240625 412.756563)scale(0.1 -0.1)">
      <defs>
       <path id="DejaVuSans-78" d="M 3513 3500 
L 2247 1797 
L 3578 0 
L 2900 0 
L 1881 1375 
L 863 0 
L 184 0 
L 1544 1831 
L 300 3500 
L 978 3500 
L 1906 2253 
L 2834 3500 
L 3513 3500 
z
" transform="scale(0.015625)"/>
      </defs>
      <use xlink:href="#DejaVuSans-78"/>
     </g>
    </g>
   </g>
   <g id="matplotlib.axis_2">
    <g id="ytick_1">
     <g id="line2d_19">
      <path d="M 72 369.36 
L 518.4 369.36 
" clip-path="url(#p95b02c60aa)" style="fill: none; stroke: #b0b0b0; stroke-width: 0.8; stroke-linecap: square"/>
     </g>
     <g id="line2d_20">
      <defs>
       <path id="me0a38b8fd7" d="M 0 0 
L -3.5 0 
" style="stroke: #000000; stroke-width: 0.8"/>
      </defs>
      <g>
       <use xlink:href="#me0a38b8fd7" x="72" y="369.36" style="stroke: #000000; stroke-width: 0.8"/>
      </g>
     </g>
     <g id="text_11">
      <!-- 0 -->
      <g transform="translate(58.6375 373.159219)scale(0.1 -0.1)">
       <use xlink:href="#DejaVuSans-30"/>
      </g>
     </g>
    </g>
    <g id="ytick_2">
     <g id="line2d_21">
      <path d="M 72 318.96 
L 518.4 318.96 
" clip-path="url(#p95b02c60aa)" style="fill: none; stroke: #b0b0b0; stroke-width: 0.8; stroke-linecap: square"/>
     </g>
     <g id="line2d_22">
      <g>
       <use xlink:href="#me0a38b8fd7" x="72" y="318.96" style="stroke: #000000; stroke-width: 0.8"/>
      </g>
     </g>
     <g id="text_12">
      <!-- 1 -->
      <g transform="translate(58.6375 322.759219)scale(0.1 -0.1)">
       <use xlink:href="#DejaVuSans-31"/>
      </g>
     </g>
    </g>
    <g id="ytick_3">
     <g id="line2d_23">
      <path d="M 72 268.56 
L 518.4 268.56 
" clip-path="url(#p95b02c60aa)" style="fill: none; stroke: #b0b0b0; stroke-width: 0.8; stroke-linecap: square"/>
     </g>
     <g id="line2d_24">
      <g>
       <use xlink:href="#me0a38b8fd7" x="72" y="268.56" style="stroke: #000000; stroke-width: 0.8"/>
      </g>
     </g>
     <g id="text_13">
      <!-- 2 -->
      <g transform="translate(58.6375 272.359219)scale(0.1 -0.1)">
       <use xlink:href="#DejaVuSans-32"/>
      </g>
     </g>
    </g>
    <g id="ytick_4">
     <g id="line2d_25">
      <path d="M 72 218.16 
L 518.4 218.16 
" clip-path="url(#p95b02c60aa)" style="fill: none; stroke: #b0b0b0; stroke-width: 0.8; stroke-linecap: square"/>
     </g>
     <g id="line2d_26">
      <g>
       <use xlink:href="#me0a38b8fd7" x="72" y="218.16" style="stroke: #000000; stroke-width: 0.8"/>
      </g>
     </g>
     <g id="text_14">
      <!-- 3 -->
      <g transform="translate(58.6375 221.959219)scale(0.1 -0.1)">
       <defs>
        <path id="DejaVuSans-33" d="M 2597 2516 
Q 3050 2419 3304 2112 
Q 3559 1806 3559 1356 
Q 3559 666 3084 287 
Q 2609 -91 1734 -91 
Q 1441 -91 1130 -33 
Q 819 25 488 141 
L 488 750 
Q 750 597 1062 519 
Q 1375 441 1716 441 
Q 2309 441 2620 675 
Q 2931 909 2931 1356 
Q 2931 1769 2642 2001 
Q 2353 2234 1838 2234 
L 1294 2234 
L 1294 2753 
L 1863 2753 
Q 2328 2753 2575 2939 
Q 2822 3125 2822 3475 
Q 2822 3834 2567 4026 
Q 2313 4219 1838 4219 
Q 1578 4219 1281 4162 
Q 984 4106 628 3988 
L 628 4550 
Q 988 4650 1302 4700 
Q 1616 4750 1894 4750 
Q 2613 4750 3031 4423 
Q 3450 4097 3450 3541 
Q 3450 3153 3228 2886 
Q 3006 2619 2597 2516 
z
" transform="scale(0.015625)"/>
       </defs>
       <use xlink:href="#DejaVuSans-33"/>
      </g>
     </g>
    </g>
    <g id="ytick_5">
     <g id="line2d_27">
      <path d="M 72 167.76 
L 518.4 167.76 
" clip-path="url(#p95b02c60aa)" style="fill: none; stroke: #b0b0b0; stroke-width: 0.8; stroke-linecap: square"/>
     </g>
     <g id="line2d_28">
      <g>
       <use xlink:href="#me0a38b8fd7" x="72" y="167.76" style="stroke: #000000; stroke-width: 0.8"/>
      </g>
     </g>
     <g id="text_15">
      <!-- 4 -->
      <g transform="translate(58.6375 171.559219)scale(0.1 -0.1)">
       <defs>
        <path id="DejaVuSans-34" d="M 2419 4116 
L 825 1625 
L 2419 1625 
L 2419 4116 
z
M 2253 4666 
L 3047 4666 
L 3047 1625 
L 3713 1625 
L 3713 1100 
L 3047 1100 
L 3047 0 
L 2419 0 
L 2419 1100 
L 313 1100 
L 313 1709 
L 2253 4666 
z
" transform="scale(0.015625)"/>
       </defs>
       <use xlink:href="#DejaVuSans-34"/>
      </g>
     </g>
    </g>
    <g id="ytick_6">
     <g id="line2d_29">
      <path d="M 72 117.36 
L 518.4 117.36 
" clip-path="url(#p95b02c60aa)" style="fill: none; stroke: #b0b0b0; stroke-width: 0.8; stroke-linecap: square"/>
     </g>
     <g id="line2d_30">
      <g>
       <use xlink:href="#me0a38b8fd7" x="72" y="117.36" style="stroke: #000000; stroke-width: 0.8"/>
      </g>
     </g>
     <g id="text_16">
      <!-- 5 -->
      <g transform="translate(58.6375 121.159219)scale(0.1 -0.1)">
       <use xlink:href="#DejaVuSans-35"/>
      </g>
     </g>
    </g>
    <g id="ytick_7">
     <g id="line2d_31">
      <path d="M 72 66.96 
L 518.4 66.96 
" clip-path="url(#p95b02c60aa)" style="fill: none; stroke: #b0b0b0; stroke-width: 0.8; stroke-linecap: square"/>
     </g>
     <g id="line2d_32">
      <g>
       <use xlink:href="#me0a38b8fd7" x="72" y="66.96" style="stroke: #000000; stroke-width: 0.8"/>
      </g>
     </g>
     <g id="text_17">
      <!-- 6 -->
      <g transform="translate(58.6375 70.759219)scale(0.1 -0.1)">
       <defs>
        <path id="DejaVuSans-36" d="M 2113 2584 
Q 1688 2584 1439 2293 
Q 1191 2003 1191 1497 
Q 1191 994 1439 701 
Q 1688 409 2113 409 
Q 2538 409 2786 701 
Q 3034 994 3034 1497 
Q 3034 2003 2786 2293 
Q 2538 2584 2113 2584 
z
M 3366 4563 
L 3366 3988 
Q 3128 4100 2886 4159 
Q 2644 4219 2406 4219 
Q 1781 4219 1451 3797 
Q 1122 3375 1075 2522 
Q 1259 2794 1537 2939 
Q 1816 3084 2150 3084 
Q 2853 3084 3261 2657 
Q 3669 2231 3669 1497 
Q 3669 778 3244 343 
Q 2819 -91 2113 -91 
Q 1303 -91 875 529 
Q 447 1150 447 2328 
Q 447 3434 972 4092 
Q 1497 4750 2381 4750 
Q 2619 4750 2861 4703 
Q 3103 4656 3366 4563 
z
" transform="scale(0.015625)"/>
       </defs>
       <use xlink:href="#DejaVuSans-36"/>
      </g>
     </g>
    </g>
    <g id="text_18">
     <!-- y -->
     <g transform="translate(52.557813 221.119375)rotate(-90)scale(0.1 -0.1)">
      <defs>
       <path id="DejaVuSans-79" d="M 2059 -325 
Q 1816 -950 1584 -1140 
Q 1353 -1331 966 -1331 
L 506 -1331 
L 506 -850 
L 844 -850 
Q 1081 -850 1212 -737 
Q 1344 -625 1503 -206 
L 1606 56 
L 191 3500 
L 800 3500 
L 1894 763 
L 2988 3500 
L 3597 3500 
L 2059 -325 
z
" transform="scale(0.015625)"/>
      </defs>
      <use xlink:href="#DejaVuSans-79"/>
     </g>
    </g>
   </g>
   <g id="line2d_33">
    <path d="M 92.290909 369.36 
L 498.109091 66.96 
L 498.109091 66.96 
" clip-path="url(#p95b02c60aa)" style="fill: none; stroke: #0000ff; stroke-width: 1.5; stroke-linecap: square"/>
   </g>
   <g id="line2d_34">
    <path d="M 92.290909 369.36 
L 93.307997 358.655156 
L 94.325085 354.221064 
L 95.342174 350.818666 
L 96.359262 347.950312 
L 98.393438 343.138595 
L 100.427614 339.082129 
L 102.461791 335.508311 
L 105.513055 330.763136 
L 108.56432 326.540624 
L 111.615584 322.698667 
L 115.683937 318.021372 
L 119.75229 313.735999 
L 123.820643 309.757951 
L 128.906083 305.130936 
L 133.991524 300.815554 
L 140.094053 295.971287 
L 146.196582 291.42756 
L 153.3162 286.440635 
L 160.435817 281.737076 
L 168.572522 276.653332 
L 176.709228 271.83423 
L 185.863021 266.682744 
L 195.016815 261.77765 
L 205.187697 256.577471 
L 216.375666 251.121134 
L 227.563636 245.905717 
L 239.768694 240.456609 
L 252.990841 234.802198 
L 267.230075 228.967288 
L 282.486398 222.97346 
L 297.74272 217.215581 
L 314.016131 211.304873 
L 331.30663 205.25785 
L 349.614217 199.089033 
L 368.938893 192.811191 
L 389.280656 186.435546 
L 410.639508 179.971977 
L 433.015448 173.429185 
L 456.408476 166.814847 
L 481.83568 159.862074 
L 498.109091 155.530909 
L 498.109091 155.530909 
" clip-path="url(#p95b02c60aa)" style="fill: none; stroke: #ff0000; stroke-width: 1.5; stroke-linecap: square"/>
   </g>
   <g id="patch_3">
    <path d="M 72 384.48 
L 72 51.84 
" style="fill: none; stroke: #000000; stroke-width: 0.8; stroke-linejoin: miter; stroke-linecap: square"/>
   </g>
   <g id="patch_4">
    <path d="M 518.4 384.48 
L 518.4 51.84 
" style="fill: none; stroke: #000000; stroke-width: 0.8; stroke-linejoin: miter; stroke-linecap: square"/>
   </g>
   <g id="patch_5">
    <path d="M 72 384.48 
L 518.4 384.48 
" style="fill: none; stroke: #000000; stroke-width: 0.8; stroke-linejoin: miter; stroke-linecap: square"/>
   </g>
   <g id="patch_6">
    <path d="M 72 51.84 
L 518.4 51.84 
" style="fill: none; stroke: #000000; stroke-width: 0.8; stroke-linejoin: miter; stroke-linecap: square"/>
   </g>
   <g id="text_19">
    <!-- Plot of $3x$ and $3\sqrt{x}$ with area between curves from 0 to 1 -->
    <g transform="translate(123.96 45.84)scale(0.12 -0.12)">
     <defs>
      <path id="DejaVuSans-50" d="M 1259 4147 
L 1259 2394 
L 2053 2394 
Q 2494 2394 2734 2622 
Q 2975 2850 2975 3272 
Q 2975 3691 2734 3919 
Q 2494 4147 2053 4147 
L 1259 4147 
z
M 628 4666 
L 2053 4666 
Q 2838 4666 3239 4311 
Q 3641 3956 3641 3272 
Q 3641 2581 3239 2228 
Q 2838 1875 2053 1875 
L 1259 1875 
L 1259 0 
L 628 0 
L 628 4666 
z
" transform="scale(0.015625)"/>
      <path id="DejaVuSans-6c" d="M 603 4863 
L 1178 4863 
L 1178 0 
L 603 0 
L 603 4863 
z
" transform="scale(0.015625)"/>
      <path id="DejaVuSans-6f" d="M 1959 3097 
Q 1497 3097 1228 2736 
Q 959 2375 959 1747 
Q 959 1119 1226 758 
Q 1494 397 1959 397 
Q 2419 397 2687 759 
Q 2956 1122 2956 1747 
Q 2956 2369 2687 2733 
Q 2419 3097 1959 3097 
z
M 1959 3584 
Q 2709 3584 3137 3096 
Q 3566 2609 3566 1747 
Q 3566 888 3137 398 
Q 2709 -91 1959 -91 
Q 1206 -91 779 398 
Q 353 888 353 1747 
Q 353 2609 779 3096 
Q 1206 3584 1959 3584 
z
" transform="scale(0.015625)"/>
      <path id="DejaVuSans-74" d="M 1172 4494 
L 1172 3500 
L 2356 3500 
L 2356 3053 
L 1172 3053 
L 1172 1153 
Q 1172 725 1289 603 
Q 1406 481 1766 481 
L 2356 481 
L 2356 0 
L 1766 0 
Q 1100 0 847 248 
Q 594 497 594 1153 
L 594 3053 
L 172 3053 
L 172 3500 
L 594 3500 
L 594 4494 
L 1172 4494 
z
" transform="scale(0.015625)"/>
      <path id="DejaVuSans-20" transform="scale(0.015625)"/>
      <path id="DejaVuSans-66" d="M 2375 4863 
L 2375 4384 
L 1825 4384 
Q 1516 4384 1395 4259 
Q 1275 4134 1275 3809 
L 1275 3500 
L 2222 3500 
L 2222 3053 
L 1275 3053 
L 1275 0 
L 697 0 
L 697 3053 
L 147 3053 
L 147 3500 
L 697 3500 
L 697 3744 
Q 697 4328 969 4595 
Q 1241 4863 1831 4863 
L 2375 4863 
z
" transform="scale(0.015625)"/>
      <path id="DejaVuSans-Oblique-78" d="M 3841 3500 
L 2234 1784 
L 3219 0 
L 2559 0 
L 1819 1388 
L 531 0 
L -166 0 
L 1556 1844 
L 641 3500 
L 1300 3500 
L 1972 2234 
L 3144 3500 
L 3841 3500 
z
" transform="scale(0.015625)"/>
      <path id="DejaVuSans-61" d="M 2194 1759 
Q 1497 1759 1228 1600 
Q 959 1441 959 1056 
Q 959 750 1161 570 
Q 1363 391 1709 391 
Q 2188 391 2477 730 
Q 2766 1069 2766 1631 
L 2766 1759 
L 2194 1759 
z
M 3341 1997 
L 3341 0 
L 2766 0 
L 2766 531 
Q 2569 213 2275 61 
Q 1981 -91 1556 -91 
Q 1019 -91 701 211 
Q 384 513 384 1019 
Q 384 1609 779 1909 
Q 1175 2209 1959 2209 
L 2766 2209 
L 2766 2266 
Q 2766 2663 2505 2880 
Q 2244 3097 1772 3097 
Q 1472 3097 1187 3025 
Q 903 2953 641 2809 
L 641 3341 
Q 956 3463 1253 3523 
Q 1550 3584 1831 3584 
Q 2591 3584 2966 3190 
Q 3341 2797 3341 1997 
z
" transform="scale(0.015625)"/>
      <path id="DejaVuSans-6e" d="M 3513 2113 
L 3513 0 
L 2938 0 
L 2938 2094 
Q 2938 2591 2744 2837 
Q 2550 3084 2163 3084 
Q 1697 3084 1428 2787 
Q 1159 2491 1159 1978 
L 1159 0 
L 581 0 
L 581 3500 
L 1159 3500 
L 1159 2956 
Q 1366 3272 1645 3428 
Q 1925 3584 2291 3584 
Q 2894 3584 3203 3211 
Q 3513 2838 3513 2113 
z
" transform="scale(0.015625)"/>
      <path id="DejaVuSans-64" d="M 2906 2969 
L 2906 4863 
L 3481 4863 
L 3481 0 
L 2906 0 
L 2906 525 
Q 2725 213 2448 61 
Q 2172 -91 1784 -91 
Q 1150 -91 751 415 
Q 353 922 353 1747 
Q 353 2572 751 3078 
Q 1150 3584 1784 3584 
Q 2172 3584 2448 3432 
Q 2725 3281 2906 2969 
z
M 947 1747 
Q 947 1113 1208 752 
Q 1469 391 1925 391 
Q 2381 391 2643 752 
Q 2906 1113 2906 1747 
Q 2906 2381 2643 2742 
Q 2381 3103 1925 3103 
Q 1469 3103 1208 2742 
Q 947 2381 947 1747 
z
" transform="scale(0.015625)"/>
      <path id="DejaVuSans-221a" d="M 3488 5191 
L 4078 5191 
L 4078 4891 
L 3719 4891 
L 1863 -128 
L 1656 -128 
L 659 2631 
L 269 2491 
L 191 2741 
L 1075 3047 
L 1875 831 
L 3488 5191 
z
" transform="scale(0.015625)"/>
      <path id="DejaVuSans-77" d="M 269 3500 
L 844 3500 
L 1563 769 
L 2278 3500 
L 2956 3500 
L 3675 769 
L 4391 3500 
L 4966 3500 
L 4050 0 
L 3372 0 
L 2619 2869 
L 1863 0 
L 1184 0 
L 269 3500 
z
" transform="scale(0.015625)"/>
      <path id="DejaVuSans-69" d="M 603 3500 
L 1178 3500 
L 1178 0 
L 603 0 
L 603 3500 
z
M 603 4863 
L 1178 4863 
L 1178 4134 
L 603 4134 
L 603 4863 
z
" transform="scale(0.015625)"/>
      <path id="DejaVuSans-68" d="M 3513 2113 
L 3513 0 
L 2938 0 
L 2938 2094 
Q 2938 2591 2744 2837 
Q 2550 3084 2163 3084 
Q 1697 3084 1428 2787 
Q 1159 2491 1159 1978 
L 1159 0 
L 581 0 
L 581 4863 
L 1159 4863 
L 1159 2956 
Q 1366 3272 1645 3428 
Q 1925 3584 2291 3584 
Q 2894 3584 3203 3211 
Q 3513 2838 3513 2113 
z
" transform="scale(0.015625)"/>
      <path id="DejaVuSans-72" d="M 2631 2963 
Q 2534 3019 2420 3045 
Q 2306 3072 2169 3072 
Q 1681 3072 1420 2755 
Q 1159 2438 1159 1844 
L 1159 0 
L 581 0 
L 581 3500 
L 1159 3500 
L 1159 2956 
Q 1341 3275 1631 3429 
Q 1922 3584 2338 3584 
Q 2397 3584 2469 3576 
Q 2541 3569 2628 3553 
L 2631 2963 
z
" transform="scale(0.015625)"/>
      <path id="DejaVuSans-65" d="M 3597 1894 
L 3597 1613 
L 953 1613 
Q 991 1019 1311 708 
Q 1631 397 2203 397 
Q 2534 397 2845 478 
Q 3156 559 3463 722 
L 3463 178 
Q 3153 47 2828 -22 
Q 2503 -91 2169 -91 
Q 1331 -91 842 396 
Q 353 884 353 1716 
Q 353 2575 817 3079 
Q 1281 3584 2069 3584 
Q 2775 3584 3186 3129 
Q 3597 2675 3597 1894 
z
M 3022 2063 
Q 3016 2534 2758 2815 
Q 2500 3097 2075 3097 
Q 1594 3097 1305 2825 
Q 1016 2553 972 2059 
L 3022 2063 
z
" transform="scale(0.015625)"/>
      <path id="DejaVuSans-62" d="M 3116 1747 
Q 3116 2381 2855 2742 
Q 2594 3103 2138 3103 
Q 1681 3103 1420 2742 
Q 1159 2381 1159 1747 
Q 1159 1113 1420 752 
Q 1681 391 2138 391 
Q 2594 391 2855 752 
Q 3116 1113 3116 1747 
z
M 1159 2969 
Q 1341 3281 1617 3432 
Q 1894 3584 2278 3584 
Q 2916 3584 3314 3078 
Q 3713 2572 3713 1747 
Q 3713 922 3314 415 
Q 2916 -91 2278 -91 
Q 1894 -91 1617 61 
Q 1341 213 1159 525 
L 1159 0 
L 581 0 
L 581 4863 
L 1159 4863 
L 1159 2969 
z
" transform="scale(0.015625)"/>
      <path id="DejaVuSans-63" d="M 3122 3366 
L 3122 2828 
Q 2878 2963 2633 3030 
Q 2388 3097 2138 3097 
Q 1578 3097 1268 2742 
Q 959 2388 959 1747 
Q 959 1106 1268 751 
Q 1578 397 2138 397 
Q 2388 397 2633 464 
Q 2878 531 3122 666 
L 3122 134 
Q 2881 22 2623 -34 
Q 2366 -91 2075 -91 
Q 1284 -91 818 406 
Q 353 903 353 1747 
Q 353 2603 823 3093 
Q 1294 3584 2113 3584 
Q 2378 3584 2631 3529 
Q 2884 3475 3122 3366 
z
" transform="scale(0.015625)"/>
      <path id="DejaVuSans-75" d="M 544 1381 
L 544 3500 
L 1119 3500 
L 1119 1403 
Q 1119 906 1312 657 
Q 1506 409 1894 409 
Q 2359 409 2629 706 
Q 2900 1003 2900 1516 
L 2900 3500 
L 3475 3500 
L 3475 0 
L 2900 0 
L 2900 538 
Q 2691 219 2414 64 
Q 2138 -91 1772 -91 
Q 1169 -91 856 284 
Q 544 659 544 1381 
z
M 1991 3584 
L 1991 3584 
z
" transform="scale(0.015625)"/>
      <path id="DejaVuSans-76" d="M 191 3500 
L 800 3500 
L 1894 563 
L 2988 3500 
L 3597 3500 
L 2284 0 
L 1503 0 
L 191 3500 
z
" transform="scale(0.015625)"/>
      <path id="DejaVuSans-73" d="M 2834 3397 
L 2834 2853 
Q 2591 2978 2328 3040 
Q 2066 3103 1784 3103 
Q 1356 3103 1142 2972 
Q 928 2841 928 2578 
Q 928 2378 1081 2264 
Q 1234 2150 1697 2047 
L 1894 2003 
Q 2506 1872 2764 1633 
Q 3022 1394 3022 966 
Q 3022 478 2636 193 
Q 2250 -91 1575 -91 
Q 1294 -91 989 -36 
Q 684 19 347 128 
L 347 722 
Q 666 556 975 473 
Q 1284 391 1588 391 
Q 1994 391 2212 530 
Q 2431 669 2431 922 
Q 2431 1156 2273 1281 
Q 2116 1406 1581 1522 
L 1381 1569 
Q 847 1681 609 1914 
Q 372 2147 372 2553 
Q 372 3047 722 3315 
Q 1072 3584 1716 3584 
Q 2034 3584 2315 3537 
Q 2597 3491 2834 3397 
z
" transform="scale(0.015625)"/>
      <path id="DejaVuSans-6d" d="M 3328 2828 
Q 3544 3216 3844 3400 
Q 4144 3584 4550 3584 
Q 5097 3584 5394 3201 
Q 5691 2819 5691 2113 
L 5691 0 
L 5113 0 
L 5113 2094 
Q 5113 2597 4934 2840 
Q 4756 3084 4391 3084 
Q 3944 3084 3684 2787 
Q 3425 2491 3425 1978 
L 3425 0 
L 2847 0 
L 2847 2094 
Q 2847 2600 2669 2842 
Q 2491 3084 2119 3084 
Q 1678 3084 1418 2786 
Q 1159 2488 1159 1978 
L 1159 0 
L 581 0 
L 581 3500 
L 1159 3500 
L 1159 2956 
Q 1356 3278 1631 3431 
Q 1906 3584 2284 3584 
Q 2666 3584 2933 3390 
Q 3200 3197 3328 2828 
z
" transform="scale(0.015625)"/>
     </defs>
     <use xlink:href="#DejaVuSans-50" transform="translate(0 0.890625)"/>
     <use xlink:href="#DejaVuSans-6c" transform="translate(60.302734 0.890625)"/>
     <use xlink:href="#DejaVuSans-6f" transform="translate(88.085938 0.890625)"/>
     <use xlink:href="#DejaVuSans-74" transform="translate(149.267578 0.890625)"/>
     <use xlink:href="#DejaVuSans-20" transform="translate(188.476562 0.890625)"/>
     <use xlink:href="#DejaVuSans-6f" transform="translate(220.263672 0.890625)"/>
     <use xlink:href="#DejaVuSans-66" transform="translate(281.445312 0.890625)"/>
     <use xlink:href="#DejaVuSans-20" transform="translate(316.650391 0.890625)"/>
     <use xlink:href="#DejaVuSans-33" transform="translate(348.4375 0.890625)"/>
     <use xlink:href="#DejaVuSans-Oblique-78" transform="translate(412.060547 0.890625)"/>
     <use xlink:href="#DejaVuSans-20" transform="translate(471.240234 0.890625)"/>
     <use xlink:href="#DejaVuSans-61" transform="translate(503.027344 0.890625)"/>
     <use xlink:href="#DejaVuSans-6e" transform="translate(564.306641 0.890625)"/>
     <use xlink:href="#DejaVuSans-64" transform="translate(627.685547 0.890625)"/>
     <use xlink:href="#DejaVuSans-20" transform="translate(691.162109 0.890625)"/>
     <use xlink:href="#DejaVuSans-33" transform="translate(722.949219 0.890625)"/>
     <use xlink:href="#DejaVuSans-221a" transform="translate(786.572266 0.890625)"/>
     <use xlink:href="#DejaVuSans-Oblique-78" transform="translate(862.792969 1.0625)"/>
     <use xlink:href="#DejaVuSans-20" transform="translate(934.472656 0.890625)"/>
     <use xlink:href="#DejaVuSans-77" transform="translate(966.259766 0.890625)"/>
     <use xlink:href="#DejaVuSans-69" transform="translate(1048.046875 0.890625)"/>
     <use xlink:href="#DejaVuSans-74" transform="translate(1075.830078 0.890625)"/>
     <use xlink:href="#DejaVuSans-68" transform="translate(1115.039062 0.890625)"/>
     <use xlink:href="#DejaVuSans-20" transform="translate(1178.417969 0.890625)"/>
     <use xlink:href="#DejaVuSans-61" transform="translate(1210.205078 0.890625)"/>
     <use xlink:href="#DejaVuSans-72" transform="translate(1271.484375 0.890625)"/>
     <use xlink:href="#DejaVuSans-65" transform="translate(1312.597656 0.890625)"/>
     <use xlink:href="#DejaVuSans-61" transform="translate(1374.121094 0.890625)"/>
     <use xlink:href="#DejaVuSans-20" transform="translate(1435.400391 0.890625)"/>
     <use xlink:href="#DejaVuSans-62" transform="translate(1467.1875 0.890625)"/>
     <use xlink:href="#DejaVuSans-65" transform="translate(1530.664062 0.890625)"/>
     <use xlink:href="#DejaVuSans-74" transform="translate(1592.1875 0.890625)"/>
     <use xlink:href="#DejaVuSans-77" transform="translate(1631.396484 0.890625)"/>
     <use xlink:href="#DejaVuSans-65" transform="translate(1713.183594 0.890625)"/>
     <use xlink:href="#DejaVuSans-65" transform="translate(1774.707031 0.890625)"/>
     <use xlink:href="#DejaVuSans-6e" transform="translate(1836.230469 0.890625)"/>
     <use xlink:href="#DejaVuSans-20" transform="translate(1899.609375 0.890625)"/>
     <use xlink:href="#DejaVuSans-63" transform="translate(1931.396484 0.890625)"/>
     <use xlink:href="#DejaVuSans-75" transform="translate(1986.376953 0.890625)"/>
     <use xlink:href="#DejaVuSans-72" transform="translate(2049.755859 0.890625)"/>
     <use xlink:href="#DejaVuSans-76" transform="translate(2090.869141 0.890625)"/>
     <use xlink:href="#DejaVuSans-65" transform="translate(2150.048828 0.890625)"/>
     <use xlink:href="#DejaVuSans-73" transform="translate(2211.572266 0.890625)"/>
     <use xlink:href="#DejaVuSans-20" transform="translate(2263.671875 0.890625)"/>
     <use xlink:href="#DejaVuSans-66" transform="translate(2295.458984 0.890625)"/>
     <use xlink:href="#DejaVuSans-72" transform="translate(2330.664062 0.890625)"/>
     <use xlink:href="#DejaVuSans-6f" transform="translate(2371.777344 0.890625)"/>
     <use xlink:href="#DejaVuSans-6d" transform="translate(2432.958984 0.890625)"/>
     <use xlink:href="#DejaVuSans-20" transform="translate(2530.371094 0.890625)"/>
     <use xlink:href="#DejaVuSans-30" transform="translate(2562.158203 0.890625)"/>
     <use xlink:href="#DejaVuSans-20" transform="translate(2625.78125 0.890625)"/>
     <use xlink:href="#DejaVuSans-74" transform="translate(2657.568359 0.890625)"/>
     <use xlink:href="#DejaVuSans-6f" transform="translate(2696.777344 0.890625)"/>
     <use xlink:href="#DejaVuSans-20" transform="translate(2757.958984 0.890625)"/>
     <use xlink:href="#DejaVuSans-31" transform="translate(2789.746094 0.890625)"/>
     <path d="M 850.292969 75.5 
L 850.292969 81.75 
L 934.472656 81.75 
L 934.472656 75.5 
L 850.292969 75.5 
z
"/>
    </g>
   </g>
   <g id="legend_1">
    <g id="patch_7">
     <path d="M 79 89.19625 
L 132.2 89.19625 
Q 134.2 89.19625 134.2 87.19625 
L 134.2 58.84 
Q 134.2 56.84 132.2 56.84 
L 79 56.84 
Q 77 56.84 77 58.84 
L 77 87.19625 
Q 77 89.19625 79 89.19625 
z
" style="fill: #ffffff; opacity: 0.8; stroke: #cccccc; stroke-linejoin: miter"/>
    </g>
    <g id="line2d_35">
     <path d="M 81 64.938437 
L 91 64.938437 
L 101 64.938437 
" style="fill: none; stroke: #0000ff; stroke-width: 1.5; stroke-linecap: square"/>
    </g>
    <g id="text_20">
     <!-- $3x$ -->
     <g transform="translate(109 68.438437)scale(0.1 -0.1)">
      <use xlink:href="#DejaVuSans-33" transform="translate(0 0.78125)"/>
      <use xlink:href="#DejaVuSans-Oblique-78" transform="translate(63.623047 0.78125)"/>
     </g>
    </g>
    <g id="line2d_36">
     <path d="M 81 79.616562 
L 91 79.616562 
L 101 79.616562 
" style="fill: none; stroke: #ff0000; stroke-width: 1.5; stroke-linecap: square"/>
    </g>
    <g id="text_21">
     <!-- $3\sqrt{x}$ -->
     <g transform="translate(109 83.116562)scale(0.1 -0.1)">
      <use xlink:href="#DejaVuSans-33" transform="translate(0 0.890625)"/>
      <use xlink:href="#DejaVuSans-221a" transform="translate(63.623047 0.890625)"/>
      <use xlink:href="#DejaVuSans-Oblique-78" transform="translate(139.84375 1.0625)"/>
      <path d="M 127.34375 75.5 
L 127.34375 81.75 
L 211.523438 81.75 
L 211.523438 75.5 
L 127.34375 75.5 
z
"/>
     </g>
    </g>
   </g>
  </g>
 </g>
 <defs>
  <clipPath id="p95b02c60aa">
   <rect x="72" y="51.84" width="446.4" height="332.64"/>
  </clipPath>
 </defs>
</svg>
