<?xml version="1.0" encoding="utf-8" standalone="no"?>
<!DOCTYPE svg PUBLIC "-//W3C//DTD SVG 1.1//EN"
  "http://www.w3.org/Graphics/SVG/1.1/DTD/svg11.dtd">
<svg xmlns:xlink="http://www.w3.org/1999/xlink" width="385.78125pt" height="377.39625pt" viewBox="0 0 385.78125 377.39625" xmlns="http://www.w3.org/2000/svg" version="1.1">
 <metadata>
  <rdf:RDF xmlns:dc="http://purl.org/dc/elements/1.1/" xmlns:cc="http://creativecommons.org/ns#" xmlns:rdf="http://www.w3.org/1999/02/22-rdf-syntax-ns#">
   <cc:Work>
    <dc:type rdf:resource="http://purl.org/dc/dcmitype/StillImage"/>
    <dc:date>2023-11-26T17:02:40.461047</dc:date>
    <dc:format>image/svg+xml</dc:format>
    <dc:creator>
     <cc:Agent>
      <dc:title>Matplotlib v3.5.2, https://matplotlib.org/</dc:title>
     </cc:Agent>
    </dc:creator>
   </cc:Work>
  </rdf:RDF>
 </metadata>
 <defs>
  <style type="text/css">*{stroke-linejoin: round; stroke-linecap: butt}</style>
 </defs>
 <g id="figure_1">
  <g id="patch_1">
   <path d="M 0 377.39625 
L 385.78125 377.39625 
L 385.78125 0 
L 0 0 
z
" style="fill: #ffffff"/>
  </g>
  <g id="axes_1">
   <g id="patch_2">
    <path d="M 43.78125 339.84 
L 378.58125 339.84 
L 378.58125 7.2 
L 43.78125 7.2 
z
" style="fill: #ffffff"/>
   </g>
   <g id="PolyCollection_1">
    <defs>
     <path id="mbe57490128" d="M 58.999432 -52.67625 
L 58.999432 -52.67625 
L 60.200671 -52.67625 
L 61.401911 -52.67625 
L 62.60315 -52.67625 
L 63.804389 -52.67625 
L 65.005629 -52.67625 
L 66.206868 -52.67625 
L 67.408108 -52.67625 
L 68.609347 -52.67625 
L 69.810586 -52.67625 
L 71.011826 -52.67625 
L 72.213065 -52.67625 
L 73.414305 -52.67625 
L 74.615544 -52.67625 
L 75.816783 -52.67625 
L 77.018023 -52.67625 
L 78.219262 -52.67625 
L 79.420502 -52.67625 
L 80.621741 -52.67625 
L 81.82298 -52.67625 
L 83.02422 -52.67625 
L 84.225459 -52.67625 
L 85.426699 -52.67625 
L 86.627938 -52.67625 
L 87.829177 -52.67625 
L 89.030417 -52.67625 
L 90.231656 -52.67625 
L 91.432896 -52.67625 
L 92.634135 -52.67625 
L 93.835374 -52.67625 
L 95.036614 -52.67625 
L 96.237853 -52.67625 
L 97.439093 -52.67625 
L 98.640332 -52.67625 
L 99.841571 -52.67625 
L 101.042811 -52.67625 
L 102.24405 -52.67625 
L 103.44529 -52.67625 
L 104.646529 -52.67625 
L 105.847768 -52.67625 
L 107.049008 -52.67625 
L 108.250247 -52.67625 
L 109.451487 -52.67625 
L 110.652726 -52.67625 
L 111.853966 -52.67625 
L 113.055205 -52.67625 
L 114.256444 -52.67625 
L 115.457684 -52.67625 
L 116.658923 -52.67625 
L 117.860163 -52.67625 
L 119.061402 -52.67625 
L 120.262641 -52.67625 
L 121.463881 -52.67625 
L 122.66512 -52.67625 
L 123.86636 -52.67625 
L 125.067599 -52.67625 
L 126.268838 -52.67625 
L 127.470078 -52.67625 
L 128.671317 -52.67625 
L 129.872557 -52.67625 
L 131.073796 -52.67625 
L 132.275035 -52.67625 
L 133.476275 -52.67625 
L 134.677514 -52.67625 
L 135.878754 -52.67625 
L 137.079993 -52.67625 
L 138.281232 -52.67625 
L 139.482472 -52.67625 
L 140.683711 -52.67625 
L 141.884951 -52.67625 
L 143.08619 -52.67625 
L 144.287429 -52.67625 
L 145.488669 -52.67625 
L 146.689908 -52.67625 
L 147.891148 -52.67625 
L 149.092387 -52.67625 
L 150.293626 -52.67625 
L 151.494866 -52.67625 
L 152.696105 -52.67625 
L 153.897345 -52.67625 
L 155.098584 -52.67625 
L 156.299823 -52.67625 
L 157.501063 -52.67625 
L 158.702302 -52.67625 
L 159.903542 -52.67625 
L 161.104781 -52.67625 
L 162.30602 -52.67625 
L 163.50726 -52.67625 
L 164.708499 -52.67625 
L 165.909739 -52.67625 
L 167.110978 -52.67625 
L 168.312217 -52.67625 
L 169.513457 -52.67625 
L 170.714696 -52.67625 
L 171.915936 -52.67625 
L 173.117175 -52.67625 
L 174.318414 -52.67625 
L 175.519654 -52.67625 
L 176.720893 -52.67625 
L 177.922133 -52.67625 
L 179.123372 -52.67625 
L 180.324611 -52.67625 
L 181.525851 -52.67625 
L 182.72709 -52.67625 
L 183.92833 -52.67625 
L 185.129569 -52.67625 
L 186.330808 -52.67625 
L 187.532048 -52.67625 
L 188.733287 -52.67625 
L 189.934527 -52.67625 
L 191.135766 -52.67625 
L 192.337005 -52.67625 
L 193.538245 -52.67625 
L 194.739484 -52.67625 
L 195.940724 -52.67625 
L 197.141963 -52.67625 
L 198.343202 -52.67625 
L 199.544442 -52.67625 
L 200.745681 -52.67625 
L 201.946921 -52.67625 
L 203.14816 -52.67625 
L 204.349399 -52.67625 
L 205.550639 -52.67625 
L 206.751878 -52.67625 
L 207.953118 -52.67625 
L 209.154357 -52.67625 
L 210.355596 -52.67625 
L 211.556836 -52.67625 
L 212.758075 -52.67625 
L 213.959315 -52.67625 
L 215.160554 -52.67625 
L 216.361793 -52.67625 
L 217.563033 -52.67625 
L 218.764272 -52.67625 
L 219.965512 -52.67625 
L 221.166751 -52.67625 
L 222.36799 -52.67625 
L 223.56923 -52.67625 
L 224.770469 -52.67625 
L 225.971709 -52.67625 
L 227.172948 -52.67625 
L 228.374188 -52.67625 
L 229.575427 -52.67625 
L 230.776666 -52.67625 
L 231.977906 -52.67625 
L 233.179145 -52.67625 
L 234.380385 -52.67625 
L 235.581624 -52.67625 
L 236.782863 -52.67625 
L 237.984103 -52.67625 
L 239.185342 -52.67625 
L 240.386582 -52.67625 
L 241.587821 -52.67625 
L 242.78906 -52.67625 
L 243.9903 -52.67625 
L 245.191539 -52.67625 
L 246.392779 -52.67625 
L 247.594018 -52.67625 
L 248.795257 -52.67625 
L 249.996497 -52.67625 
L 251.197736 -52.67625 
L 252.398976 -52.67625 
L 253.600215 -52.67625 
L 254.801454 -52.67625 
L 256.002694 -52.67625 
L 257.203933 -52.67625 
L 258.405173 -52.67625 
L 259.606412 -52.67625 
L 260.807651 -52.67625 
L 262.008891 -52.67625 
L 263.21013 -52.67625 
L 264.41137 -52.67625 
L 265.612609 -52.67625 
L 266.813848 -52.67625 
L 268.015088 -52.67625 
L 269.216327 -52.67625 
L 270.417567 -52.67625 
L 271.618806 -52.67625 
L 272.820045 -52.67625 
L 274.021285 -52.67625 
L 275.222524 -52.67625 
L 276.423764 -52.67625 
L 277.625003 -52.67625 
L 278.826242 -52.67625 
L 280.027482 -52.67625 
L 281.228721 -52.67625 
L 282.429961 -52.67625 
L 283.6312 -52.67625 
L 284.832439 -52.67625 
L 286.033679 -52.67625 
L 287.234918 -52.67625 
L 288.436158 -52.67625 
L 289.637397 -52.67625 
L 290.838636 -52.67625 
L 292.039876 -52.67625 
L 293.241115 -52.67625 
L 294.442355 -52.67625 
L 295.643594 -52.67625 
L 296.844833 -52.67625 
L 298.046073 -52.67625 
L 298.046073 -52.676253 
L 298.046073 -52.676253 
L 296.844833 -90.670788 
L 295.643594 -106.405293 
L 294.442355 -118.473786 
L 293.241115 -128.641653 
L 292.039876 -137.592273 
L 290.838636 -145.675833 
L 289.637397 -153.100143 
L 288.436158 -160.000436 
L 287.234918 -166.470507 
L 286.033679 -172.578534 
L 284.832439 -178.37589 
L 283.6312 -183.902404 
L 282.429961 -189.189677 
L 281.228721 -194.263268 
L 280.027482 -199.144183 
L 278.826242 -203.849928 
L 277.625003 -208.395261 
L 276.423764 -212.792761 
L 275.222524 -217.053238 
L 274.021285 -221.186064 
L 272.820045 -225.199419 
L 271.618806 -229.10049 
L 270.417567 -232.895627 
L 269.216327 -236.590472 
L 268.015088 -240.190058 
L 266.813848 -243.698899 
L 265.612609 -247.121057 
L 264.41137 -250.460199 
L 263.21013 -253.719651 
L 262.008891 -256.902434 
L 260.807651 -260.011305 
L 259.606412 -263.048782 
L 258.405173 -266.017174 
L 257.203933 -268.918601 
L 256.002694 -271.755014 
L 254.801454 -274.528214 
L 253.600215 -277.239865 
L 252.398976 -279.891505 
L 251.197736 -282.484563 
L 249.996497 -285.020364 
L 248.795257 -287.500142 
L 247.594018 -289.925045 
L 246.392779 -292.296143 
L 245.191539 -294.614435 
L 243.9903 -296.880857 
L 242.78906 -299.096283 
L 241.587821 -301.26153 
L 240.386582 -303.377366 
L 239.185342 -305.444512 
L 237.984103 -307.463643 
L 236.782863 -309.435394 
L 235.581624 -311.360364 
L 234.380385 -313.239115 
L 233.179145 -315.072176 
L 231.977906 -316.860045 
L 230.776666 -318.603194 
L 229.575427 -320.302066 
L 228.374188 -321.95708 
L 227.172948 -323.56863 
L 225.971709 -325.13709 
L 224.770469 -326.662812 
L 223.56923 -328.146129 
L 222.36799 -329.587356 
L 221.166751 -330.98679 
L 219.965512 -332.344712 
L 218.764272 -333.661389 
L 217.563033 -334.937071 
L 216.361793 -336.171997 
L 215.160554 -337.36639 
L 213.959315 -338.520463 
L 212.758075 -339.634417 
L 211.556836 -340.70844 
L 210.355596 -341.742713 
L 209.154357 -342.737403 
L 207.953118 -343.69267 
L 206.751878 -344.608663 
L 205.550639 -345.485525 
L 204.349399 -346.323388 
L 203.14816 -347.122377 
L 201.946921 -347.88261 
L 200.745681 -348.604196 
L 199.544442 -349.287239 
L 198.343202 -349.931833 
L 197.141963 -350.53807 
L 195.940724 -351.106031 
L 194.739484 -351.635794 
L 193.538245 -352.12743 
L 192.337005 -352.581004 
L 191.135766 -352.996576 
L 189.934527 -353.3742 
L 188.733287 -353.713925 
L 187.532048 -354.015794 
L 186.330808 -354.279846 
L 185.129569 -354.506115 
L 183.92833 -354.694629 
L 182.72709 -354.845412 
L 181.525851 -354.958483 
L 180.324611 -355.033856 
L 179.123372 -355.07154 
L 177.922133 -355.07154 
L 176.720893 -355.033856 
L 175.519654 -354.958483 
L 174.318414 -354.845412 
L 173.117175 -354.694629 
L 171.915936 -354.506115 
L 170.714696 -354.279846 
L 169.513457 -354.015794 
L 168.312217 -353.713925 
L 167.110978 -353.3742 
L 165.909739 -352.996576 
L 164.708499 -352.581004 
L 163.50726 -352.12743 
L 162.30602 -351.635794 
L 161.104781 -351.106031 
L 159.903542 -350.53807 
L 158.702302 -349.931833 
L 157.501063 -349.287239 
L 156.299823 -348.604196 
L 155.098584 -347.88261 
L 153.897345 -347.122377 
L 152.696105 -346.323388 
L 151.494866 -345.485525 
L 150.293626 -344.608663 
L 149.092387 -343.69267 
L 147.891148 -342.737403 
L 146.689908 -341.742713 
L 145.488669 -340.70844 
L 144.287429 -339.634417 
L 143.08619 -338.520463 
L 141.884951 -337.36639 
L 140.683711 -336.171997 
L 139.482472 -334.937071 
L 138.281232 -333.661389 
L 137.079993 -332.344712 
L 135.878754 -330.98679 
L 134.677514 -329.587356 
L 133.476275 -328.146129 
L 132.275035 -326.662812 
L 131.073796 -325.13709 
L 129.872557 -323.56863 
L 128.671317 -321.95708 
L 127.470078 -320.302066 
L 126.268838 -318.603194 
L 125.067599 -316.860045 
L 123.86636 -315.072176 
L 122.66512 -313.239115 
L 121.463881 -311.360364 
L 120.262641 -309.435394 
L 119.061402 -307.463643 
L 117.860163 -305.444512 
L 116.658923 -303.377366 
L 115.457684 -301.26153 
L 114.256444 -299.096283 
L 113.055205 -296.880857 
L 111.853966 -294.614435 
L 110.652726 -292.296143 
L 109.451487 -289.925045 
L 108.250247 -287.500142 
L 107.049008 -285.020364 
L 105.847768 -282.484563 
L 104.646529 -279.891505 
L 103.44529 -277.239865 
L 102.24405 -274.528214 
L 101.042811 -271.755014 
L 99.841571 -268.918601 
L 98.640332 -266.017174 
L 97.439093 -263.048782 
L 96.237853 -260.011305 
L 95.036614 -256.902434 
L 93.835374 -253.719651 
L 92.634135 -250.460199 
L 91.432896 -247.121057 
L 90.231656 -243.698899 
L 89.030417 -240.190058 
L 87.829177 -236.590472 
L 86.627938 -232.895627 
L 85.426699 -229.10049 
L 84.225459 -225.199419 
L 83.02422 -221.186064 
L 81.82298 -217.053238 
L 80.621741 -212.792761 
L 79.420502 -208.395261 
L 78.219262 -203.849928 
L 77.018023 -199.144183 
L 75.816783 -194.263268 
L 74.615544 -189.189677 
L 73.414305 -183.902404 
L 72.213065 -178.37589 
L 71.011826 -172.578534 
L 69.810586 -166.470507 
L 68.609347 -160.000436 
L 67.408108 -153.100143 
L 66.206868 -145.675833 
L 65.005629 -137.592273 
L 63.804389 -128.641653 
L 62.60315 -118.473786 
L 61.401911 -106.405293 
L 60.200671 -90.670788 
L 58.999432 -52.67625 
z
" style="stroke: #008000; stroke-opacity: 0.3"/>
    </defs>
    <g clip-path="url(#p4d1d654cdc)">
     <use xlink:href="#mbe57490128" x="0" y="377.39625" style="fill: #008000; fill-opacity: 0.3; stroke: #008000; stroke-opacity: 0.3"/>
    </g>
   </g>
   <g id="matplotlib.axis_1">
    <g id="xtick_1">
     <g id="line2d_1">
      <path d="M 58.999432 339.84 
L 58.999432 7.2 
" clip-path="url(#p4d1d654cdc)" style="fill: none; stroke: #b0b0b0; stroke-width: 0.8; stroke-linecap: square"/>
     </g>
     <g id="line2d_2">
      <defs>
       <path id="m695cb00876" d="M 0 0 
L 0 3.5 
" style="stroke: #000000; stroke-width: 0.8"/>
      </defs>
      <g>
       <use xlink:href="#m695cb00876" x="58.999432" y="339.84" style="stroke: #000000; stroke-width: 0.8"/>
      </g>
     </g>
     <g id="text_1">
      <!-- 0.0 -->
      <g transform="translate(51.047869 354.438437)scale(0.1 -0.1)">
       <defs>
        <path id="DejaVuSans-30" d="M 2034 4250 
Q 1547 4250 1301 3770 
Q 1056 3291 1056 2328 
Q 1056 1369 1301 889 
Q 1547 409 2034 409 
Q 2525 409 2770 889 
Q 3016 1369 3016 2328 
Q 3016 3291 2770 3770 
Q 2525 4250 2034 4250 
z
M 2034 4750 
Q 2819 4750 3233 4129 
Q 3647 3509 3647 2328 
Q 3647 1150 3233 529 
Q 2819 -91 2034 -91 
Q 1250 -91 836 529 
Q 422 1150 422 2328 
Q 422 3509 836 4129 
Q 1250 4750 2034 4750 
z
" transform="scale(0.015625)"/>
        <path id="DejaVuSans-2e" d="M 684 794 
L 1344 794 
L 1344 0 
L 684 0 
L 684 794 
z
" transform="scale(0.015625)"/>
       </defs>
       <use xlink:href="#DejaVuSans-30"/>
       <use xlink:href="#DejaVuSans-2e" x="63.623047"/>
       <use xlink:href="#DejaVuSans-30" x="95.410156"/>
      </g>
     </g>
    </g>
    <g id="xtick_2">
     <g id="line2d_3">
      <path d="M 97.044886 339.84 
L 97.044886 7.2 
" clip-path="url(#p4d1d654cdc)" style="fill: none; stroke: #b0b0b0; stroke-width: 0.8; stroke-linecap: square"/>
     </g>
     <g id="line2d_4">
      <g>
       <use xlink:href="#m695cb00876" x="97.044886" y="339.84" style="stroke: #000000; stroke-width: 0.8"/>
      </g>
     </g>
     <g id="text_2">
      <!-- 0.5 -->
      <g transform="translate(89.093324 354.438437)scale(0.1 -0.1)">
       <defs>
        <path id="DejaVuSans-35" d="M 691 4666 
L 3169 4666 
L 3169 4134 
L 1269 4134 
L 1269 2991 
Q 1406 3038 1543 3061 
Q 1681 3084 1819 3084 
Q 2600 3084 3056 2656 
Q 3513 2228 3513 1497 
Q 3513 744 3044 326 
Q 2575 -91 1722 -91 
Q 1428 -91 1123 -41 
Q 819 9 494 109 
L 494 744 
Q 775 591 1075 516 
Q 1375 441 1709 441 
Q 2250 441 2565 725 
Q 2881 1009 2881 1497 
Q 2881 1984 2565 2268 
Q 2250 2553 1709 2553 
Q 1456 2553 1204 2497 
Q 953 2441 691 2322 
L 691 4666 
z
" transform="scale(0.015625)"/>
       </defs>
       <use xlink:href="#DejaVuSans-30"/>
       <use xlink:href="#DejaVuSans-2e" x="63.623047"/>
       <use xlink:href="#DejaVuSans-35" x="95.410156"/>
      </g>
     </g>
    </g>
    <g id="xtick_3">
     <g id="line2d_5">
      <path d="M 135.090341 339.84 
L 135.090341 7.2 
" clip-path="url(#p4d1d654cdc)" style="fill: none; stroke: #b0b0b0; stroke-width: 0.8; stroke-linecap: square"/>
     </g>
     <g id="line2d_6">
      <g>
       <use xlink:href="#m695cb00876" x="135.090341" y="339.84" style="stroke: #000000; stroke-width: 0.8"/>
      </g>
     </g>
     <g id="text_3">
      <!-- 1.0 -->
      <g transform="translate(127.138778 354.438437)scale(0.1 -0.1)">
       <defs>
        <path id="DejaVuSans-31" d="M 794 531 
L 1825 531 
L 1825 4091 
L 703 3866 
L 703 4441 
L 1819 4666 
L 2450 4666 
L 2450 531 
L 3481 531 
L 3481 0 
L 794 0 
L 794 531 
z
" transform="scale(0.015625)"/>
       </defs>
       <use xlink:href="#DejaVuSans-31"/>
       <use xlink:href="#DejaVuSans-2e" x="63.623047"/>
       <use xlink:href="#DejaVuSans-30" x="95.410156"/>
      </g>
     </g>
    </g>
    <g id="xtick_4">
     <g id="line2d_7">
      <path d="M 173.135795 339.84 
L 173.135795 7.2 
" clip-path="url(#p4d1d654cdc)" style="fill: none; stroke: #b0b0b0; stroke-width: 0.8; stroke-linecap: square"/>
     </g>
     <g id="line2d_8">
      <g>
       <use xlink:href="#m695cb00876" x="173.135795" y="339.84" style="stroke: #000000; stroke-width: 0.8"/>
      </g>
     </g>
     <g id="text_4">
      <!-- 1.5 -->
      <g transform="translate(165.184233 354.438437)scale(0.1 -0.1)">
       <use xlink:href="#DejaVuSans-31"/>
       <use xlink:href="#DejaVuSans-2e" x="63.623047"/>
       <use xlink:href="#DejaVuSans-35" x="95.410156"/>
      </g>
     </g>
    </g>
    <g id="xtick_5">
     <g id="line2d_9">
      <path d="M 211.18125 339.84 
L 211.18125 7.2 
" clip-path="url(#p4d1d654cdc)" style="fill: none; stroke: #b0b0b0; stroke-width: 0.8; stroke-linecap: square"/>
     </g>
     <g id="line2d_10">
      <g>
       <use xlink:href="#m695cb00876" x="211.18125" y="339.84" style="stroke: #000000; stroke-width: 0.8"/>
      </g>
     </g>
     <g id="text_5">
      <!-- 2.0 -->
      <g transform="translate(203.229688 354.438437)scale(0.1 -0.1)">
       <defs>
        <path id="DejaVuSans-32" d="M 1228 531 
L 3431 531 
L 3431 0 
L 469 0 
L 469 531 
Q 828 903 1448 1529 
Q 2069 2156 2228 2338 
Q 2531 2678 2651 2914 
Q 2772 3150 2772 3378 
Q 2772 3750 2511 3984 
Q 2250 4219 1831 4219 
Q 1534 4219 1204 4116 
Q 875 4013 500 3803 
L 500 4441 
Q 881 4594 1212 4672 
Q 1544 4750 1819 4750 
Q 2544 4750 2975 4387 
Q 3406 4025 3406 3419 
Q 3406 3131 3298 2873 
Q 3191 2616 2906 2266 
Q 2828 2175 2409 1742 
Q 1991 1309 1228 531 
z
" transform="scale(0.015625)"/>
       </defs>
       <use xlink:href="#DejaVuSans-32"/>
       <use xlink:href="#DejaVuSans-2e" x="63.623047"/>
       <use xlink:href="#DejaVuSans-30" x="95.410156"/>
      </g>
     </g>
    </g>
    <g id="xtick_6">
     <g id="line2d_11">
      <path d="M 249.226705 339.84 
L 249.226705 7.2 
" clip-path="url(#p4d1d654cdc)" style="fill: none; stroke: #b0b0b0; stroke-width: 0.8; stroke-linecap: square"/>
     </g>
     <g id="line2d_12">
      <g>
       <use xlink:href="#m695cb00876" x="249.226705" y="339.84" style="stroke: #000000; stroke-width: 0.8"/>
      </g>
     </g>
     <g id="text_6">
      <!-- 2.5 -->
      <g transform="translate(241.275142 354.438437)scale(0.1 -0.1)">
       <use xlink:href="#DejaVuSans-32"/>
       <use xlink:href="#DejaVuSans-2e" x="63.623047"/>
       <use xlink:href="#DejaVuSans-35" x="95.410156"/>
      </g>
     </g>
    </g>
    <g id="xtick_7">
     <g id="line2d_13">
      <path d="M 287.272159 339.84 
L 287.272159 7.2 
" clip-path="url(#p4d1d654cdc)" style="fill: none; stroke: #b0b0b0; stroke-width: 0.8; stroke-linecap: square"/>
     </g>
     <g id="line2d_14">
      <g>
       <use xlink:href="#m695cb00876" x="287.272159" y="339.84" style="stroke: #000000; stroke-width: 0.8"/>
      </g>
     </g>
     <g id="text_7">
      <!-- 3.0 -->
      <g transform="translate(279.320597 354.438437)scale(0.1 -0.1)">
       <defs>
        <path id="DejaVuSans-33" d="M 2597 2516 
Q 3050 2419 3304 2112 
Q 3559 1806 3559 1356 
Q 3559 666 3084 287 
Q 2609 -91 1734 -91 
Q 1441 -91 1130 -33 
Q 819 25 488 141 
L 488 750 
Q 750 597 1062 519 
Q 1375 441 1716 441 
Q 2309 441 2620 675 
Q 2931 909 2931 1356 
Q 2931 1769 2642 2001 
Q 2353 2234 1838 2234 
L 1294 2234 
L 1294 2753 
L 1863 2753 
Q 2328 2753 2575 2939 
Q 2822 3125 2822 3475 
Q 2822 3834 2567 4026 
Q 2313 4219 1838 4219 
Q 1578 4219 1281 4162 
Q 984 4106 628 3988 
L 628 4550 
Q 988 4650 1302 4700 
Q 1616 4750 1894 4750 
Q 2613 4750 3031 4423 
Q 3450 4097 3450 3541 
Q 3450 3153 3228 2886 
Q 3006 2619 2597 2516 
z
" transform="scale(0.015625)"/>
       </defs>
       <use xlink:href="#DejaVuSans-33"/>
       <use xlink:href="#DejaVuSans-2e" x="63.623047"/>
       <use xlink:href="#DejaVuSans-30" x="95.410156"/>
      </g>
     </g>
    </g>
    <g id="xtick_8">
     <g id="line2d_15">
      <path d="M 325.317614 339.84 
L 325.317614 7.2 
" clip-path="url(#p4d1d654cdc)" style="fill: none; stroke: #b0b0b0; stroke-width: 0.8; stroke-linecap: square"/>
     </g>
     <g id="line2d_16">
      <g>
       <use xlink:href="#m695cb00876" x="325.317614" y="339.84" style="stroke: #000000; stroke-width: 0.8"/>
      </g>
     </g>
     <g id="text_8">
      <!-- 3.5 -->
      <g transform="translate(317.366051 354.438437)scale(0.1 -0.1)">
       <use xlink:href="#DejaVuSans-33"/>
       <use xlink:href="#DejaVuSans-2e" x="63.623047"/>
       <use xlink:href="#DejaVuSans-35" x="95.410156"/>
      </g>
     </g>
    </g>
    <g id="xtick_9">
     <g id="line2d_17">
      <path d="M 363.363068 339.84 
L 363.363068 7.2 
" clip-path="url(#p4d1d654cdc)" style="fill: none; stroke: #b0b0b0; stroke-width: 0.8; stroke-linecap: square"/>
     </g>
     <g id="line2d_18">
      <g>
       <use xlink:href="#m695cb00876" x="363.363068" y="339.84" style="stroke: #000000; stroke-width: 0.8"/>
      </g>
     </g>
     <g id="text_9">
      <!-- 4.0 -->
      <g transform="translate(355.411506 354.438437)scale(0.1 -0.1)">
       <defs>
        <path id="DejaVuSans-34" d="M 2419 4116 
L 825 1625 
L 2419 1625 
L 2419 4116 
z
M 2253 4666 
L 3047 4666 
L 3047 1625 
L 3713 1625 
L 3713 1100 
L 3047 1100 
L 3047 0 
L 2419 0 
L 2419 1100 
L 313 1100 
L 313 1709 
L 2253 4666 
z
" transform="scale(0.015625)"/>
       </defs>
       <use xlink:href="#DejaVuSans-34"/>
       <use xlink:href="#DejaVuSans-2e" x="63.623047"/>
       <use xlink:href="#DejaVuSans-30" x="95.410156"/>
      </g>
     </g>
    </g>
    <g id="text_10">
     <!-- y -->
     <g transform="translate(208.221875 368.116562)scale(0.1 -0.1)">
      <defs>
       <path id="DejaVuSans-79" d="M 2059 -325 
Q 1816 -950 1584 -1140 
Q 1353 -1331 966 -1331 
L 506 -1331 
L 506 -850 
L 844 -850 
Q 1081 -850 1212 -737 
Q 1344 -625 1503 -206 
L 1606 56 
L 191 3500 
L 800 3500 
L 1894 763 
L 2988 3500 
L 3597 3500 
L 2059 -325 
z
" transform="scale(0.015625)"/>
      </defs>
      <use xlink:href="#DejaVuSans-79"/>
     </g>
    </g>
   </g>
   <g id="matplotlib.axis_2">
    <g id="ytick_1">
     <g id="line2d_19">
      <path d="M 43.78125 324.72 
L 378.58125 324.72 
" clip-path="url(#p4d1d654cdc)" style="fill: none; stroke: #b0b0b0; stroke-width: 0.8; stroke-linecap: square"/>
     </g>
     <g id="line2d_20">
      <defs>
       <path id="m5f4ad4b3de" d="M 0 0 
L -3.5 0 
" style="stroke: #000000; stroke-width: 0.8"/>
      </defs>
      <g>
       <use xlink:href="#m5f4ad4b3de" x="43.78125" y="324.72" style="stroke: #000000; stroke-width: 0.8"/>
      </g>
     </g>
     <g id="text_11">
      <!-- 0.0 -->
      <g transform="translate(20.878125 328.519219)scale(0.1 -0.1)">
       <use xlink:href="#DejaVuSans-30"/>
       <use xlink:href="#DejaVuSans-2e" x="63.623047"/>
       <use xlink:href="#DejaVuSans-30" x="95.410156"/>
      </g>
     </g>
    </g>
    <g id="ytick_2">
     <g id="line2d_21">
      <path d="M 43.78125 286.92 
L 378.58125 286.92 
" clip-path="url(#p4d1d654cdc)" style="fill: none; stroke: #b0b0b0; stroke-width: 0.8; stroke-linecap: square"/>
     </g>
     <g id="line2d_22">
      <g>
       <use xlink:href="#m5f4ad4b3de" x="43.78125" y="286.92" style="stroke: #000000; stroke-width: 0.8"/>
      </g>
     </g>
     <g id="text_12">
      <!-- 0.5 -->
      <g transform="translate(20.878125 290.719219)scale(0.1 -0.1)">
       <use xlink:href="#DejaVuSans-30"/>
       <use xlink:href="#DejaVuSans-2e" x="63.623047"/>
       <use xlink:href="#DejaVuSans-35" x="95.410156"/>
      </g>
     </g>
    </g>
    <g id="ytick_3">
     <g id="line2d_23">
      <path d="M 43.78125 249.12 
L 378.58125 249.12 
" clip-path="url(#p4d1d654cdc)" style="fill: none; stroke: #b0b0b0; stroke-width: 0.8; stroke-linecap: square"/>
     </g>
     <g id="line2d_24">
      <g>
       <use xlink:href="#m5f4ad4b3de" x="43.78125" y="249.12" style="stroke: #000000; stroke-width: 0.8"/>
      </g>
     </g>
     <g id="text_13">
      <!-- 1.0 -->
      <g transform="translate(20.878125 252.919219)scale(0.1 -0.1)">
       <use xlink:href="#DejaVuSans-31"/>
       <use xlink:href="#DejaVuSans-2e" x="63.623047"/>
       <use xlink:href="#DejaVuSans-30" x="95.410156"/>
      </g>
     </g>
    </g>
    <g id="ytick_4">
     <g id="line2d_25">
      <path d="M 43.78125 211.32 
L 378.58125 211.32 
" clip-path="url(#p4d1d654cdc)" style="fill: none; stroke: #b0b0b0; stroke-width: 0.8; stroke-linecap: square"/>
     </g>
     <g id="line2d_26">
      <g>
       <use xlink:href="#m5f4ad4b3de" x="43.78125" y="211.32" style="stroke: #000000; stroke-width: 0.8"/>
      </g>
     </g>
     <g id="text_14">
      <!-- 1.5 -->
      <g transform="translate(20.878125 215.119219)scale(0.1 -0.1)">
       <use xlink:href="#DejaVuSans-31"/>
       <use xlink:href="#DejaVuSans-2e" x="63.623047"/>
       <use xlink:href="#DejaVuSans-35" x="95.410156"/>
      </g>
     </g>
    </g>
    <g id="ytick_5">
     <g id="line2d_27">
      <path d="M 43.78125 173.52 
L 378.58125 173.52 
" clip-path="url(#p4d1d654cdc)" style="fill: none; stroke: #b0b0b0; stroke-width: 0.8; stroke-linecap: square"/>
     </g>
     <g id="line2d_28">
      <g>
       <use xlink:href="#m5f4ad4b3de" x="43.78125" y="173.52" style="stroke: #000000; stroke-width: 0.8"/>
      </g>
     </g>
     <g id="text_15">
      <!-- 2.0 -->
      <g transform="translate(20.878125 177.319219)scale(0.1 -0.1)">
       <use xlink:href="#DejaVuSans-32"/>
       <use xlink:href="#DejaVuSans-2e" x="63.623047"/>
       <use xlink:href="#DejaVuSans-30" x="95.410156"/>
      </g>
     </g>
    </g>
    <g id="ytick_6">
     <g id="line2d_29">
      <path d="M 43.78125 135.72 
L 378.58125 135.72 
" clip-path="url(#p4d1d654cdc)" style="fill: none; stroke: #b0b0b0; stroke-width: 0.8; stroke-linecap: square"/>
     </g>
     <g id="line2d_30">
      <g>
       <use xlink:href="#m5f4ad4b3de" x="43.78125" y="135.72" style="stroke: #000000; stroke-width: 0.8"/>
      </g>
     </g>
     <g id="text_16">
      <!-- 2.5 -->
      <g transform="translate(20.878125 139.519219)scale(0.1 -0.1)">
       <use xlink:href="#DejaVuSans-32"/>
       <use xlink:href="#DejaVuSans-2e" x="63.623047"/>
       <use xlink:href="#DejaVuSans-35" x="95.410156"/>
      </g>
     </g>
    </g>
    <g id="ytick_7">
     <g id="line2d_31">
      <path d="M 43.78125 97.92 
L 378.58125 97.92 
" clip-path="url(#p4d1d654cdc)" style="fill: none; stroke: #b0b0b0; stroke-width: 0.8; stroke-linecap: square"/>
     </g>
     <g id="line2d_32">
      <g>
       <use xlink:href="#m5f4ad4b3de" x="43.78125" y="97.92" style="stroke: #000000; stroke-width: 0.8"/>
      </g>
     </g>
     <g id="text_17">
      <!-- 3.0 -->
      <g transform="translate(20.878125 101.719219)scale(0.1 -0.1)">
       <use xlink:href="#DejaVuSans-33"/>
       <use xlink:href="#DejaVuSans-2e" x="63.623047"/>
       <use xlink:href="#DejaVuSans-30" x="95.410156"/>
      </g>
     </g>
    </g>
    <g id="ytick_8">
     <g id="line2d_33">
      <path d="M 43.78125 60.12 
L 378.58125 60.12 
" clip-path="url(#p4d1d654cdc)" style="fill: none; stroke: #b0b0b0; stroke-width: 0.8; stroke-linecap: square"/>
     </g>
     <g id="line2d_34">
      <g>
       <use xlink:href="#m5f4ad4b3de" x="43.78125" y="60.12" style="stroke: #000000; stroke-width: 0.8"/>
      </g>
     </g>
     <g id="text_18">
      <!-- 3.5 -->
      <g transform="translate(20.878125 63.919219)scale(0.1 -0.1)">
       <use xlink:href="#DejaVuSans-33"/>
       <use xlink:href="#DejaVuSans-2e" x="63.623047"/>
       <use xlink:href="#DejaVuSans-35" x="95.410156"/>
      </g>
     </g>
    </g>
    <g id="ytick_9">
     <g id="line2d_35">
      <path d="M 43.78125 22.32 
L 378.58125 22.32 
" clip-path="url(#p4d1d654cdc)" style="fill: none; stroke: #b0b0b0; stroke-width: 0.8; stroke-linecap: square"/>
     </g>
     <g id="line2d_36">
      <g>
       <use xlink:href="#m5f4ad4b3de" x="43.78125" y="22.32" style="stroke: #000000; stroke-width: 0.8"/>
      </g>
     </g>
     <g id="text_19">
      <!-- 4.0 -->
      <g transform="translate(20.878125 26.119219)scale(0.1 -0.1)">
       <use xlink:href="#DejaVuSans-34"/>
       <use xlink:href="#DejaVuSans-2e" x="63.623047"/>
       <use xlink:href="#DejaVuSans-30" x="95.410156"/>
      </g>
     </g>
    </g>
    <g id="text_20">
     <!-- x -->
     <g transform="translate(14.798438 176.479375)rotate(-90)scale(0.1 -0.1)">
      <defs>
       <path id="DejaVuSans-78" d="M 3513 3500 
L 2247 1797 
L 3578 0 
L 2900 0 
L 1881 1375 
L 863 0 
L 184 0 
L 1544 1831 
L 300 3500 
L 978 3500 
L 1906 2253 
L 2834 3500 
L 3513 3500 
z
" transform="scale(0.015625)"/>
      </defs>
      <use xlink:href="#DejaVuSans-78"/>
     </g>
    </g>
   </g>
   <g id="line2d_37">
    <path d="M 363.363068 324.72 
L 363.363068 22.32 
L 363.363068 22.32 
" clip-path="url(#p4d1d654cdc)" style="fill: none; stroke: #0000ff; stroke-width: 1.5; stroke-linecap: square"/>
   </g>
   <g id="line2d_38">
    <path d="M 58.999432 324.72 
L 60.200671 286.725462 
L 61.401911 270.990957 
L 62.60315 258.922464 
L 63.804389 248.754597 
L 65.005629 239.803977 
L 67.408108 224.296107 
L 69.810586 210.925743 
L 72.213065 199.02036 
L 74.615544 188.206573 
L 77.018023 178.252067 
L 79.420502 169.000989 
L 83.02422 156.210186 
L 86.627938 144.500623 
L 90.231656 133.697351 
L 93.835374 123.676599 
L 97.439093 114.347468 
L 101.042811 105.641236 
L 104.646529 97.504745 
L 108.250247 89.896108 
L 111.853966 82.781815 
L 115.457684 76.13472 
L 119.061402 69.932607 
L 122.66512 64.157135 
L 126.268838 58.793056 
L 129.872557 53.82762 
L 133.476275 49.250121 
L 137.079993 45.051538 
L 140.683711 41.224253 
L 144.287429 37.761833 
L 147.891148 34.658847 
L 151.494866 31.910725 
L 155.098584 29.51364 
L 158.702302 27.464417 
L 162.30602 25.760456 
L 165.909739 24.399674 
L 169.513457 23.380456 
L 173.117175 22.701621 
L 175.519654 22.437767 
L 177.922133 22.32471 
L 180.324611 22.362394 
L 182.72709 22.550838 
L 185.129569 22.890135 
L 187.532048 23.380456 
L 191.135766 24.399674 
L 194.739484 25.760456 
L 198.343202 27.464417 
L 201.946921 29.51364 
L 205.550639 31.910725 
L 209.154357 34.658847 
L 212.758075 37.761833 
L 216.361793 41.224253 
L 219.965512 45.051538 
L 223.56923 49.250121 
L 227.172948 53.82762 
L 230.776666 58.793056 
L 234.380385 64.157135 
L 237.984103 69.932607 
L 241.587821 76.13472 
L 245.191539 82.781815 
L 248.795257 89.896108 
L 252.398976 97.504745 
L 256.002694 105.641236 
L 259.606412 114.347468 
L 263.21013 123.676599 
L 266.813848 133.697351 
L 270.417567 144.500623 
L 274.021285 156.210186 
L 277.625003 169.000989 
L 280.027482 178.252067 
L 282.429961 188.206573 
L 284.832439 199.02036 
L 287.234918 210.925743 
L 289.637397 224.296107 
L 292.039876 239.803977 
L 293.241115 248.754597 
L 294.442355 258.922464 
L 295.643594 270.990957 
L 296.844833 286.725462 
L 298.046073 324.719997 
L 298.046073 324.719997 
" clip-path="url(#p4d1d654cdc)" style="fill: none; stroke: #ff0000; stroke-width: 1.5; stroke-linecap: square"/>
   </g>
   <g id="patch_3">
    <path d="M 43.78125 339.84 
L 43.78125 7.2 
" style="fill: none; stroke: #000000; stroke-width: 0.8; stroke-linejoin: miter; stroke-linecap: square"/>
   </g>
   <g id="patch_4">
    <path d="M 378.58125 339.84 
L 378.58125 7.2 
" style="fill: none; stroke: #000000; stroke-width: 0.8; stroke-linejoin: miter; stroke-linecap: square"/>
   </g>
   <g id="patch_5">
    <path d="M 43.78125 339.84 
L 378.58125 339.84 
" style="fill: none; stroke: #000000; stroke-width: 0.8; stroke-linejoin: miter; stroke-linecap: square"/>
   </g>
   <g id="patch_6">
    <path d="M 43.78125 7.2 
L 378.58125 7.2 
" style="fill: none; stroke: #000000; stroke-width: 0.8; stroke-linejoin: miter; stroke-linecap: square"/>
   </g>
   <g id="legend_1">
    <g id="patch_7">
     <path d="M 167.03125 334.84 
L 255.33125 334.84 
Q 257.33125 334.84 257.33125 332.84 
L 257.33125 300.641562 
Q 257.33125 298.641562 255.33125 298.641562 
L 167.03125 298.641562 
Q 165.03125 298.641562 165.03125 300.641562 
L 165.03125 332.84 
Q 165.03125 334.84 167.03125 334.84 
z
" style="fill: #ffffff; opacity: 0.8; stroke: #cccccc; stroke-linejoin: miter"/>
    </g>
    <g id="line2d_39">
     <path d="M 169.03125 306.74 
L 179.03125 306.74 
L 189.03125 306.74 
" style="fill: none; stroke: #0000ff; stroke-width: 1.5; stroke-linecap: square"/>
    </g>
    <g id="text_21">
     <!-- $y=4$ -->
     <g transform="translate(197.03125 310.24)scale(0.1 -0.1)">
      <defs>
       <path id="DejaVuSans-Oblique-79" d="M 1588 -325 
Q 1188 -997 936 -1164 
Q 684 -1331 294 -1331 
L -159 -1331 
L -63 -850 
L 269 -850 
Q 509 -850 678 -719 
Q 847 -588 1056 -206 
L 1234 128 
L 459 3500 
L 1069 3500 
L 1650 819 
L 3256 3500 
L 3859 3500 
L 1588 -325 
z
" transform="scale(0.015625)"/>
       <path id="DejaVuSans-3d" d="M 678 2906 
L 4684 2906 
L 4684 2381 
L 678 2381 
L 678 2906 
z
M 678 1631 
L 4684 1631 
L 4684 1100 
L 678 1100 
L 678 1631 
z
" transform="scale(0.015625)"/>
      </defs>
      <use xlink:href="#DejaVuSans-Oblique-79" transform="translate(0 0.09375)"/>
      <use xlink:href="#DejaVuSans-3d" transform="translate(78.662109 0.09375)"/>
      <use xlink:href="#DejaVuSans-34" transform="translate(181.933594 0.09375)"/>
     </g>
    </g>
    <g id="line2d_40">
     <path d="M 169.03125 325.24 
L 179.03125 325.24 
L 189.03125 325.24 
" style="fill: none; stroke: #ff0000; stroke-width: 1.5; stroke-linecap: square"/>
    </g>
    <g id="text_22">
     <!-- $x=4\sqrt{\sin y}$ -->
     <g transform="translate(197.03125 328.74)scale(0.1 -0.1)">
      <defs>
       <path id="DejaVuSans-Oblique-78" d="M 3841 3500 
L 2234 1784 
L 3219 0 
L 2559 0 
L 1819 1388 
L 531 0 
L -166 0 
L 1556 1844 
L 641 3500 
L 1300 3500 
L 1972 2234 
L 3144 3500 
L 3841 3500 
z
" transform="scale(0.015625)"/>
       <path id="STIXSizeOneSym-Regular-221a" d="M 6970 9933 
L 3373 -1888 
L 3104 -1888 
L 1626 2918 
Q 1555 3149 1465 3251 
Q 1376 3354 1229 3354 
Q 1011 3354 794 3181 
L 717 3309 
L 1766 4115 
L 1926 4115 
L 3379 -602 
L 3405 -602 
L 6605 9933 
L 6970 9933 
z
" transform="scale(0.015625)"/>
       <path id="DejaVuSans-73" d="M 2834 3397 
L 2834 2853 
Q 2591 2978 2328 3040 
Q 2066 3103 1784 3103 
Q 1356 3103 1142 2972 
Q 928 2841 928 2578 
Q 928 2378 1081 2264 
Q 1234 2150 1697 2047 
L 1894 2003 
Q 2506 1872 2764 1633 
Q 3022 1394 3022 966 
Q 3022 478 2636 193 
Q 2250 -91 1575 -91 
Q 1294 -91 989 -36 
Q 684 19 347 128 
L 347 722 
Q 666 556 975 473 
Q 1284 391 1588 391 
Q 1994 391 2212 530 
Q 2431 669 2431 922 
Q 2431 1156 2273 1281 
Q 2116 1406 1581 1522 
L 1381 1569 
Q 847 1681 609 1914 
Q 372 2147 372 2553 
Q 372 3047 722 3315 
Q 1072 3584 1716 3584 
Q 2034 3584 2315 3537 
Q 2597 3491 2834 3397 
z
" transform="scale(0.015625)"/>
       <path id="DejaVuSans-69" d="M 603 3500 
L 1178 3500 
L 1178 0 
L 603 0 
L 603 3500 
z
M 603 4863 
L 1178 4863 
L 1178 4134 
L 603 4134 
L 603 4863 
z
" transform="scale(0.015625)"/>
       <path id="DejaVuSans-6e" d="M 3513 2113 
L 3513 0 
L 2938 0 
L 2938 2094 
Q 2938 2591 2744 2837 
Q 2550 3084 2163 3084 
Q 1697 3084 1428 2787 
Q 1159 2491 1159 1978 
L 1159 0 
L 581 0 
L 581 3500 
L 1159 3500 
L 1159 2956 
Q 1366 3272 1645 3428 
Q 1925 3584 2291 3584 
Q 2894 3584 3203 3211 
Q 3513 2838 3513 2113 
z
" transform="scale(0.015625)"/>
      </defs>
      <use xlink:href="#DejaVuSans-Oblique-78" transform="translate(0 0.765625)"/>
      <use xlink:href="#DejaVuSans-3d" transform="translate(78.662109 0.765625)"/>
      <use xlink:href="#DejaVuSans-34" transform="translate(181.933594 0.765625)"/>
      <use xlink:href="#STIXSizeOneSym-Regular-221a" transform="translate(245.556641 0.421875)scale(0.693173)"/>
      <use xlink:href="#DejaVuSans-73" transform="translate(331.319962 0.765625)"/>
      <use xlink:href="#DejaVuSans-69" transform="translate(383.419571 0.765625)"/>
      <use xlink:href="#DejaVuSans-6e" transform="translate(411.202774 0.765625)"/>
      <use xlink:href="#DejaVuSans-Oblique-79" transform="translate(490.817357 0.765625)"/>
      <path d="M 318.819962 101.5 
L 318.819962 107.75 
L 562.497044 107.75 
L 562.497044 101.5 
L 318.819962 101.5 
z
"/>
     </g>
    </g>
   </g>
  </g>
 </g>
 <defs>
  <clipPath id="p4d1d654cdc">
   <rect x="43.78125" y="7.2" width="334.8" height="332.64"/>
  </clipPath>
 </defs>
</svg>
