<?xml version="1.0" encoding="utf-8" standalone="no"?>
<!DOCTYPE svg PUBLIC "-//W3C//DTD SVG 1.1//EN"
  "http://www.w3.org/Graphics/SVG/1.1/DTD/svg11.dtd">
<svg xmlns:xlink="http://www.w3.org/1999/xlink" width="503.645pt" height="495.598125pt" viewBox="0 0 503.645 495.598125" xmlns="http://www.w3.org/2000/svg" version="1.1">
 <metadata>
  <rdf:RDF xmlns:dc="http://purl.org/dc/elements/1.1/" xmlns:cc="http://creativecommons.org/ns#" xmlns:rdf="http://www.w3.org/1999/02/22-rdf-syntax-ns#">
   <cc:Work>
    <dc:type rdf:resource="http://purl.org/dc/dcmitype/StillImage"/>
    <dc:date>2023-12-09T22:35:44.371984</dc:date>
    <dc:format>image/svg+xml</dc:format>
    <dc:creator>
     <cc:Agent>
      <dc:title>Matplotlib v3.5.2, https://matplotlib.org/</dc:title>
     </cc:Agent>
    </dc:creator>
   </cc:Work>
  </rdf:RDF>
 </metadata>
 <defs>
  <style type="text/css">*{stroke-linejoin: round; stroke-linecap: butt}</style>
 </defs>
 <g id="figure_1">
  <g id="patch_1">
   <path d="M 0 495.598125 
L 503.645 495.598125 
L 503.645 0 
L 0 0 
z
" style="fill: #ffffff"/>
  </g>
  <g id="axes_1">
   <g id="patch_2">
    <path d="M 476.76375 247.799062 
C 476.76375 218.677806 471.027497 189.839717 459.883275 162.935185 
C 448.739053 136.030652 432.403588 111.582901 411.81175 90.991063 
C 391.219912 70.399225 366.772161 54.06376 339.867628 42.919537 
C 312.963095 31.775315 284.125006 26.039062 255.00375 26.039062 
C 225.882494 26.039062 197.044405 31.775315 170.139872 42.919537 
C 143.235339 54.06376 118.787588 70.399225 98.19575 90.991063 
C 77.603912 111.582901 61.268447 136.030652 50.124225 162.935185 
C 38.980003 189.839717 33.24375 218.677806 33.24375 247.799062 
C 33.24375 276.920319 38.980003 305.758408 50.124225 332.66294 
C 61.268447 359.567473 77.603912 384.015224 98.19575 404.607062 
C 118.787588 425.1989 143.235339 441.534365 170.139872 452.678588 
C 197.044405 463.82281 225.882494 469.559062 255.00375 469.559062 
C 284.125006 469.559062 312.963095 463.82281 339.867628 452.678588 
C 366.772161 441.534365 391.219912 425.1989 411.81175 404.607062 
C 432.403588 384.015224 448.739053 359.567473 459.883275 332.66294 
C 471.027497 305.758408 476.76375 276.920319 476.76375 247.799062 
M 255.00375 247.799062 
C 255.00375 247.799062 255.00375 247.799062 255.00375 247.799062 
C 255.00375 247.799062 255.00375 247.799062 255.00375 247.799062 
C 255.00375 247.799062 255.00375 247.799062 255.00375 247.799062 
C 255.00375 247.799062 255.00375 247.799062 255.00375 247.799062 
C 255.00375 247.799062 255.00375 247.799062 255.00375 247.799062 
C 255.00375 247.799062 255.00375 247.799062 255.00375 247.799062 
C 255.00375 247.799062 255.00375 247.799062 255.00375 247.799062 
C 255.00375 247.799062 255.00375 247.799062 255.00375 247.799062 
C 255.00375 247.799062 255.00375 247.799062 255.00375 247.799062 
C 255.00375 247.799062 255.00375 247.799062 255.00375 247.799062 
C 255.00375 247.799062 255.00375 247.799062 255.00375 247.799062 
C 255.00375 247.799062 255.00375 247.799062 255.00375 247.799062 
C 255.00375 247.799062 255.00375 247.799062 255.00375 247.799062 
C 255.00375 247.799062 255.00375 247.799062 255.00375 247.799062 
C 255.00375 247.799062 255.00375 247.799062 255.00375 247.799062 
C 255.00375 247.799062 255.00375 247.799062 255.00375 247.799062 
M 476.76375 247.799062 
z
" style="fill: #ffffff"/>
   </g>
   <g id="matplotlib.axis_1">
    <g id="xtick_1">
     <g id="line2d_1">
      <path d="M 255.00375 247.799062 
L 476.76375 247.799062 
" clip-path="url(#p0e7f84c0d6)" style="fill: none; stroke: #b0b0b0; stroke-width: 0.8; stroke-linecap: square"/>
     </g>
     <g id="text_1">
      <!-- 0° -->
      <g transform="translate(485.0825 250.558437)scale(0.1 -0.1)">
       <defs>
        <path id="DejaVuSans-30" d="M 2034 4250 
Q 1547 4250 1301 3770 
Q 1056 3291 1056 2328 
Q 1056 1369 1301 889 
Q 1547 409 2034 409 
Q 2525 409 2770 889 
Q 3016 1369 3016 2328 
Q 3016 3291 2770 3770 
Q 2525 4250 2034 4250 
z
M 2034 4750 
Q 2819 4750 3233 4129 
Q 3647 3509 3647 2328 
Q 3647 1150 3233 529 
Q 2819 -91 2034 -91 
Q 1250 -91 836 529 
Q 422 1150 422 2328 
Q 422 3509 836 4129 
Q 1250 4750 2034 4750 
z
" transform="scale(0.015625)"/>
        <path id="DejaVuSans-b0" d="M 1600 4347 
Q 1350 4347 1178 4173 
Q 1006 4000 1006 3750 
Q 1006 3503 1178 3333 
Q 1350 3163 1600 3163 
Q 1850 3163 2022 3333 
Q 2194 3503 2194 3750 
Q 2194 3997 2020 4172 
Q 1847 4347 1600 4347 
z
M 1600 4750 
Q 1800 4750 1984 4673 
Q 2169 4597 2303 4453 
Q 2447 4313 2519 4134 
Q 2591 3956 2591 3750 
Q 2591 3338 2302 3052 
Q 2013 2766 1594 2766 
Q 1172 2766 890 3047 
Q 609 3328 609 3750 
Q 609 4169 896 4459 
Q 1184 4750 1600 4750 
z
" transform="scale(0.015625)"/>
       </defs>
       <use xlink:href="#DejaVuSans-30"/>
       <use xlink:href="#DejaVuSans-b0" x="63.623047"/>
      </g>
     </g>
    </g>
    <g id="xtick_2">
     <g id="line2d_2">
      <path d="M 255.00375 247.799062 
L 411.81175 90.991063 
" clip-path="url(#p0e7f84c0d6)" style="fill: none; stroke: #b0b0b0; stroke-width: 0.8; stroke-linecap: square"/>
     </g>
     <g id="text_2">
      <!-- 45° -->
      <g transform="translate(412.848745 83.850943)scale(0.1 -0.1)">
       <defs>
        <path id="DejaVuSans-34" d="M 2419 4116 
L 825 1625 
L 2419 1625 
L 2419 4116 
z
M 2253 4666 
L 3047 4666 
L 3047 1625 
L 3713 1625 
L 3713 1100 
L 3047 1100 
L 3047 0 
L 2419 0 
L 2419 1100 
L 313 1100 
L 313 1709 
L 2253 4666 
z
" transform="scale(0.015625)"/>
        <path id="DejaVuSans-35" d="M 691 4666 
L 3169 4666 
L 3169 4134 
L 1269 4134 
L 1269 2991 
Q 1406 3038 1543 3061 
Q 1681 3084 1819 3084 
Q 2600 3084 3056 2656 
Q 3513 2228 3513 1497 
Q 3513 744 3044 326 
Q 2575 -91 1722 -91 
Q 1428 -91 1123 -41 
Q 819 9 494 109 
L 494 744 
Q 775 591 1075 516 
Q 1375 441 1709 441 
Q 2250 441 2565 725 
Q 2881 1009 2881 1497 
Q 2881 1984 2565 2268 
Q 2250 2553 1709 2553 
Q 1456 2553 1204 2497 
Q 953 2441 691 2322 
L 691 4666 
z
" transform="scale(0.015625)"/>
       </defs>
       <use xlink:href="#DejaVuSans-34"/>
       <use xlink:href="#DejaVuSans-35" x="63.623047"/>
       <use xlink:href="#DejaVuSans-b0" x="127.246094"/>
      </g>
     </g>
    </g>
    <g id="xtick_3">
     <g id="line2d_3">
      <path d="M 255.00375 247.799062 
L 255.00375 26.039062 
" clip-path="url(#p0e7f84c0d6)" style="fill: none; stroke: #b0b0b0; stroke-width: 0.8; stroke-linecap: square"/>
     </g>
     <g id="text_3">
      <!-- 90° -->
      <g transform="translate(246.14125 14.798437)scale(0.1 -0.1)">
       <defs>
        <path id="DejaVuSans-39" d="M 703 97 
L 703 672 
Q 941 559 1184 500 
Q 1428 441 1663 441 
Q 2288 441 2617 861 
Q 2947 1281 2994 2138 
Q 2813 1869 2534 1725 
Q 2256 1581 1919 1581 
Q 1219 1581 811 2004 
Q 403 2428 403 3163 
Q 403 3881 828 4315 
Q 1253 4750 1959 4750 
Q 2769 4750 3195 4129 
Q 3622 3509 3622 2328 
Q 3622 1225 3098 567 
Q 2575 -91 1691 -91 
Q 1453 -91 1209 -44 
Q 966 3 703 97 
z
M 1959 2075 
Q 2384 2075 2632 2365 
Q 2881 2656 2881 3163 
Q 2881 3666 2632 3958 
Q 2384 4250 1959 4250 
Q 1534 4250 1286 3958 
Q 1038 3666 1038 3163 
Q 1038 2656 1286 2365 
Q 1534 2075 1959 2075 
z
" transform="scale(0.015625)"/>
       </defs>
       <use xlink:href="#DejaVuSans-39"/>
       <use xlink:href="#DejaVuSans-30" x="63.623047"/>
       <use xlink:href="#DejaVuSans-b0" x="127.246094"/>
      </g>
     </g>
    </g>
    <g id="xtick_4">
     <g id="line2d_4">
      <path d="M 255.00375 247.799062 
L 98.19575 90.991063 
" clip-path="url(#p0e7f84c0d6)" style="fill: none; stroke: #b0b0b0; stroke-width: 0.8; stroke-linecap: square"/>
     </g>
     <g id="text_4">
      <!-- 135° -->
      <g transform="translate(76.252505 83.850943)scale(0.1 -0.1)">
       <defs>
        <path id="DejaVuSans-31" d="M 794 531 
L 1825 531 
L 1825 4091 
L 703 3866 
L 703 4441 
L 1819 4666 
L 2450 4666 
L 2450 531 
L 3481 531 
L 3481 0 
L 794 0 
L 794 531 
z
" transform="scale(0.015625)"/>
        <path id="DejaVuSans-33" d="M 2597 2516 
Q 3050 2419 3304 2112 
Q 3559 1806 3559 1356 
Q 3559 666 3084 287 
Q 2609 -91 1734 -91 
Q 1441 -91 1130 -33 
Q 819 25 488 141 
L 488 750 
Q 750 597 1062 519 
Q 1375 441 1716 441 
Q 2309 441 2620 675 
Q 2931 909 2931 1356 
Q 2931 1769 2642 2001 
Q 2353 2234 1838 2234 
L 1294 2234 
L 1294 2753 
L 1863 2753 
Q 2328 2753 2575 2939 
Q 2822 3125 2822 3475 
Q 2822 3834 2567 4026 
Q 2313 4219 1838 4219 
Q 1578 4219 1281 4162 
Q 984 4106 628 3988 
L 628 4550 
Q 988 4650 1302 4700 
Q 1616 4750 1894 4750 
Q 2613 4750 3031 4423 
Q 3450 4097 3450 3541 
Q 3450 3153 3228 2886 
Q 3006 2619 2597 2516 
z
" transform="scale(0.015625)"/>
       </defs>
       <use xlink:href="#DejaVuSans-31"/>
       <use xlink:href="#DejaVuSans-33" x="63.623047"/>
       <use xlink:href="#DejaVuSans-35" x="127.246094"/>
       <use xlink:href="#DejaVuSans-b0" x="190.869141"/>
      </g>
     </g>
    </g>
    <g id="xtick_5">
     <g id="line2d_5">
      <path d="M 255.00375 247.799062 
L 33.24375 247.799062 
" clip-path="url(#p0e7f84c0d6)" style="fill: none; stroke: #b0b0b0; stroke-width: 0.8; stroke-linecap: square"/>
     </g>
     <g id="text_5">
      <!-- 180° -->
      <g transform="translate(7.2 250.558437)scale(0.1 -0.1)">
       <defs>
        <path id="DejaVuSans-38" d="M 2034 2216 
Q 1584 2216 1326 1975 
Q 1069 1734 1069 1313 
Q 1069 891 1326 650 
Q 1584 409 2034 409 
Q 2484 409 2743 651 
Q 3003 894 3003 1313 
Q 3003 1734 2745 1975 
Q 2488 2216 2034 2216 
z
M 1403 2484 
Q 997 2584 770 2862 
Q 544 3141 544 3541 
Q 544 4100 942 4425 
Q 1341 4750 2034 4750 
Q 2731 4750 3128 4425 
Q 3525 4100 3525 3541 
Q 3525 3141 3298 2862 
Q 3072 2584 2669 2484 
Q 3125 2378 3379 2068 
Q 3634 1759 3634 1313 
Q 3634 634 3220 271 
Q 2806 -91 2034 -91 
Q 1263 -91 848 271 
Q 434 634 434 1313 
Q 434 1759 690 2068 
Q 947 2378 1403 2484 
z
M 1172 3481 
Q 1172 3119 1398 2916 
Q 1625 2713 2034 2713 
Q 2441 2713 2670 2916 
Q 2900 3119 2900 3481 
Q 2900 3844 2670 4047 
Q 2441 4250 2034 4250 
Q 1625 4250 1398 4047 
Q 1172 3844 1172 3481 
z
" transform="scale(0.015625)"/>
       </defs>
       <use xlink:href="#DejaVuSans-31"/>
       <use xlink:href="#DejaVuSans-38" x="63.623047"/>
       <use xlink:href="#DejaVuSans-30" x="127.246094"/>
       <use xlink:href="#DejaVuSans-b0" x="190.869141"/>
      </g>
     </g>
    </g>
    <g id="xtick_6">
     <g id="line2d_6">
      <path d="M 255.00375 247.799062 
L 98.19575 404.607062 
" clip-path="url(#p0e7f84c0d6)" style="fill: none; stroke: #b0b0b0; stroke-width: 0.8; stroke-linecap: square"/>
     </g>
     <g id="text_6">
      <!-- 225° -->
      <g transform="translate(76.252505 417.265932)scale(0.1 -0.1)">
       <defs>
        <path id="DejaVuSans-32" d="M 1228 531 
L 3431 531 
L 3431 0 
L 469 0 
L 469 531 
Q 828 903 1448 1529 
Q 2069 2156 2228 2338 
Q 2531 2678 2651 2914 
Q 2772 3150 2772 3378 
Q 2772 3750 2511 3984 
Q 2250 4219 1831 4219 
Q 1534 4219 1204 4116 
Q 875 4013 500 3803 
L 500 4441 
Q 881 4594 1212 4672 
Q 1544 4750 1819 4750 
Q 2544 4750 2975 4387 
Q 3406 4025 3406 3419 
Q 3406 3131 3298 2873 
Q 3191 2616 2906 2266 
Q 2828 2175 2409 1742 
Q 1991 1309 1228 531 
z
" transform="scale(0.015625)"/>
       </defs>
       <use xlink:href="#DejaVuSans-32"/>
       <use xlink:href="#DejaVuSans-32" x="63.623047"/>
       <use xlink:href="#DejaVuSans-35" x="127.246094"/>
       <use xlink:href="#DejaVuSans-b0" x="190.869141"/>
      </g>
     </g>
    </g>
    <g id="xtick_7">
     <g id="line2d_7">
      <path d="M 255.00375 247.799062 
L 255.00375 469.559062 
" clip-path="url(#p0e7f84c0d6)" style="fill: none; stroke: #b0b0b0; stroke-width: 0.8; stroke-linecap: square"/>
     </g>
     <g id="text_7">
      <!-- 270° -->
      <g transform="translate(242.96 486.318437)scale(0.1 -0.1)">
       <defs>
        <path id="DejaVuSans-37" d="M 525 4666 
L 3525 4666 
L 3525 4397 
L 1831 0 
L 1172 0 
L 2766 4134 
L 525 4134 
L 525 4666 
z
" transform="scale(0.015625)"/>
       </defs>
       <use xlink:href="#DejaVuSans-32"/>
       <use xlink:href="#DejaVuSans-37" x="63.623047"/>
       <use xlink:href="#DejaVuSans-30" x="127.246094"/>
       <use xlink:href="#DejaVuSans-b0" x="190.869141"/>
      </g>
     </g>
    </g>
    <g id="xtick_8">
     <g id="line2d_8">
      <path d="M 255.00375 247.799062 
L 411.81175 404.607062 
" clip-path="url(#p0e7f84c0d6)" style="fill: none; stroke: #b0b0b0; stroke-width: 0.8; stroke-linecap: square"/>
     </g>
     <g id="text_8">
      <!-- 315° -->
      <g transform="translate(409.667495 417.265932)scale(0.1 -0.1)">
       <use xlink:href="#DejaVuSans-33"/>
       <use xlink:href="#DejaVuSans-31" x="63.623047"/>
       <use xlink:href="#DejaVuSans-35" x="127.246094"/>
       <use xlink:href="#DejaVuSans-b0" x="190.869141"/>
      </g>
     </g>
    </g>
   </g>
   <g id="matplotlib.axis_2">
    <g id="ytick_1">
     <g id="line2d_9">
      <path d="M 288.617274 247.799062 
C 288.617274 243.384975 287.747795 239.013809 286.058597 234.935724 
C 284.369399 230.857639 281.893332 227.151943 278.772101 224.030712 
C 275.65087 220.909481 271.945174 218.433414 267.867089 216.744216 
C 263.789004 215.055018 259.417838 214.185539 255.00375 214.185539 
C 250.589662 214.185539 246.218496 215.055018 242.140411 216.744216 
C 238.062326 218.433414 234.35663 220.909481 231.235399 224.030712 
C 228.114168 227.151943 225.638101 230.857639 223.948903 234.935724 
C 222.259705 239.013809 221.390226 243.384975 221.390226 247.799062 
C 221.390226 252.21315 222.259705 256.584316 223.948903 260.662401 
C 225.638101 264.740486 228.114168 268.446182 231.235399 271.567413 
C 234.35663 274.688644 238.062326 277.164711 242.140411 278.853909 
C 246.218496 280.543107 250.589662 281.412586 255.00375 281.412586 
C 259.417838 281.412586 263.789004 280.543107 267.867089 278.853909 
C 271.945174 277.164711 275.65087 274.688644 278.772101 271.567413 
C 281.893332 268.446182 284.369399 264.740486 286.058597 260.662401 
C 287.747795 256.584316 288.617274 252.21315 288.617274 247.799062 
" clip-path="url(#p0e7f84c0d6)" style="fill: none; stroke: #b0b0b0; stroke-width: 0.8; stroke-linecap: square"/>
     </g>
     <g id="text_9">
      <!-- 2 -->
      <g transform="translate(286.058597 232.856036)scale(0.1 -0.1)">
       <use xlink:href="#DejaVuSans-32"/>
      </g>
     </g>
    </g>
    <g id="ytick_2">
     <g id="line2d_10">
      <path d="M 322.230798 247.799062 
C 322.230798 238.970887 320.49184 230.228555 317.113444 222.072385 
C 313.735047 213.916215 308.782914 206.504823 302.540451 200.262361 
C 296.297989 194.019899 288.886598 189.067765 280.730427 185.689369 
C 272.574257 182.310973 263.831925 180.572015 255.00375 180.572015 
C 246.175575 180.572015 237.433243 182.310973 229.277073 185.689369 
C 221.120902 189.067765 213.709511 194.019899 207.467049 200.262361 
C 201.224586 206.504823 196.272453 213.916215 192.894056 222.072385 
C 189.51566 230.228555 187.776702 238.970887 187.776702 247.799062 
C 187.776702 256.627238 189.51566 265.36957 192.894056 273.52574 
C 196.272453 281.68191 201.224586 289.093302 207.467049 295.335764 
C 213.709511 301.578226 221.120902 306.53036 229.277073 309.908756 
C 237.433243 313.287152 246.175575 315.02611 255.00375 315.02611 
C 263.831925 315.02611 272.574257 313.287152 280.730427 309.908756 
C 288.886598 306.53036 296.297989 301.578226 302.540451 295.335764 
C 308.782914 289.093302 313.735047 281.68191 317.113444 273.52574 
C 320.49184 265.36957 322.230798 256.627238 322.230798 247.799062 
" clip-path="url(#p0e7f84c0d6)" style="fill: none; stroke: #b0b0b0; stroke-width: 0.8; stroke-linecap: square"/>
     </g>
     <g id="text_10">
      <!-- 4 -->
      <g transform="translate(317.113444 219.992698)scale(0.1 -0.1)">
       <use xlink:href="#DejaVuSans-34"/>
      </g>
     </g>
    </g>
    <g id="ytick_3">
     <g id="line2d_11">
      <path d="M 355.844322 247.799062 
C 355.844322 234.5568 353.235885 221.443302 348.16829 209.209046 
C 343.100696 196.974791 335.672496 185.857704 326.308802 176.49401 
C 316.945109 167.130317 305.828022 159.702117 293.593766 154.634522 
C 281.359511 149.566928 268.246013 146.958491 255.00375 146.958491 
C 241.761487 146.958491 228.647989 149.566928 216.413734 154.634522 
C 204.179478 159.702117 193.062391 167.130317 183.698698 176.49401 
C 174.335004 185.857704 166.906804 196.974791 161.83921 209.209046 
C 156.771615 221.443302 154.163178 234.5568 154.163178 247.799062 
C 154.163178 261.041325 156.771615 274.154823 161.83921 286.389079 
C 166.906804 298.623334 174.335004 309.740421 183.698698 319.104115 
C 193.062391 328.467808 204.179478 335.896008 216.413734 340.963603 
C 228.647989 346.031197 241.761487 348.639634 255.00375 348.639634 
C 268.246013 348.639634 281.359511 346.031197 293.593766 340.963603 
C 305.828022 335.896008 316.945109 328.467808 326.308802 319.104115 
C 335.672496 309.740421 343.100696 298.623334 348.16829 286.389079 
C 353.235885 274.154823 355.844322 261.041325 355.844322 247.799062 
" clip-path="url(#p0e7f84c0d6)" style="fill: none; stroke: #b0b0b0; stroke-width: 0.8; stroke-linecap: square"/>
     </g>
     <g id="text_11">
      <!-- 6 -->
      <g transform="translate(348.16829 207.129359)scale(0.1 -0.1)">
       <defs>
        <path id="DejaVuSans-36" d="M 2113 2584 
Q 1688 2584 1439 2293 
Q 1191 2003 1191 1497 
Q 1191 994 1439 701 
Q 1688 409 2113 409 
Q 2538 409 2786 701 
Q 3034 994 3034 1497 
Q 3034 2003 2786 2293 
Q 2538 2584 2113 2584 
z
M 3366 4563 
L 3366 3988 
Q 3128 4100 2886 4159 
Q 2644 4219 2406 4219 
Q 1781 4219 1451 3797 
Q 1122 3375 1075 2522 
Q 1259 2794 1537 2939 
Q 1816 3084 2150 3084 
Q 2853 3084 3261 2657 
Q 3669 2231 3669 1497 
Q 3669 778 3244 343 
Q 2819 -91 2113 -91 
Q 1303 -91 875 529 
Q 447 1150 447 2328 
Q 447 3434 972 4092 
Q 1497 4750 2381 4750 
Q 2619 4750 2861 4703 
Q 3103 4656 3366 4563 
z
" transform="scale(0.015625)"/>
       </defs>
       <use xlink:href="#DejaVuSans-36"/>
      </g>
     </g>
    </g>
    <g id="ytick_4">
     <g id="line2d_12">
      <path d="M 389.457846 247.799062 
C 389.457846 230.142712 385.97993 212.658048 379.223137 196.345708 
C 372.466345 180.033367 362.562078 165.210584 350.077153 152.72566 
C 337.592228 140.240735 322.769445 130.336468 306.457105 123.579675 
C 290.144764 116.822883 272.6601 113.344967 255.00375 113.344967 
C 237.3474 113.344967 219.862736 116.822883 203.550395 123.579675 
C 187.238055 130.336468 172.415272 140.240735 159.930347 152.72566 
C 147.445422 165.210584 137.541155 180.033367 130.784363 196.345708 
C 124.02757 212.658048 120.549654 230.142712 120.549654 247.799062 
C 120.549654 265.455413 124.02757 282.940077 130.784363 299.252417 
C 137.541155 315.564758 147.445422 330.387541 159.930347 342.872465 
C 172.415272 355.35739 187.238055 365.261657 203.550395 372.01845 
C 219.862736 378.775242 237.3474 382.253158 255.00375 382.253158 
C 272.6601 382.253158 290.144764 378.775242 306.457105 372.01845 
C 322.769445 365.261657 337.592228 355.35739 350.077153 342.872465 
C 362.562078 330.387541 372.466345 315.564758 379.223137 299.252417 
C 385.97993 282.940077 389.457846 265.455413 389.457846 247.799062 
" clip-path="url(#p0e7f84c0d6)" style="fill: none; stroke: #b0b0b0; stroke-width: 0.8; stroke-linecap: square"/>
     </g>
     <g id="text_12">
      <!-- 8 -->
      <g transform="translate(379.223137 194.26602)scale(0.1 -0.1)">
       <use xlink:href="#DejaVuSans-38"/>
      </g>
     </g>
    </g>
    <g id="ytick_5">
     <g id="line2d_13">
      <path d="M 423.07137 247.799062 
C 423.07137 225.728625 418.723975 203.872794 410.277984 183.482369 
C 401.831993 163.091943 389.45166 144.563465 373.845504 128.957309 
C 358.239348 113.351153 339.710869 100.970819 319.320444 92.524828 
C 298.930018 84.078838 277.074188 79.731443 255.00375 79.731443 
C 232.933312 79.731443 211.077482 84.078838 190.687056 92.524828 
C 170.296631 100.970819 151.768152 113.351153 136.161996 128.957309 
C 120.55584 144.563465 108.175507 163.091943 99.729516 183.482369 
C 91.283525 203.872794 86.93613 225.728625 86.93613 247.799062 
C 86.93613 269.8695 91.283525 291.725331 99.729516 312.115756 
C 108.175507 332.506182 120.55584 351.03466 136.161996 366.640816 
C 151.768152 382.246972 170.296631 394.627306 190.687056 403.073297 
C 211.077482 411.519287 232.933312 415.866682 255.00375 415.866682 
C 277.074188 415.866682 298.930018 411.519287 319.320444 403.073297 
C 339.710869 394.627306 358.239348 382.246972 373.845504 366.640816 
C 389.45166 351.03466 401.831993 332.506182 410.277984 312.115756 
C 418.723975 291.725331 423.07137 269.8695 423.07137 247.799062 
" clip-path="url(#p0e7f84c0d6)" style="fill: none; stroke: #b0b0b0; stroke-width: 0.8; stroke-linecap: square"/>
     </g>
     <g id="text_13">
      <!-- 10 -->
      <g transform="translate(410.277984 181.402681)scale(0.1 -0.1)">
       <use xlink:href="#DejaVuSans-31"/>
       <use xlink:href="#DejaVuSans-30" x="63.623047"/>
      </g>
     </g>
    </g>
    <g id="ytick_6">
     <g id="line2d_14">
      <path d="M 456.684894 247.799062 
C 456.684894 221.314537 451.46802 195.087541 441.332831 170.61903 
C 431.197642 146.150519 416.341242 123.916345 397.613854 105.188958 
C 378.886467 86.461571 356.652293 71.605171 332.183782 61.469982 
C 307.715272 51.334793 281.488275 46.117919 255.00375 46.117919 
C 228.519225 46.117919 202.292228 51.334793 177.823718 61.469982 
C 153.355207 71.605171 131.121033 86.461571 112.393646 105.188958 
C 93.666258 123.916345 78.809858 146.150519 68.674669 170.61903 
C 58.53948 195.087541 53.322606 221.314537 53.322606 247.799062 
C 53.322606 274.283588 58.53948 300.510584 68.674669 324.979095 
C 78.809858 349.447606 93.666258 371.68178 112.393646 390.409167 
C 131.121033 409.136554 153.355207 423.992954 177.823718 434.128143 
C 202.292228 444.263332 228.519225 449.480206 255.00375 449.480206 
C 281.488275 449.480206 307.715272 444.263332 332.183782 434.128143 
C 356.652293 423.992954 378.886467 409.136554 397.613854 390.409167 
C 416.341242 371.68178 431.197642 349.447606 441.332831 324.979095 
C 451.46802 300.510584 456.684894 274.283588 456.684894 247.799062 
" clip-path="url(#p0e7f84c0d6)" style="fill: none; stroke: #b0b0b0; stroke-width: 0.8; stroke-linecap: square"/>
     </g>
     <g id="text_14">
      <!-- 12 -->
      <g transform="translate(441.332831 168.539343)scale(0.1 -0.1)">
       <use xlink:href="#DejaVuSans-31"/>
       <use xlink:href="#DejaVuSans-32" x="63.623047"/>
      </g>
     </g>
    </g>
   </g>
   <g id="line2d_15">
    <path d="M 255.00375 247.799062 
L 256.903405 247.691417 
L 258.784795 247.36917 
L 260.629752 246.834388 
L 262.420303 246.090501 
L 264.138765 245.142291 
L 265.767843 243.995867 
L 267.290718 242.658632 
L 268.691142 241.139253 
L 269.953527 239.447616 
L 271.063027 237.59478 
L 272.005622 235.59292 
L 272.768199 233.455272 
L 273.33862 231.196068 
L 273.7058 228.830464 
L 273.859764 226.374469 
L 273.791713 223.844867 
L 273.494078 221.259131 
L 272.960566 218.63534 
L 272.186206 215.992091 
L 271.167387 213.348404 
L 269.901886 210.723626 
L 268.388895 208.13734 
L 266.62904 205.60926 
L 264.62439 203.159135 
L 262.378464 200.806647 
L 260.183513 198.813297 
L 257.80627 196.926047 
L 255.252064 195.158207 
L 252.527107 193.522805 
L 249.63847 192.03254 
L 246.594069 190.69972 
L 243.402644 189.536216 
L 240.073734 188.553407 
L 236.617646 187.762128 
L 233.045427 187.172629 
L 229.368831 186.794519 
L 225.600279 186.636727 
L 221.752825 186.707457 
L 217.840108 187.014149 
L 213.87631 187.563438 
L 209.876112 188.361122 
L 205.854642 189.412127 
L 201.827424 190.720477 
L 197.810326 192.289268 
L 194.316363 193.877311 
L 190.853489 195.667235 
L 187.432786 197.659283 
L 184.06541 199.853113 
L 180.762568 202.247789 
L 177.535482 204.841775 
L 174.395357 207.632935 
L 171.353355 210.61853 
L 168.420559 213.795218 
L 165.607944 217.159055 
L 162.926341 220.7055 
L 160.386414 224.429421 
L 157.99862 228.325096 
L 155.773183 232.38623 
L 153.720062 236.605955 
L 151.848919 240.97685 
L 150.169095 245.490947 
L 148.689574 250.139752 
L 147.418957 254.914253 
L 146.365437 259.804947 
L 145.536767 264.80185 
L 144.940237 269.894524 
L 144.582651 275.072094 
L 144.470297 280.323273 
L 144.608929 285.636388 
L 145.003742 290.999401 
L 145.659354 296.399943 
L 146.431945 301.049243 
L 147.40128 305.708655 
L 148.569188 310.369892 
L 149.937156 315.024545 
L 151.506314 319.664098 
L 153.277432 324.279942 
L 155.250915 328.863388 
L 157.4268 333.405685 
L 159.804746 337.898036 
L 162.384039 342.331611 
L 165.16358 346.697564 
L 168.141891 350.987054 
L 171.317109 355.191252 
L 174.686985 359.301367 
L 178.248888 363.308655 
L 181.9998 367.204441 
L 185.936322 370.980133 
L 190.054675 374.627237 
L 194.350701 378.137377 
L 198.819869 381.50231 
L 203.457276 384.713943 
L 208.257656 387.764346 
L 213.215381 390.645773 
L 218.324472 393.350674 
L 223.578602 395.871713 
L 228.971107 398.201781 
L 234.49499 400.334015 
L 240.142935 402.261808 
L 245.907315 403.978828 
L 251.780197 405.479028 
L 257.753364 406.756665 
L 263.818314 407.806306 
L 269.966281 408.622847 
L 276.188245 409.201526 
L 282.474944 409.537927 
L 288.816888 409.628001 
L 295.204376 409.468071 
L 301.627506 409.054843 
L 308.076197 408.385418 
L 314.540196 407.4573 
L 321.009102 406.268403 
L 327.472378 404.817059 
L 333.919371 403.102028 
L 340.339324 401.122502 
L 346.7214 398.878111 
L 353.054696 396.36893 
L 358.287281 394.076036 
L 363.472035 391.600156 
L 368.602597 388.942047 
L 373.672609 386.102691 
L 378.675723 383.083286 
L 383.605605 379.885255 
L 388.455944 376.510239 
L 393.220465 372.960101 
L 397.892927 369.236924 
L 402.46714 365.343012 
L 406.936965 361.280886 
L 411.296329 357.053286 
L 415.539227 352.663169 
L 419.65973 348.113705 
L 423.651997 343.408277 
L 427.510277 338.550479 
L 431.228922 333.544113 
L 434.802388 328.393184 
L 438.225249 323.101903 
L 441.4922 317.674675 
L 444.598063 312.116104 
L 447.537799 306.430984 
L 450.306512 300.624297 
L 452.899453 294.701206 
L 455.312035 288.667055 
L 457.539828 282.527361 
L 459.578576 276.287809 
L 461.424198 269.954249 
L 463.072794 263.532688 
L 464.520651 257.029286 
L 465.764252 250.450348 
L 466.20375 247.799062 
L 466.20375 247.799062 
" clip-path="url(#p0e7f84c0d6)" style="fill: none; stroke: #1f77b4; stroke-width: 1.5; stroke-linecap: square"/>
   </g>
   <g id="line2d_16">
    <path d="M 255.00375 247.799062 
L 218.329255 455.79046 
" clip-path="url(#p0e7f84c0d6)" style="fill: none; stroke-dasharray: 5.55,2.4; stroke-dashoffset: 0; stroke: #ffa500; stroke-opacity: 0.5; stroke-width: 1.5"/>
   </g>
   <g id="line2d_17">
    <path d="M 255.00375 247.799062 
L 291.678245 455.79046 
" clip-path="url(#p0e7f84c0d6)" style="fill: none; stroke-dasharray: 5.55,2.4; stroke-dashoffset: 0; stroke: #008000; stroke-opacity: 0.5; stroke-width: 1.5"/>
   </g>
   <g id="line2d_18">
    <defs>
     <path id="m8d830e62fb" d="M 0 3 
C 0.795609 3 1.55874 2.683901 2.12132 2.12132 
C 2.683901 1.55874 3 0.795609 3 0 
C 3 -0.795609 2.683901 -1.55874 2.12132 -2.12132 
C 1.55874 -2.683901 0.795609 -3 0 -3 
C -0.795609 -3 -1.55874 -2.683901 -2.12132 -2.12132 
C -2.683901 -1.55874 -3 -0.795609 -3 0 
C -3 0.795609 -2.683901 1.55874 -2.12132 2.12132 
C -1.55874 2.683901 -0.795609 3 0 3 
z
" style="stroke: #ff0000"/>
    </defs>
    <g clip-path="url(#p0e7f84c0d6)">
     <use xlink:href="#m8d830e62fb" x="228.498259" y="398.119172" style="fill: #ff0000; stroke: #ff0000"/>
    </g>
   </g>
   <g id="line2d_19">
    <defs>
     <path id="m6ece736fd6" d="M 0 3 
C 0.795609 3 1.55874 2.683901 2.12132 2.12132 
C 2.683901 1.55874 3 0.795609 3 0 
C 3 -0.795609 2.683901 -1.55874 2.12132 -2.12132 
C 1.55874 -2.683901 0.795609 -3 0 -3 
C -0.795609 -3 -1.55874 -2.683901 -2.12132 -2.12132 
C -2.683901 -1.55874 -3 -0.795609 -3 0 
C -3 0.795609 -2.683901 1.55874 -2.12132 2.12132 
C -1.55874 2.683901 -0.795609 3 0 3 
z
" style="stroke: #008000"/>
    </defs>
    <g clip-path="url(#p0e7f84c0d6)">
     <use xlink:href="#m6ece736fd6" x="283.528357" y="409.570149" style="fill: #008000; stroke: #008000"/>
    </g>
   </g>
   <g id="line2d_20">
    <path d="M 228.498259 398.119172 
L 281.509241 398.119172 
" clip-path="url(#p0e7f84c0d6)" style="fill: none; stroke: #ff00ff; stroke-width: 1.5; stroke-linecap: square"/>
   </g>
   <g id="line2d_21">
    <path d="M 281.509241 398.119172 
L 283.528357 409.570149 
" clip-path="url(#p0e7f84c0d6)" style="fill: none; stroke: #00ffff; stroke-width: 1.5; stroke-linecap: square"/>
   </g>
   <g id="line2d_22">
    <path d="M 228.498259 398.119172 
L 283.528357 409.570149 
" clip-path="url(#p0e7f84c0d6)" style="fill: none; stroke: #ff0000; stroke-width: 1.5; stroke-linecap: square"/>
   </g>
   <g id="patch_3">
    <path d="M 476.76375 247.799062 
C 476.76375 218.677806 471.027497 189.839717 459.883275 162.935185 
C 448.739053 136.030652 432.403588 111.582901 411.81175 90.991063 
C 391.219912 70.399225 366.772161 54.06376 339.867628 42.919537 
C 312.963095 31.775315 284.125006 26.039062 255.00375 26.039062 
C 225.882494 26.039062 197.044405 31.775315 170.139872 42.919537 
C 143.235339 54.06376 118.787588 70.399225 98.19575 90.991063 
C 77.603912 111.582901 61.268447 136.030652 50.124225 162.935185 
C 38.980003 189.839717 33.24375 218.677806 33.24375 247.799062 
C 33.24375 276.920319 38.980003 305.758408 50.124225 332.66294 
C 61.268447 359.567473 77.603912 384.015224 98.19575 404.607062 
C 118.787588 425.1989 143.235339 441.534365 170.139872 452.678588 
C 197.044405 463.82281 225.882494 469.559062 255.00375 469.559062 
C 284.125006 469.559062 312.963095 463.82281 339.867628 452.678588 
C 366.772161 441.534365 391.219912 425.1989 411.81175 404.607062 
C 432.403588 384.015224 448.739053 359.567473 459.883275 332.66294 
C 471.027497 305.758408 476.76375 276.920319 476.76375 247.799062 
" style="fill: none; stroke: #000000; stroke-width: 0.8; stroke-linejoin: miter; stroke-linecap: square"/>
   </g>
   <g id="legend_1">
    <g id="patch_4">
     <path d="M 342.16375 101.995312 
L 469.76375 101.995312 
Q 471.76375 101.995312 471.76375 99.995312 
L 471.76375 33.039062 
Q 471.76375 31.039062 469.76375 31.039062 
L 342.16375 31.039062 
Q 340.16375 31.039062 340.16375 33.039062 
L 340.16375 99.995312 
Q 340.16375 101.995312 342.16375 101.995312 
z
" style="fill: #ffffff; opacity: 0.8; stroke: #cccccc; stroke-linejoin: miter"/>
    </g>
    <g id="line2d_23">
     <path d="M 344.16375 39.1375 
L 354.16375 39.1375 
L 364.16375 39.1375 
" style="fill: none; stroke: #1f77b4; stroke-width: 1.5; stroke-linecap: square"/>
    </g>
    <g id="text_15">
     <!-- $r=f(\theta)$ -->
     <g transform="translate(372.16375 42.6375)scale(0.1 -0.1)">
      <defs>
       <path id="DejaVuSans-Oblique-72" d="M 2853 2969 
Q 2766 3016 2653 3041 
Q 2541 3066 2413 3066 
Q 1953 3066 1609 2717 
Q 1266 2369 1153 1784 
L 800 0 
L 225 0 
L 909 3500 
L 1484 3500 
L 1375 2956 
Q 1603 3259 1920 3421 
Q 2238 3584 2597 3584 
Q 2691 3584 2781 3573 
Q 2872 3563 2963 3538 
L 2853 2969 
z
" transform="scale(0.015625)"/>
       <path id="DejaVuSans-3d" d="M 678 2906 
L 4684 2906 
L 4684 2381 
L 678 2381 
L 678 2906 
z
M 678 1631 
L 4684 1631 
L 4684 1100 
L 678 1100 
L 678 1631 
z
" transform="scale(0.015625)"/>
       <path id="DejaVuSans-Oblique-66" d="M 3059 4863 
L 2969 4384 
L 2419 4384 
Q 2106 4384 1964 4261 
Q 1822 4138 1753 3809 
L 1691 3500 
L 2638 3500 
L 2553 3053 
L 1606 3053 
L 1013 0 
L 434 0 
L 1031 3053 
L 481 3053 
L 563 3500 
L 1113 3500 
L 1159 3744 
Q 1278 4363 1576 4613 
Q 1875 4863 2516 4863 
L 3059 4863 
z
" transform="scale(0.015625)"/>
       <path id="DejaVuSans-28" d="M 1984 4856 
Q 1566 4138 1362 3434 
Q 1159 2731 1159 2009 
Q 1159 1288 1364 580 
Q 1569 -128 1984 -844 
L 1484 -844 
Q 1016 -109 783 600 
Q 550 1309 550 2009 
Q 550 2706 781 3412 
Q 1013 4119 1484 4856 
L 1984 4856 
z
" transform="scale(0.015625)"/>
       <path id="DejaVuSans-Oblique-3b8" d="M 2913 2219 
L 925 2219 
Q 791 1284 928 888 
Q 1100 400 1566 400 
Q 2034 400 2391 891 
Q 2703 1322 2913 2219 
z
M 3009 2750 
Q 3094 3638 2984 3950 
Q 2813 4444 2353 4444 
Q 1875 4444 1525 3956 
Q 1250 3563 1034 2750 
L 3009 2750 
z
M 2444 4913 
Q 3194 4913 3494 4250 
Q 3794 3591 3566 2422 
Q 3341 1256 2781 594 
Q 2225 -72 1475 -72 
Q 722 -72 425 594 
Q 128 1256 353 2422 
Q 581 3591 1134 4250 
Q 1691 4913 2444 4913 
z
" transform="scale(0.015625)"/>
       <path id="DejaVuSans-29" d="M 513 4856 
L 1013 4856 
Q 1481 4119 1714 3412 
Q 1947 2706 1947 2009 
Q 1947 1309 1714 600 
Q 1481 -109 1013 -844 
L 513 -844 
Q 928 -128 1133 580 
Q 1338 1288 1338 2009 
Q 1338 2731 1133 3434 
Q 928 4138 513 4856 
z
" transform="scale(0.015625)"/>
      </defs>
      <use xlink:href="#DejaVuSans-Oblique-72" transform="translate(0 0.234375)"/>
      <use xlink:href="#DejaVuSans-3d" transform="translate(60.595703 0.234375)"/>
      <use xlink:href="#DejaVuSans-Oblique-66" transform="translate(163.867188 0.234375)"/>
      <use xlink:href="#DejaVuSans-28" transform="translate(199.072266 0.234375)"/>
      <use xlink:href="#DejaVuSans-Oblique-3b8" transform="translate(238.085938 0.234375)"/>
      <use xlink:href="#DejaVuSans-29" transform="translate(299.267578 0.234375)"/>
     </g>
    </g>
    <g id="line2d_24">
     <path d="M 344.16375 53.815625 
L 354.16375 53.815625 
L 364.16375 53.815625 
" style="fill: none; stroke: #ff00ff; stroke-width: 1.5; stroke-linecap: square"/>
    </g>
    <g id="text_16">
     <!-- $r(\theta_i)$ -->
     <g transform="translate(372.16375 57.315625)scale(0.1 -0.1)">
      <defs>
       <path id="DejaVuSans-Oblique-69" d="M 1172 4863 
L 1747 4863 
L 1606 4134 
L 1031 4134 
L 1172 4863 
z
M 909 3500 
L 1484 3500 
L 800 0 
L 225 0 
L 909 3500 
z
" transform="scale(0.015625)"/>
      </defs>
      <use xlink:href="#DejaVuSans-Oblique-72" transform="translate(0 0.234375)"/>
      <use xlink:href="#DejaVuSans-28" transform="translate(41.113281 0.234375)"/>
      <use xlink:href="#DejaVuSans-Oblique-3b8" transform="translate(80.126953 0.234375)"/>
      <use xlink:href="#DejaVuSans-Oblique-69" transform="translate(141.308594 -16.171875)scale(0.7)"/>
      <use xlink:href="#DejaVuSans-29" transform="translate(163.491211 0.234375)"/>
     </g>
    </g>
    <g id="line2d_25">
     <path d="M 344.16375 70.695312 
L 354.16375 70.695312 
L 364.16375 70.695312 
" style="fill: none; stroke: #00ffff; stroke-width: 1.5; stroke-linecap: square"/>
    </g>
    <g id="text_17">
     <!-- $r'(\theta_i)=\frac{\mathrm{d}r}{\mathrm{d}\theta}(\theta_i)$ -->
     <g transform="translate(372.16375 74.195312)scale(0.1 -0.1)">
      <defs>
       <path id="Cmsy10-30" d="M 225 347 
Q 184 359 184 409 
L 966 3316 
Q 1003 3434 1093 3506 
Q 1184 3578 1300 3578 
Q 1450 3578 1564 3479 
Q 1678 3381 1678 3231 
Q 1678 3166 1644 3084 
L 488 319 
Q 466 275 428 275 
Q 394 275 320 306 
Q 247 338 225 347 
z
" transform="scale(0.015625)"/>
       <path id="DejaVuSans-64" d="M 2906 2969 
L 2906 4863 
L 3481 4863 
L 3481 0 
L 2906 0 
L 2906 525 
Q 2725 213 2448 61 
Q 2172 -91 1784 -91 
Q 1150 -91 751 415 
Q 353 922 353 1747 
Q 353 2572 751 3078 
Q 1150 3584 1784 3584 
Q 2172 3584 2448 3432 
Q 2725 3281 2906 2969 
z
M 947 1747 
Q 947 1113 1208 752 
Q 1469 391 1925 391 
Q 2381 391 2643 752 
Q 2906 1113 2906 1747 
Q 2906 2381 2643 2742 
Q 2381 3103 1925 3103 
Q 1469 3103 1208 2742 
Q 947 2381 947 1747 
z
" transform="scale(0.015625)"/>
      </defs>
      <use xlink:href="#DejaVuSans-Oblique-72" transform="translate(0 0.01875)"/>
      <use xlink:href="#Cmsy10-30" transform="translate(45.763177 38.3)scale(0.7)"/>
      <use xlink:href="#DejaVuSans-28" transform="translate(67.740716 0.01875)"/>
      <use xlink:href="#DejaVuSans-Oblique-3b8" transform="translate(106.754388 0.01875)"/>
      <use xlink:href="#DejaVuSans-Oblique-69" transform="translate(167.936029 -16.3875)scale(0.7)"/>
      <use xlink:href="#DejaVuSans-29" transform="translate(190.118646 0.01875)"/>
      <use xlink:href="#DejaVuSans-3d" transform="translate(248.61474 0.01875)"/>
      <use xlink:href="#DejaVuSans-64" transform="translate(358.886224 44.810938)scale(0.7)"/>
      <use xlink:href="#DejaVuSans-Oblique-72" transform="translate(403.319818 44.810938)scale(0.7)"/>
      <use xlink:href="#DejaVuSans-64" transform="translate(351.886224 -41.170312)scale(0.7)"/>
      <use xlink:href="#DejaVuSans-Oblique-3b8" transform="translate(396.319818 -41.170312)scale(0.7)"/>
      <use xlink:href="#DejaVuSans-28" transform="translate(451.646966 0.01875)"/>
      <use xlink:href="#DejaVuSans-Oblique-3b8" transform="translate(490.660638 0.01875)"/>
      <use xlink:href="#DejaVuSans-Oblique-69" transform="translate(551.842279 -16.3875)scale(0.7)"/>
      <use xlink:href="#DejaVuSans-29" transform="translate(574.024896 0.01875)"/>
      <path d="M 351.886224 18.815625 
L 351.886224 25.065625 
L 439.146966 25.065625 
L 439.146966 18.815625 
L 351.886224 18.815625 
z
"/>
     </g>
    </g>
    <g id="line2d_26">
     <path d="M 344.16375 92.415625 
L 354.16375 92.415625 
L 364.16375 92.415625 
" style="fill: none; stroke: #ff0000; stroke-width: 1.5; stroke-linecap: square"/>
    </g>
    <g id="text_18">
     <!-- $\sqrt{r(\theta_i)^2+r'(\theta_i)^2}\cdot\Delta\theta$ -->
     <g transform="translate(372.16375 95.915625)scale(0.1 -0.1)">
      <defs>
       <path id="STIXSizeOneSym-Regular-221a" d="M 6970 9933 
L 3373 -1888 
L 3104 -1888 
L 1626 2918 
Q 1555 3149 1465 3251 
Q 1376 3354 1229 3354 
Q 1011 3354 794 3181 
L 717 3309 
L 1766 4115 
L 1926 4115 
L 3379 -602 
L 3405 -602 
L 6605 9933 
L 6970 9933 
z
" transform="scale(0.015625)"/>
       <path id="DejaVuSans-2b" d="M 2944 4013 
L 2944 2272 
L 4684 2272 
L 4684 1741 
L 2944 1741 
L 2944 0 
L 2419 0 
L 2419 1741 
L 678 1741 
L 678 2272 
L 2419 2272 
L 2419 4013 
L 2944 4013 
z
" transform="scale(0.015625)"/>
       <path id="DejaVuSans-22c5" d="M 684 2619 
L 1344 2619 
L 1344 1825 
L 684 1825 
L 684 2619 
z
" transform="scale(0.015625)"/>
       <path id="DejaVuSans-394" d="M 2188 4044 
L 906 525 
L 3472 525 
L 2188 4044 
z
M 50 0 
L 1831 4666 
L 2547 4666 
L 4325 0 
L 50 0 
z
" transform="scale(0.015625)"/>
      </defs>
      <use xlink:href="#STIXSizeOneSym-Regular-221a" transform="translate(0 6.15625)scale(0.746553)"/>
      <use xlink:href="#DejaVuSans-Oblique-72" transform="translate(91.395142 0.515625)"/>
      <use xlink:href="#DejaVuSans-28" transform="translate(132.508423 0.515625)"/>
      <use xlink:href="#DejaVuSans-Oblique-3b8" transform="translate(171.522095 0.515625)"/>
      <use xlink:href="#DejaVuSans-Oblique-69" transform="translate(232.703735 -15.890625)scale(0.7)"/>
      <use xlink:href="#DejaVuSans-29" transform="translate(254.886353 0.515625)"/>
      <use xlink:href="#DejaVuSans-32" transform="translate(294.857056 38.796875)scale(0.7)"/>
      <use xlink:href="#DejaVuSans-2b" transform="translate(361.609985 0.515625)"/>
      <use xlink:href="#DejaVuSans-Oblique-72" transform="translate(464.88147 0.515625)"/>
      <use xlink:href="#Cmsy10-30" transform="translate(510.644647 38.796875)scale(0.7)"/>
      <use xlink:href="#DejaVuSans-28" transform="translate(532.622186 0.515625)"/>
      <use xlink:href="#DejaVuSans-Oblique-3b8" transform="translate(571.635858 0.515625)"/>
      <use xlink:href="#DejaVuSans-Oblique-69" transform="translate(632.817498 -15.890625)scale(0.7)"/>
      <use xlink:href="#DejaVuSans-29" transform="translate(655.000116 0.515625)"/>
      <use xlink:href="#DejaVuSans-32" transform="translate(694.970819 38.796875)scale(0.7)"/>
      <use xlink:href="#DejaVuSans-22c5" transform="translate(774.223748 0.546875)"/>
      <use xlink:href="#DejaVuSans-394" transform="translate(825.49328 0.546875)"/>
      <use xlink:href="#DejaVuSans-Oblique-3b8" transform="translate(893.901483 0.546875)"/>
      <path d="M 78.895142 115.5 
L 78.895142 121.75 
L 754.741326 121.75 
L 754.741326 115.5 
L 78.895142 115.5 
z
"/>
     </g>
    </g>
   </g>
  </g>
 </g>
 <defs>
  <clipPath id="p0e7f84c0d6">
   <path d="M 476.76375 247.799062 
C 476.76375 218.677806 471.027497 189.839717 459.883275 162.935185 
C 448.739053 136.030652 432.403588 111.582901 411.81175 90.991063 
C 391.219912 70.399225 366.772161 54.06376 339.867628 42.919537 
C 312.963095 31.775315 284.125006 26.039062 255.00375 26.039062 
C 225.882494 26.039062 197.044405 31.775315 170.139872 42.919537 
C 143.235339 54.06376 118.787588 70.399225 98.19575 90.991063 
C 77.603912 111.582901 61.268447 136.030652 50.124225 162.935185 
C 38.980003 189.839717 33.24375 218.677806 33.24375 247.799062 
C 33.24375 276.920319 38.980003 305.758408 50.124225 332.66294 
C 61.268447 359.567473 77.603912 384.015224 98.19575 404.607062 
C 118.787588 425.1989 143.235339 441.534365 170.139872 452.678588 
C 197.044405 463.82281 225.882494 469.559062 255.00375 469.559062 
C 284.125006 469.559062 312.963095 463.82281 339.867628 452.678588 
C 366.772161 441.534365 391.219912 425.1989 411.81175 404.607062 
C 432.403588 384.015224 448.739053 359.567473 459.883275 332.66294 
C 471.027497 305.758408 476.76375 276.920319 476.76375 247.799062 
M 255.00375 247.799062 
C 255.00375 247.799062 255.00375 247.799062 255.00375 247.799062 
C 255.00375 247.799062 255.00375 247.799062 255.00375 247.799062 
C 255.00375 247.799062 255.00375 247.799062 255.00375 247.799062 
C 255.00375 247.799062 255.00375 247.799062 255.00375 247.799062 
C 255.00375 247.799062 255.00375 247.799062 255.00375 247.799062 
C 255.00375 247.799062 255.00375 247.799062 255.00375 247.799062 
C 255.00375 247.799062 255.00375 247.799062 255.00375 247.799062 
C 255.00375 247.799062 255.00375 247.799062 255.00375 247.799062 
C 255.00375 247.799062 255.00375 247.799062 255.00375 247.799062 
C 255.00375 247.799062 255.00375 247.799062 255.00375 247.799062 
C 255.00375 247.799062 255.00375 247.799062 255.00375 247.799062 
C 255.00375 247.799062 255.00375 247.799062 255.00375 247.799062 
C 255.00375 247.799062 255.00375 247.799062 255.00375 247.799062 
C 255.00375 247.799062 255.00375 247.799062 255.00375 247.799062 
C 255.00375 247.799062 255.00375 247.799062 255.00375 247.799062 
C 255.00375 247.799062 255.00375 247.799062 255.00375 247.799062 
M 476.76375 247.799062 
z
"/>
  </clipPath>
 </defs>
</svg>
