<?xml version="1.0" encoding="utf-8" standalone="no"?>
<!DOCTYPE svg PUBLIC "-//W3C//DTD SVG 1.1//EN"
  "http://www.w3.org/Graphics/SVG/1.1/DTD/svg11.dtd">
<svg xmlns:xlink="http://www.w3.org/1999/xlink" width="385.78125pt" height="377.39625pt" viewBox="0 0 385.78125 377.39625" xmlns="http://www.w3.org/2000/svg" version="1.1">
 <metadata>
  <rdf:RDF xmlns:dc="http://purl.org/dc/elements/1.1/" xmlns:cc="http://creativecommons.org/ns#" xmlns:rdf="http://www.w3.org/1999/02/22-rdf-syntax-ns#">
   <cc:Work>
    <dc:type rdf:resource="http://purl.org/dc/dcmitype/StillImage"/>
    <dc:date>2023-11-23T09:51:06.581905</dc:date>
    <dc:format>image/svg+xml</dc:format>
    <dc:creator>
     <cc:Agent>
      <dc:title>Matplotlib v3.5.2, https://matplotlib.org/</dc:title>
     </cc:Agent>
    </dc:creator>
   </cc:Work>
  </rdf:RDF>
 </metadata>
 <defs>
  <style type="text/css">*{stroke-linejoin: round; stroke-linecap: butt}</style>
 </defs>
 <g id="figure_1">
  <g id="patch_1">
   <path d="M 0 377.39625 
L 385.78125 377.39625 
L 385.78125 0 
L 0 0 
z
" style="fill: #ffffff"/>
  </g>
  <g id="axes_1">
   <g id="patch_2">
    <path d="M 43.78125 339.84 
L 378.58125 339.84 
L 378.58125 7.2 
L 43.78125 7.2 
z
" style="fill: #ffffff"/>
   </g>
   <g id="PolyCollection_1">
    <defs>
     <path id="mc4228a954e" d="M 58.999432 -52.67625 
L 58.999432 -52.67625 
L 60.528897 -54.195848 
L 62.058363 -55.715446 
L 63.587828 -57.235044 
L 65.117294 -58.754642 
L 66.646759 -60.27424 
L 68.176225 -61.793838 
L 69.70569 -63.313436 
L 71.235156 -64.833034 
L 72.764621 -66.352632 
L 74.294087 -67.87223 
L 75.823552 -69.391828 
L 77.353018 -70.911426 
L 78.882483 -72.431024 
L 80.411949 -73.950622 
L 81.941414 -75.47022 
L 83.47088 -76.989818 
L 85.000345 -78.509416 
L 86.529811 -80.029014 
L 88.059276 -81.548612 
L 89.588742 -83.06821 
L 91.118208 -84.587808 
L 92.647673 -86.107406 
L 94.177139 -87.627004 
L 95.706604 -89.146602 
L 97.23607 -90.6662 
L 98.765535 -92.185798 
L 100.295001 -93.705396 
L 101.824466 -95.224994 
L 103.353932 -96.744592 
L 104.883397 -98.26419 
L 106.412863 -99.783788 
L 107.942328 -101.303386 
L 109.471794 -102.822984 
L 111.001259 -104.342582 
L 112.530725 -105.86218 
L 114.06019 -107.381778 
L 115.589656 -108.901376 
L 117.119121 -110.420974 
L 118.648587 -111.940572 
L 120.178052 -113.46017 
L 121.707518 -114.979768 
L 123.236983 -116.499366 
L 124.766449 -118.018964 
L 126.295914 -119.538562 
L 127.82538 -121.05816 
L 129.354845 -122.577758 
L 130.884311 -124.097356 
L 132.413776 -125.616954 
L 133.943242 -127.136552 
L 135.472707 -128.656149 
L 137.002173 -130.175747 
L 138.531638 -131.695345 
L 140.061104 -133.214943 
L 141.590569 -134.734541 
L 143.120035 -136.254139 
L 144.6495 -137.773737 
L 146.178966 -139.293335 
L 147.708431 -140.812933 
L 149.237897 -142.332531 
L 150.767362 -143.852129 
L 152.296828 -145.371727 
L 153.826293 -146.891325 
L 155.355759 -148.410923 
L 156.885224 -149.930521 
L 158.41469 -151.450119 
L 159.944155 -152.969717 
L 161.473621 -154.489315 
L 163.003086 -156.008913 
L 164.532552 -157.528511 
L 166.062017 -159.048109 
L 167.591483 -160.567707 
L 169.120948 -162.087305 
L 170.650414 -163.606903 
L 172.17988 -165.126501 
L 173.709345 -166.646099 
L 175.238811 -168.165697 
L 176.768276 -169.685295 
L 178.297742 -171.204893 
L 179.827207 -172.724491 
L 181.356673 -174.244089 
L 182.886138 -175.763687 
L 184.415604 -177.283285 
L 185.945069 -178.802883 
L 187.474535 -180.322481 
L 189.004 -181.842079 
L 190.533466 -183.361677 
L 192.062931 -184.881275 
L 193.592397 -186.400873 
L 195.121862 -187.920471 
L 196.651328 -189.440069 
L 198.180793 -190.959667 
L 199.710259 -192.479265 
L 201.239724 -193.998863 
L 202.76919 -195.518461 
L 204.298655 -197.038059 
L 205.828121 -198.557657 
L 207.357586 -200.077255 
L 208.887052 -201.596853 
L 210.416517 -203.116451 
L 211.945983 -204.636049 
L 213.475448 -206.155647 
L 215.004914 -207.675245 
L 216.534379 -209.194843 
L 218.063845 -210.714441 
L 219.59331 -212.234039 
L 221.122776 -213.753637 
L 222.652241 -215.273235 
L 224.181707 -216.792833 
L 225.711172 -218.312431 
L 227.240638 -219.832029 
L 228.770103 -221.351627 
L 230.299569 -222.871225 
L 231.829034 -224.390823 
L 233.3585 -225.910421 
L 234.887965 -227.430019 
L 236.417431 -228.949617 
L 237.946896 -230.469215 
L 239.476362 -231.988813 
L 241.005827 -233.508411 
L 242.535293 -235.028009 
L 244.064758 -236.547607 
L 245.594224 -238.067205 
L 247.123689 -239.586803 
L 248.653155 -241.106401 
L 250.18262 -242.625999 
L 251.712086 -244.145597 
L 253.241552 -245.665195 
L 254.771017 -247.184793 
L 256.300483 -248.704391 
L 257.829948 -250.223989 
L 259.359414 -251.743587 
L 260.888879 -253.263185 
L 262.418345 -254.782783 
L 263.94781 -256.302381 
L 265.477276 -257.821979 
L 267.006741 -259.341577 
L 268.536207 -260.861175 
L 270.065672 -262.380773 
L 271.595138 -263.900371 
L 273.124603 -265.419969 
L 274.654069 -266.939567 
L 276.183534 -268.459165 
L 277.713 -269.978763 
L 279.242465 -271.498361 
L 280.771931 -273.017959 
L 282.301396 -274.537557 
L 283.830862 -276.057155 
L 285.360327 -277.576753 
L 286.889793 -279.096351 
L 288.419258 -280.615948 
L 289.948724 -282.135546 
L 291.478189 -283.655144 
L 293.007655 -285.174742 
L 294.53712 -286.69434 
L 296.066586 -288.213938 
L 297.596051 -289.733536 
L 299.125517 -291.253134 
L 300.654982 -292.772732 
L 302.184448 -294.29233 
L 303.713913 -295.811928 
L 305.243379 -297.331526 
L 306.772844 -298.851124 
L 308.30231 -300.370722 
L 309.831775 -301.89032 
L 311.361241 -303.409918 
L 312.890706 -304.929516 
L 314.420172 -306.449114 
L 315.949637 -307.968712 
L 317.479103 -309.48831 
L 319.008568 -311.007908 
L 320.538034 -312.527506 
L 322.067499 -314.047104 
L 323.596965 -315.566702 
L 325.12643 -317.0863 
L 326.655896 -318.605898 
L 328.185361 -320.125496 
L 329.714827 -321.645094 
L 331.244292 -323.164692 
L 332.773758 -324.68429 
L 334.303224 -326.203888 
L 335.832689 -327.723486 
L 337.362155 -329.243084 
L 338.89162 -330.762682 
L 340.421086 -332.28228 
L 341.950551 -333.801878 
L 343.480017 -335.321476 
L 345.009482 -336.841074 
L 346.538948 -338.360672 
L 348.068413 -339.88027 
L 349.597879 -341.399868 
L 351.127344 -342.919466 
L 352.65681 -344.439064 
L 354.186275 -345.958662 
L 355.715741 -347.47826 
L 357.245206 -348.997858 
L 358.774672 -350.517456 
L 360.304137 -352.037054 
L 361.833603 -353.556652 
L 363.363068 -355.07625 
L 363.363068 -355.07625 
L 363.363068 -355.07625 
L 361.833603 -354.315494 
L 360.304137 -353.552815 
L 358.774672 -352.788197 
L 357.245206 -352.021626 
L 355.715741 -351.253087 
L 354.186275 -350.482565 
L 352.65681 -349.710044 
L 351.127344 -348.935509 
L 349.597879 -348.158943 
L 348.068413 -347.380332 
L 346.538948 -346.599657 
L 345.009482 -345.816904 
L 343.480017 -345.032054 
L 341.950551 -344.245093 
L 340.421086 -343.456001 
L 338.89162 -342.664762 
L 337.362155 -341.871358 
L 335.832689 -341.075772 
L 334.303224 -340.277985 
L 332.773758 -339.477978 
L 331.244292 -338.675734 
L 329.714827 -337.871233 
L 328.185361 -337.064457 
L 326.655896 -336.255385 
L 325.12643 -335.443998 
L 323.596965 -334.630276 
L 322.067499 -333.814199 
L 320.538034 -332.995746 
L 319.008568 -332.174897 
L 317.479103 -331.351629 
L 315.949637 -330.525923 
L 314.420172 -329.697755 
L 312.890706 -328.867104 
L 311.361241 -328.033947 
L 309.831775 -327.198262 
L 308.30231 -326.360025 
L 306.772844 -325.519212 
L 305.243379 -324.675801 
L 303.713913 -323.829766 
L 302.184448 -322.981083 
L 300.654982 -322.129727 
L 299.125517 -321.275673 
L 297.596051 -320.418894 
L 296.066586 -319.559365 
L 294.53712 -318.697058 
L 293.007655 -317.831948 
L 291.478189 -316.964005 
L 289.948724 -316.093203 
L 288.419258 -315.219513 
L 286.889793 -314.342905 
L 285.360327 -313.463351 
L 283.830862 -312.58082 
L 282.301396 -311.695282 
L 280.771931 -310.806707 
L 279.242465 -309.915062 
L 277.713 -309.020315 
L 276.183534 -308.122435 
L 274.654069 -307.221387 
L 273.124603 -306.317139 
L 271.595138 -305.409655 
L 270.065672 -304.498901 
L 268.536207 -303.584841 
L 267.006741 -302.667439 
L 265.477276 -301.746658 
L 263.94781 -300.822461 
L 262.418345 -299.894808 
L 260.888879 -298.963661 
L 259.359414 -298.028981 
L 257.829948 -297.090726 
L 256.300483 -296.148856 
L 254.771017 -295.203327 
L 253.241552 -294.254098 
L 251.712086 -293.301125 
L 250.18262 -292.344362 
L 248.653155 -291.383765 
L 247.123689 -290.419286 
L 245.594224 -289.450879 
L 244.064758 -288.478494 
L 242.535293 -287.502083 
L 241.005827 -286.521595 
L 239.476362 -285.536979 
L 237.946896 -284.548181 
L 236.417431 -283.555149 
L 234.887965 -282.557828 
L 233.3585 -281.55616 
L 231.829034 -280.55009 
L 230.299569 -279.539558 
L 228.770103 -278.524504 
L 227.240638 -277.504868 
L 225.711172 -276.480587 
L 224.181707 -275.451596 
L 222.652241 -274.41783 
L 221.122776 -273.379222 
L 219.59331 -272.335703 
L 218.063845 -271.287203 
L 216.534379 -270.233651 
L 215.004914 -269.174971 
L 213.475448 -268.111089 
L 211.945983 -267.041926 
L 210.416517 -265.967405 
L 208.887052 -264.887443 
L 207.357586 -263.801956 
L 205.828121 -262.71086 
L 204.298655 -261.614066 
L 202.76919 -260.511484 
L 201.239724 -259.403022 
L 199.710259 -258.288584 
L 198.180793 -257.168072 
L 196.651328 -256.041387 
L 195.121862 -254.908425 
L 193.592397 -253.769079 
L 192.062931 -252.623242 
L 190.533466 -251.4708 
L 189.004 -250.311638 
L 187.474535 -249.145638 
L 185.945069 -247.972676 
L 184.415604 -246.792626 
L 182.886138 -245.605359 
L 181.356673 -244.41074 
L 179.827207 -243.208631 
L 178.297742 -241.998889 
L 176.768276 -240.781368 
L 175.238811 -239.555914 
L 173.709345 -238.322371 
L 172.17988 -237.080577 
L 170.650414 -235.830364 
L 169.120948 -234.571558 
L 167.591483 -233.30398 
L 166.062017 -232.027443 
L 164.532552 -230.741754 
L 163.003086 -229.446715 
L 161.473621 -228.142118 
L 159.944155 -226.827749 
L 158.41469 -225.503384 
L 156.885224 -224.168791 
L 155.355759 -222.823731 
L 153.826293 -221.467952 
L 152.296828 -220.101195 
L 150.767362 -218.723189 
L 149.237897 -217.33365 
L 147.708431 -215.932285 
L 146.178966 -214.518787 
L 144.6495 -213.092833 
L 143.120035 -211.65409 
L 141.590569 -210.202208 
L 140.061104 -208.736818 
L 138.531638 -207.257538 
L 137.002173 -205.763964 
L 135.472707 -204.255673 
L 133.943242 -202.732223 
L 132.413776 -201.193147 
L 130.884311 -199.637954 
L 129.354845 -198.066125 
L 127.82538 -196.477117 
L 126.295914 -194.870353 
L 124.766449 -193.245224 
L 123.236983 -191.601086 
L 121.707518 -189.937256 
L 120.178052 -188.253008 
L 118.648587 -186.547572 
L 117.119121 -184.820128 
L 115.589656 -183.0698 
L 114.06019 -181.295656 
L 112.530725 -179.496694 
L 111.001259 -177.671845 
L 109.471794 -175.819956 
L 107.942328 -173.939789 
L 106.412863 -172.030007 
L 104.883397 -170.089167 
L 103.353932 -168.1157 
L 101.824466 -166.107904 
L 100.295001 -164.063923 
L 98.765535 -161.981727 
L 97.23607 -159.859088 
L 95.706604 -157.693555 
L 94.177139 -155.482417 
L 92.647673 -153.222665 
L 91.118208 -150.910944 
L 89.588742 -148.543495 
L 88.059276 -146.116082 
L 86.529811 -143.623904 
L 85.000345 -141.061483 
L 83.47088 -138.422521 
L 81.941414 -135.699719 
L 80.411949 -132.884542 
L 78.882483 -129.966894 
L 77.353018 -126.934699 
L 75.823552 -123.773302 
L 74.294087 -120.464629 
L 72.764621 -116.985953 
L 71.235156 -113.308019 
L 69.70569 -109.392077 
L 68.176225 -105.184903 
L 66.646759 -100.609872 
L 65.117294 -95.549385 
L 63.587828 -89.805474 
L 62.058363 -82.992135 
L 60.528897 -74.112818 
L 58.999432 -52.67625 
z
" style="stroke: #008000; stroke-opacity: 0.3"/>
    </defs>
    <g clip-path="url(#p289c092338)">
     <use xlink:href="#mc4228a954e" x="0" y="377.39625" style="fill: #008000; fill-opacity: 0.3; stroke: #008000; stroke-opacity: 0.3"/>
    </g>
   </g>
   <g id="matplotlib.axis_1">
    <g id="xtick_1">
     <g id="line2d_1">
      <path d="M 58.999432 339.84 
L 58.999432 7.2 
" clip-path="url(#p289c092338)" style="fill: none; stroke: #b0b0b0; stroke-width: 0.8; stroke-linecap: square"/>
     </g>
     <g id="line2d_2">
      <defs>
       <path id="mcd9d8b007d" d="M 0 0 
L 0 3.5 
" style="stroke: #000000; stroke-width: 0.8"/>
      </defs>
      <g>
       <use xlink:href="#mcd9d8b007d" x="58.999432" y="339.84" style="stroke: #000000; stroke-width: 0.8"/>
      </g>
     </g>
     <g id="text_1">
      <!-- 0.0 -->
      <g transform="translate(51.047869 354.438437)scale(0.1 -0.1)">
       <defs>
        <path id="DejaVuSans-30" d="M 2034 4250 
Q 1547 4250 1301 3770 
Q 1056 3291 1056 2328 
Q 1056 1369 1301 889 
Q 1547 409 2034 409 
Q 2525 409 2770 889 
Q 3016 1369 3016 2328 
Q 3016 3291 2770 3770 
Q 2525 4250 2034 4250 
z
M 2034 4750 
Q 2819 4750 3233 4129 
Q 3647 3509 3647 2328 
Q 3647 1150 3233 529 
Q 2819 -91 2034 -91 
Q 1250 -91 836 529 
Q 422 1150 422 2328 
Q 422 3509 836 4129 
Q 1250 4750 2034 4750 
z
" transform="scale(0.015625)"/>
        <path id="DejaVuSans-2e" d="M 684 794 
L 1344 794 
L 1344 0 
L 684 0 
L 684 794 
z
" transform="scale(0.015625)"/>
       </defs>
       <use xlink:href="#DejaVuSans-30"/>
       <use xlink:href="#DejaVuSans-2e" x="63.623047"/>
       <use xlink:href="#DejaVuSans-30" x="95.410156"/>
      </g>
     </g>
    </g>
    <g id="xtick_2">
     <g id="line2d_3">
      <path d="M 119.872159 339.84 
L 119.872159 7.2 
" clip-path="url(#p289c092338)" style="fill: none; stroke: #b0b0b0; stroke-width: 0.8; stroke-linecap: square"/>
     </g>
     <g id="line2d_4">
      <g>
       <use xlink:href="#mcd9d8b007d" x="119.872159" y="339.84" style="stroke: #000000; stroke-width: 0.8"/>
      </g>
     </g>
     <g id="text_2">
      <!-- 0.2 -->
      <g transform="translate(111.920597 354.438437)scale(0.1 -0.1)">
       <defs>
        <path id="DejaVuSans-32" d="M 1228 531 
L 3431 531 
L 3431 0 
L 469 0 
L 469 531 
Q 828 903 1448 1529 
Q 2069 2156 2228 2338 
Q 2531 2678 2651 2914 
Q 2772 3150 2772 3378 
Q 2772 3750 2511 3984 
Q 2250 4219 1831 4219 
Q 1534 4219 1204 4116 
Q 875 4013 500 3803 
L 500 4441 
Q 881 4594 1212 4672 
Q 1544 4750 1819 4750 
Q 2544 4750 2975 4387 
Q 3406 4025 3406 3419 
Q 3406 3131 3298 2873 
Q 3191 2616 2906 2266 
Q 2828 2175 2409 1742 
Q 1991 1309 1228 531 
z
" transform="scale(0.015625)"/>
       </defs>
       <use xlink:href="#DejaVuSans-30"/>
       <use xlink:href="#DejaVuSans-2e" x="63.623047"/>
       <use xlink:href="#DejaVuSans-32" x="95.410156"/>
      </g>
     </g>
    </g>
    <g id="xtick_3">
     <g id="line2d_5">
      <path d="M 180.744886 339.84 
L 180.744886 7.2 
" clip-path="url(#p289c092338)" style="fill: none; stroke: #b0b0b0; stroke-width: 0.8; stroke-linecap: square"/>
     </g>
     <g id="line2d_6">
      <g>
       <use xlink:href="#mcd9d8b007d" x="180.744886" y="339.84" style="stroke: #000000; stroke-width: 0.8"/>
      </g>
     </g>
     <g id="text_3">
      <!-- 0.4 -->
      <g transform="translate(172.793324 354.438437)scale(0.1 -0.1)">
       <defs>
        <path id="DejaVuSans-34" d="M 2419 4116 
L 825 1625 
L 2419 1625 
L 2419 4116 
z
M 2253 4666 
L 3047 4666 
L 3047 1625 
L 3713 1625 
L 3713 1100 
L 3047 1100 
L 3047 0 
L 2419 0 
L 2419 1100 
L 313 1100 
L 313 1709 
L 2253 4666 
z
" transform="scale(0.015625)"/>
       </defs>
       <use xlink:href="#DejaVuSans-30"/>
       <use xlink:href="#DejaVuSans-2e" x="63.623047"/>
       <use xlink:href="#DejaVuSans-34" x="95.410156"/>
      </g>
     </g>
    </g>
    <g id="xtick_4">
     <g id="line2d_7">
      <path d="M 241.617614 339.84 
L 241.617614 7.2 
" clip-path="url(#p289c092338)" style="fill: none; stroke: #b0b0b0; stroke-width: 0.8; stroke-linecap: square"/>
     </g>
     <g id="line2d_8">
      <g>
       <use xlink:href="#mcd9d8b007d" x="241.617614" y="339.84" style="stroke: #000000; stroke-width: 0.8"/>
      </g>
     </g>
     <g id="text_4">
      <!-- 0.6 -->
      <g transform="translate(233.666051 354.438437)scale(0.1 -0.1)">
       <defs>
        <path id="DejaVuSans-36" d="M 2113 2584 
Q 1688 2584 1439 2293 
Q 1191 2003 1191 1497 
Q 1191 994 1439 701 
Q 1688 409 2113 409 
Q 2538 409 2786 701 
Q 3034 994 3034 1497 
Q 3034 2003 2786 2293 
Q 2538 2584 2113 2584 
z
M 3366 4563 
L 3366 3988 
Q 3128 4100 2886 4159 
Q 2644 4219 2406 4219 
Q 1781 4219 1451 3797 
Q 1122 3375 1075 2522 
Q 1259 2794 1537 2939 
Q 1816 3084 2150 3084 
Q 2853 3084 3261 2657 
Q 3669 2231 3669 1497 
Q 3669 778 3244 343 
Q 2819 -91 2113 -91 
Q 1303 -91 875 529 
Q 447 1150 447 2328 
Q 447 3434 972 4092 
Q 1497 4750 2381 4750 
Q 2619 4750 2861 4703 
Q 3103 4656 3366 4563 
z
" transform="scale(0.015625)"/>
       </defs>
       <use xlink:href="#DejaVuSans-30"/>
       <use xlink:href="#DejaVuSans-2e" x="63.623047"/>
       <use xlink:href="#DejaVuSans-36" x="95.410156"/>
      </g>
     </g>
    </g>
    <g id="xtick_5">
     <g id="line2d_9">
      <path d="M 302.490341 339.84 
L 302.490341 7.2 
" clip-path="url(#p289c092338)" style="fill: none; stroke: #b0b0b0; stroke-width: 0.8; stroke-linecap: square"/>
     </g>
     <g id="line2d_10">
      <g>
       <use xlink:href="#mcd9d8b007d" x="302.490341" y="339.84" style="stroke: #000000; stroke-width: 0.8"/>
      </g>
     </g>
     <g id="text_5">
      <!-- 0.8 -->
      <g transform="translate(294.538778 354.438437)scale(0.1 -0.1)">
       <defs>
        <path id="DejaVuSans-38" d="M 2034 2216 
Q 1584 2216 1326 1975 
Q 1069 1734 1069 1313 
Q 1069 891 1326 650 
Q 1584 409 2034 409 
Q 2484 409 2743 651 
Q 3003 894 3003 1313 
Q 3003 1734 2745 1975 
Q 2488 2216 2034 2216 
z
M 1403 2484 
Q 997 2584 770 2862 
Q 544 3141 544 3541 
Q 544 4100 942 4425 
Q 1341 4750 2034 4750 
Q 2731 4750 3128 4425 
Q 3525 4100 3525 3541 
Q 3525 3141 3298 2862 
Q 3072 2584 2669 2484 
Q 3125 2378 3379 2068 
Q 3634 1759 3634 1313 
Q 3634 634 3220 271 
Q 2806 -91 2034 -91 
Q 1263 -91 848 271 
Q 434 634 434 1313 
Q 434 1759 690 2068 
Q 947 2378 1403 2484 
z
M 1172 3481 
Q 1172 3119 1398 2916 
Q 1625 2713 2034 2713 
Q 2441 2713 2670 2916 
Q 2900 3119 2900 3481 
Q 2900 3844 2670 4047 
Q 2441 4250 2034 4250 
Q 1625 4250 1398 4047 
Q 1172 3844 1172 3481 
z
" transform="scale(0.015625)"/>
       </defs>
       <use xlink:href="#DejaVuSans-30"/>
       <use xlink:href="#DejaVuSans-2e" x="63.623047"/>
       <use xlink:href="#DejaVuSans-38" x="95.410156"/>
      </g>
     </g>
    </g>
    <g id="xtick_6">
     <g id="line2d_11">
      <path d="M 363.363068 339.84 
L 363.363068 7.2 
" clip-path="url(#p289c092338)" style="fill: none; stroke: #b0b0b0; stroke-width: 0.8; stroke-linecap: square"/>
     </g>
     <g id="line2d_12">
      <g>
       <use xlink:href="#mcd9d8b007d" x="363.363068" y="339.84" style="stroke: #000000; stroke-width: 0.8"/>
      </g>
     </g>
     <g id="text_6">
      <!-- 1.0 -->
      <g transform="translate(355.411506 354.438437)scale(0.1 -0.1)">
       <defs>
        <path id="DejaVuSans-31" d="M 794 531 
L 1825 531 
L 1825 4091 
L 703 3866 
L 703 4441 
L 1819 4666 
L 2450 4666 
L 2450 531 
L 3481 531 
L 3481 0 
L 794 0 
L 794 531 
z
" transform="scale(0.015625)"/>
       </defs>
       <use xlink:href="#DejaVuSans-31"/>
       <use xlink:href="#DejaVuSans-2e" x="63.623047"/>
       <use xlink:href="#DejaVuSans-30" x="95.410156"/>
      </g>
     </g>
    </g>
    <g id="text_7">
     <!-- x -->
     <g transform="translate(208.221875 368.116562)scale(0.1 -0.1)">
      <defs>
       <path id="DejaVuSans-78" d="M 3513 3500 
L 2247 1797 
L 3578 0 
L 2900 0 
L 1881 1375 
L 863 0 
L 184 0 
L 1544 1831 
L 300 3500 
L 978 3500 
L 1906 2253 
L 2834 3500 
L 3513 3500 
z
" transform="scale(0.015625)"/>
      </defs>
      <use xlink:href="#DejaVuSans-78"/>
     </g>
    </g>
   </g>
   <g id="matplotlib.axis_2">
    <g id="ytick_1">
     <g id="line2d_13">
      <path d="M 43.78125 324.72 
L 378.58125 324.72 
" clip-path="url(#p289c092338)" style="fill: none; stroke: #b0b0b0; stroke-width: 0.8; stroke-linecap: square"/>
     </g>
     <g id="line2d_14">
      <defs>
       <path id="m9a309401f1" d="M 0 0 
L -3.5 0 
" style="stroke: #000000; stroke-width: 0.8"/>
      </defs>
      <g>
       <use xlink:href="#m9a309401f1" x="43.78125" y="324.72" style="stroke: #000000; stroke-width: 0.8"/>
      </g>
     </g>
     <g id="text_8">
      <!-- 0.0 -->
      <g transform="translate(20.878125 328.519219)scale(0.1 -0.1)">
       <use xlink:href="#DejaVuSans-30"/>
       <use xlink:href="#DejaVuSans-2e" x="63.623047"/>
       <use xlink:href="#DejaVuSans-30" x="95.410156"/>
      </g>
     </g>
    </g>
    <g id="ytick_2">
     <g id="line2d_15">
      <path d="M 43.78125 274.32 
L 378.58125 274.32 
" clip-path="url(#p289c092338)" style="fill: none; stroke: #b0b0b0; stroke-width: 0.8; stroke-linecap: square"/>
     </g>
     <g id="line2d_16">
      <g>
       <use xlink:href="#m9a309401f1" x="43.78125" y="274.32" style="stroke: #000000; stroke-width: 0.8"/>
      </g>
     </g>
     <g id="text_9">
      <!-- 0.5 -->
      <g transform="translate(20.878125 278.119219)scale(0.1 -0.1)">
       <defs>
        <path id="DejaVuSans-35" d="M 691 4666 
L 3169 4666 
L 3169 4134 
L 1269 4134 
L 1269 2991 
Q 1406 3038 1543 3061 
Q 1681 3084 1819 3084 
Q 2600 3084 3056 2656 
Q 3513 2228 3513 1497 
Q 3513 744 3044 326 
Q 2575 -91 1722 -91 
Q 1428 -91 1123 -41 
Q 819 9 494 109 
L 494 744 
Q 775 591 1075 516 
Q 1375 441 1709 441 
Q 2250 441 2565 725 
Q 2881 1009 2881 1497 
Q 2881 1984 2565 2268 
Q 2250 2553 1709 2553 
Q 1456 2553 1204 2497 
Q 953 2441 691 2322 
L 691 4666 
z
" transform="scale(0.015625)"/>
       </defs>
       <use xlink:href="#DejaVuSans-30"/>
       <use xlink:href="#DejaVuSans-2e" x="63.623047"/>
       <use xlink:href="#DejaVuSans-35" x="95.410156"/>
      </g>
     </g>
    </g>
    <g id="ytick_3">
     <g id="line2d_17">
      <path d="M 43.78125 223.92 
L 378.58125 223.92 
" clip-path="url(#p289c092338)" style="fill: none; stroke: #b0b0b0; stroke-width: 0.8; stroke-linecap: square"/>
     </g>
     <g id="line2d_18">
      <g>
       <use xlink:href="#m9a309401f1" x="43.78125" y="223.92" style="stroke: #000000; stroke-width: 0.8"/>
      </g>
     </g>
     <g id="text_10">
      <!-- 1.0 -->
      <g transform="translate(20.878125 227.719219)scale(0.1 -0.1)">
       <use xlink:href="#DejaVuSans-31"/>
       <use xlink:href="#DejaVuSans-2e" x="63.623047"/>
       <use xlink:href="#DejaVuSans-30" x="95.410156"/>
      </g>
     </g>
    </g>
    <g id="ytick_4">
     <g id="line2d_19">
      <path d="M 43.78125 173.52 
L 378.58125 173.52 
" clip-path="url(#p289c092338)" style="fill: none; stroke: #b0b0b0; stroke-width: 0.8; stroke-linecap: square"/>
     </g>
     <g id="line2d_20">
      <g>
       <use xlink:href="#m9a309401f1" x="43.78125" y="173.52" style="stroke: #000000; stroke-width: 0.8"/>
      </g>
     </g>
     <g id="text_11">
      <!-- 1.5 -->
      <g transform="translate(20.878125 177.319219)scale(0.1 -0.1)">
       <use xlink:href="#DejaVuSans-31"/>
       <use xlink:href="#DejaVuSans-2e" x="63.623047"/>
       <use xlink:href="#DejaVuSans-35" x="95.410156"/>
      </g>
     </g>
    </g>
    <g id="ytick_5">
     <g id="line2d_21">
      <path d="M 43.78125 123.12 
L 378.58125 123.12 
" clip-path="url(#p289c092338)" style="fill: none; stroke: #b0b0b0; stroke-width: 0.8; stroke-linecap: square"/>
     </g>
     <g id="line2d_22">
      <g>
       <use xlink:href="#m9a309401f1" x="43.78125" y="123.12" style="stroke: #000000; stroke-width: 0.8"/>
      </g>
     </g>
     <g id="text_12">
      <!-- 2.0 -->
      <g transform="translate(20.878125 126.919219)scale(0.1 -0.1)">
       <use xlink:href="#DejaVuSans-32"/>
       <use xlink:href="#DejaVuSans-2e" x="63.623047"/>
       <use xlink:href="#DejaVuSans-30" x="95.410156"/>
      </g>
     </g>
    </g>
    <g id="ytick_6">
     <g id="line2d_23">
      <path d="M 43.78125 72.72 
L 378.58125 72.72 
" clip-path="url(#p289c092338)" style="fill: none; stroke: #b0b0b0; stroke-width: 0.8; stroke-linecap: square"/>
     </g>
     <g id="line2d_24">
      <g>
       <use xlink:href="#m9a309401f1" x="43.78125" y="72.72" style="stroke: #000000; stroke-width: 0.8"/>
      </g>
     </g>
     <g id="text_13">
      <!-- 2.5 -->
      <g transform="translate(20.878125 76.519219)scale(0.1 -0.1)">
       <use xlink:href="#DejaVuSans-32"/>
       <use xlink:href="#DejaVuSans-2e" x="63.623047"/>
       <use xlink:href="#DejaVuSans-35" x="95.410156"/>
      </g>
     </g>
    </g>
    <g id="ytick_7">
     <g id="line2d_25">
      <path d="M 43.78125 22.32 
L 378.58125 22.32 
" clip-path="url(#p289c092338)" style="fill: none; stroke: #b0b0b0; stroke-width: 0.8; stroke-linecap: square"/>
     </g>
     <g id="line2d_26">
      <g>
       <use xlink:href="#m9a309401f1" x="43.78125" y="22.32" style="stroke: #000000; stroke-width: 0.8"/>
      </g>
     </g>
     <g id="text_14">
      <!-- 3.0 -->
      <g transform="translate(20.878125 26.119219)scale(0.1 -0.1)">
       <defs>
        <path id="DejaVuSans-33" d="M 2597 2516 
Q 3050 2419 3304 2112 
Q 3559 1806 3559 1356 
Q 3559 666 3084 287 
Q 2609 -91 1734 -91 
Q 1441 -91 1130 -33 
Q 819 25 488 141 
L 488 750 
Q 750 597 1062 519 
Q 1375 441 1716 441 
Q 2309 441 2620 675 
Q 2931 909 2931 1356 
Q 2931 1769 2642 2001 
Q 2353 2234 1838 2234 
L 1294 2234 
L 1294 2753 
L 1863 2753 
Q 2328 2753 2575 2939 
Q 2822 3125 2822 3475 
Q 2822 3834 2567 4026 
Q 2313 4219 1838 4219 
Q 1578 4219 1281 4162 
Q 984 4106 628 3988 
L 628 4550 
Q 988 4650 1302 4700 
Q 1616 4750 1894 4750 
Q 2613 4750 3031 4423 
Q 3450 4097 3450 3541 
Q 3450 3153 3228 2886 
Q 3006 2619 2597 2516 
z
" transform="scale(0.015625)"/>
       </defs>
       <use xlink:href="#DejaVuSans-33"/>
       <use xlink:href="#DejaVuSans-2e" x="63.623047"/>
       <use xlink:href="#DejaVuSans-30" x="95.410156"/>
      </g>
     </g>
    </g>
    <g id="text_15">
     <!-- y -->
     <g transform="translate(14.798438 176.479375)rotate(-90)scale(0.1 -0.1)">
      <defs>
       <path id="DejaVuSans-79" d="M 2059 -325 
Q 1816 -950 1584 -1140 
Q 1353 -1331 966 -1331 
L 506 -1331 
L 506 -850 
L 844 -850 
Q 1081 -850 1212 -737 
Q 1344 -625 1503 -206 
L 1606 56 
L 191 3500 
L 800 3500 
L 1894 763 
L 2988 3500 
L 3597 3500 
L 2059 -325 
z
" transform="scale(0.015625)"/>
      </defs>
      <use xlink:href="#DejaVuSans-79"/>
     </g>
    </g>
   </g>
   <g id="line2d_27">
    <path d="M 58.999432 324.72 
L 363.363068 22.32 
L 363.363068 22.32 
" clip-path="url(#p289c092338)" style="fill: none; stroke: #0000ff; stroke-width: 1.5; stroke-linecap: square"/>
   </g>
   <g id="line2d_28">
    <path d="M 58.999432 324.72 
L 60.528897 303.283432 
L 62.058363 294.404115 
L 63.587828 287.590776 
L 65.117294 281.846865 
L 66.646759 276.786378 
L 68.176225 272.211347 
L 71.235156 264.088231 
L 74.294087 256.931621 
L 77.353018 250.461551 
L 80.411949 244.511708 
L 83.47088 238.973729 
L 86.529811 233.772346 
L 91.118208 226.485306 
L 95.706604 219.702695 
L 100.295001 213.332327 
L 104.883397 207.307083 
L 109.471794 201.576294 
L 115.589656 194.32645 
L 121.707518 187.458994 
L 127.82538 180.919133 
L 133.943242 174.664027 
L 141.590569 167.194042 
L 149.237897 160.0626 
L 156.885224 153.227459 
L 164.532552 146.654496 
L 173.709345 139.073879 
L 182.886138 131.790891 
L 192.062931 124.773008 
L 202.76919 116.884766 
L 213.475448 109.285161 
L 224.181707 101.944654 
L 236.417431 93.841101 
L 248.653155 86.012485 
L 260.888879 78.432589 
L 274.654069 70.174863 
L 288.419258 62.176737 
L 303.713913 53.566484 
L 319.008568 45.221353 
L 334.303224 37.118265 
L 351.127344 28.460741 
L 363.363068 22.32 
L 363.363068 22.32 
" clip-path="url(#p289c092338)" style="fill: none; stroke: #ff0000; stroke-width: 1.5; stroke-linecap: square"/>
   </g>
   <g id="patch_3">
    <path d="M 43.78125 339.84 
L 43.78125 7.2 
" style="fill: none; stroke: #000000; stroke-width: 0.8; stroke-linejoin: miter; stroke-linecap: square"/>
   </g>
   <g id="patch_4">
    <path d="M 378.58125 339.84 
L 378.58125 7.2 
" style="fill: none; stroke: #000000; stroke-width: 0.8; stroke-linejoin: miter; stroke-linecap: square"/>
   </g>
   <g id="patch_5">
    <path d="M 43.78125 339.84 
L 378.58125 339.84 
" style="fill: none; stroke: #000000; stroke-width: 0.8; stroke-linejoin: miter; stroke-linecap: square"/>
   </g>
   <g id="patch_6">
    <path d="M 43.78125 7.2 
L 378.58125 7.2 
" style="fill: none; stroke: #000000; stroke-width: 0.8; stroke-linejoin: miter; stroke-linecap: square"/>
   </g>
   <g id="legend_1">
    <g id="patch_7">
     <path d="M 50.78125 44.55625 
L 103.98125 44.55625 
Q 105.98125 44.55625 105.98125 42.55625 
L 105.98125 14.2 
Q 105.98125 12.2 103.98125 12.2 
L 50.78125 12.2 
Q 48.78125 12.2 48.78125 14.2 
L 48.78125 42.55625 
Q 48.78125 44.55625 50.78125 44.55625 
z
" style="fill: #ffffff; opacity: 0.8; stroke: #cccccc; stroke-linejoin: miter"/>
    </g>
    <g id="line2d_29">
     <path d="M 52.78125 20.298437 
L 62.78125 20.298437 
L 72.78125 20.298437 
" style="fill: none; stroke: #0000ff; stroke-width: 1.5; stroke-linecap: square"/>
    </g>
    <g id="text_16">
     <!-- $3x$ -->
     <g transform="translate(80.78125 23.798437)scale(0.1 -0.1)">
      <defs>
       <path id="DejaVuSans-Oblique-78" d="M 3841 3500 
L 2234 1784 
L 3219 0 
L 2559 0 
L 1819 1388 
L 531 0 
L -166 0 
L 1556 1844 
L 641 3500 
L 1300 3500 
L 1972 2234 
L 3144 3500 
L 3841 3500 
z
" transform="scale(0.015625)"/>
      </defs>
      <use xlink:href="#DejaVuSans-33" transform="translate(0 0.78125)"/>
      <use xlink:href="#DejaVuSans-Oblique-78" transform="translate(63.623047 0.78125)"/>
     </g>
    </g>
    <g id="line2d_30">
     <path d="M 52.78125 34.976562 
L 62.78125 34.976562 
L 72.78125 34.976562 
" style="fill: none; stroke: #ff0000; stroke-width: 1.5; stroke-linecap: square"/>
    </g>
    <g id="text_17">
     <!-- $3\sqrt{x}$ -->
     <g transform="translate(80.78125 38.476562)scale(0.1 -0.1)">
      <defs>
       <path id="DejaVuSans-221a" d="M 3488 5191 
L 4078 5191 
L 4078 4891 
L 3719 4891 
L 1863 -128 
L 1656 -128 
L 659 2631 
L 269 2491 
L 191 2741 
L 1075 3047 
L 1875 831 
L 3488 5191 
z
" transform="scale(0.015625)"/>
      </defs>
      <use xlink:href="#DejaVuSans-33" transform="translate(0 0.890625)"/>
      <use xlink:href="#DejaVuSans-221a" transform="translate(63.623047 0.890625)"/>
      <use xlink:href="#DejaVuSans-Oblique-78" transform="translate(139.84375 1.0625)"/>
      <path d="M 127.34375 75.5 
L 127.34375 81.75 
L 211.523438 81.75 
L 211.523438 75.5 
L 127.34375 75.5 
z
"/>
     </g>
    </g>
   </g>
  </g>
 </g>
 <defs>
  <clipPath id="p289c092338">
   <rect x="43.78125" y="7.2" width="334.8" height="332.64"/>
  </clipPath>
 </defs>
</svg>
